<svg width="324" height="302" viewBox="0 0 324 302" fill="none" xmlns="http://www.w3.org/2000/svg">
<path fill-rule="evenodd" clip-rule="evenodd" d="M187.328 26.2079C232.808 29.2606 307.43 54.6071 303.878 150.708C301.117 225.37 219.985 277.143 145.974 269.196C59.6896 259.926 0.721214 236.055 25.8279 157.683C53.9729 69.8351 131.216 22.4472 187.328 26.2079Z" fill="#8F8174"/>
<path d="M200.839 225H123.615C111.893 239.533 106.026 255.65 106.53 271.938L216.184 272C215.788 263.404 214.128 254.848 211.224 246.444C208.682 239.133 205.209 231.962 200.839 225Z" fill="black"/>
<path d="M194.131 131.981H132.387V197.901H194.131V131.981Z" fill="black"/>
<path d="M169.787 120.998H154.826C150.084 120.998 145.536 119.111 142.183 115.753C138.829 112.394 136.945 107.839 136.945 103.09V84.158C136.945 79.5235 138.784 75.0788 142.056 71.8017C145.328 68.5246 149.765 66.6836 154.393 66.6836H169.724C175.838 66.6836 181.7 69.1158 186.023 73.4453C190.346 77.7747 192.774 83.6467 192.774 89.7694V97.9749C192.774 104.081 190.353 109.937 186.042 114.255C181.73 118.572 175.883 120.998 169.787 120.998Z" fill="black"/>
<path d="M188.41 114.669L197.569 84.342C197.697 83.9182 197.917 83.5279 198.212 83.1988C198.508 82.8697 198.872 82.61 199.28 82.4382C199.687 82.2663 200.127 82.1866 200.569 82.2047C201.011 82.2227 201.443 82.3381 201.835 82.5426L211.725 87.6941C212.154 87.9176 212.523 88.2416 212.801 88.6386C213.078 89.0355 213.256 89.4937 213.318 89.9741C213.381 90.4545 213.327 90.9431 213.161 91.3981C212.995 91.8532 212.722 92.2614 212.364 92.588L188.41 114.669Z" fill="#FFFAF8"/>
<path d="M186.062 113.48L212.21 97.1759C212.616 96.9231 213.074 96.7652 213.549 96.7138C214.025 96.6623 214.505 96.7188 214.956 96.8789C215.407 97.039 215.816 97.2987 216.152 97.6386C216.489 97.9786 216.745 98.3902 216.902 98.8428L220.37 108.899C220.535 109.377 220.584 109.887 220.513 110.387C220.442 110.887 220.254 111.364 219.963 111.777C219.673 112.19 219.288 112.527 218.841 112.762C218.394 112.997 217.898 113.122 217.394 113.127L186.062 113.48Z" fill="#FFFAF8"/>
<path d="M194.127 115.677C193.071 115.677 192.038 115.363 191.159 114.775C190.281 114.187 189.596 113.352 189.192 112.374C188.787 111.396 188.682 110.321 188.888 109.283C189.094 108.245 189.603 107.292 190.35 106.544C191.097 105.795 192.049 105.286 193.085 105.079C194.121 104.873 195.195 104.979 196.171 105.384C197.147 105.789 197.982 106.474 198.569 107.354C199.156 108.234 199.469 109.269 199.469 110.327C199.467 111.745 198.904 113.105 197.902 114.108C196.901 115.111 195.543 115.675 194.127 115.677ZM194.127 106.448C193.361 106.448 192.613 106.676 191.976 107.102C191.339 107.528 190.843 108.134 190.55 108.843C190.256 109.551 190.18 110.331 190.329 111.083C190.479 111.836 190.847 112.527 191.389 113.069C191.93 113.611 192.62 113.981 193.372 114.13C194.123 114.28 194.901 114.203 195.609 113.91C196.317 113.616 196.921 113.119 197.347 112.481C197.772 111.844 197.999 111.094 197.999 110.327C197.997 109.299 197.589 108.313 196.863 107.586C196.137 106.86 195.153 106.45 194.127 106.448Z" fill="black"/>
<path d="M184.464 102.188C184.677 100.179 184.091 98.1676 182.833 96.5885C181.575 95.0094 179.747 93.9899 177.745 93.7505L177.793 88.5586C177.818 86.912 177.519 85.2764 176.912 83.7458C176.306 82.2152 175.403 80.8197 174.257 79.6392C173.11 78.4588 171.742 77.5167 170.231 76.8669C168.72 76.2172 167.096 75.8726 165.452 75.8529L146.347 75.7168C143.845 75.7139 141.443 76.705 139.669 78.4729C137.895 80.2408 136.893 82.6411 136.883 85.1476L136.681 108.517C136.653 110.477 137.011 112.423 137.735 114.245C138.458 116.066 139.533 117.727 140.898 119.132C142.263 120.536 143.891 121.658 145.689 122.432C147.487 123.207 149.42 123.618 151.377 123.644H152.259L152.141 136.596L177.385 136.776L177.524 121.436H177.502L177.616 109.098C179.377 108.912 181.021 108.123 182.268 106.864C183.516 105.605 184.292 103.953 184.464 102.188Z" fill="#D9C8B9"/>
<path d="M233.582 166.967L203.305 184.843L222.108 223.788C222.108 223.788 230.595 239.926 246.51 232.361C249.722 230.806 252.585 228.615 254.928 225.921C257.27 223.227 259.044 220.086 260.14 216.686L276.501 166.967C276.501 166.967 300.535 158.795 304.099 137.762C304.237 137.096 304.248 136.409 304.132 135.739C303.95 134.736 303.494 133.803 302.813 133.045C303.057 132.49 303.254 131.915 303.401 131.327C303.732 129.991 304.048 128.688 302.968 127.585C302.518 127.097 301.898 126.802 301.237 126.761C300.576 126.72 299.925 126.936 299.419 127.364C299.668 125.995 299.294 124.788 298.452 124.258C298.106 124.054 297.707 123.96 297.306 123.99C295.407 124.104 294.025 126.712 293.632 127.441C292.023 130.385 288.625 135.363 283.591 142.343C283.591 142.343 290.833 132.508 286.979 129.8C285.829 128.994 284.455 130.123 283.698 130.926C282.298 132.397 281.758 134.432 280.718 136.125C279.347 138.248 277.515 140.033 275.358 141.346C271.96 143.51 268.197 144.658 265.097 147.296C263.685 148.485 262.426 149.844 261.349 151.344C260.089 153.117 259.645 155.211 258.557 157.003L241.727 184.582L233.582 166.967Z" fill="#D9C8B9"/>
<path d="M238.294 235.109C227.382 235.109 221.526 224.265 221.456 224.129L202.352 184.551L233.907 165.922L241.813 183.035L257.92 156.627C258.367 155.849 258.753 155.037 259.074 154.198C259.504 153.05 260.064 151.953 260.741 150.931C261.852 149.377 263.152 147.968 264.61 146.736C266.55 145.08 268.747 143.991 270.856 142.939C272.256 142.276 273.619 141.539 274.941 140.731C277.012 139.482 278.771 137.777 280.085 135.745C280.448 135.129 280.775 134.493 281.066 133.839C281.62 132.658 282.194 131.44 283.156 130.425C285.232 128.217 286.701 128.721 287.392 129.207C287.767 129.472 288.083 129.811 288.321 130.205C288.559 130.598 288.713 131.036 288.774 131.492C288.879 132.299 288.834 133.118 288.641 133.909C290.706 130.888 292.124 128.658 292.98 127.094L293.002 127.047C293.495 126.145 294.99 123.396 297.257 123.264C297.808 123.218 298.359 123.347 298.833 123.632C299.238 123.911 299.573 124.28 299.811 124.712C300.049 125.143 300.183 125.624 300.203 126.116C300.785 125.969 301.396 125.98 301.972 126.148C302.549 126.315 303.071 126.633 303.484 127.069C304.862 128.471 304.443 130.152 304.109 131.503C303.991 131.984 303.84 132.456 303.657 132.916C304.197 133.615 304.581 134.424 304.78 135.285C304.98 136.147 304.992 137.042 304.814 137.909C303.344 146.677 297.992 154.618 289.383 160.847C285.587 163.602 281.45 165.852 277.076 167.541L260.837 216.913C259.705 220.406 257.879 223.634 255.471 226.403C253.062 229.171 250.12 231.424 246.821 233.026C244.169 234.35 241.256 235.061 238.294 235.109ZM204.258 185.133L222.768 223.467C224.313 226.138 226.369 228.477 228.819 230.351C234.032 234.248 239.877 234.701 246.193 231.694C249.312 230.178 252.093 228.047 254.369 225.428C256.646 222.809 258.371 219.756 259.441 216.454L275.922 166.389L276.271 166.271C276.506 166.19 299.935 157.985 303.381 137.637C303.504 137.054 303.515 136.453 303.414 135.867C303.256 134.998 302.86 134.191 302.272 133.534L301.956 133.166L302.147 132.732C302.374 132.216 302.558 131.682 302.694 131.135C303.036 129.747 303.209 128.861 302.448 128.084C302.132 127.733 301.693 127.518 301.222 127.482C300.752 127.446 300.286 127.594 299.92 127.893L298.311 129.365L298.704 127.223C298.895 126.175 298.642 125.229 298.072 124.879C297.856 124.752 297.605 124.697 297.356 124.721C296.393 124.776 295.365 125.796 294.307 127.742L294.281 127.786C292.756 130.575 289.692 135.145 284.361 142.545L284.196 142.777L283.009 141.909L283.248 141.577C284.718 139.48 287.789 134.45 287.344 131.716C287.315 131.454 287.23 131.202 287.097 130.975C286.963 130.748 286.783 130.552 286.569 130.399C285.834 129.884 284.699 130.947 284.244 131.429C283.443 132.268 282.947 133.331 282.407 134.457C282.089 135.159 281.735 135.843 281.345 136.507C279.92 138.727 278.009 140.593 275.757 141.964C274.384 142.801 272.968 143.564 271.513 144.249C269.375 145.312 267.355 146.313 265.551 147.851C264.196 149.007 262.99 150.327 261.961 151.781C261.348 152.714 260.843 153.714 260.455 154.761C260.103 155.67 259.683 156.551 259.198 157.396L241.652 186.148L233.271 168.015L204.258 185.133Z" fill="black"/>
<path d="M176.727 105.128C176.625 105.133 176.524 105.133 176.422 105.128C175.829 105.068 175.267 104.832 174.807 104.452C174.347 104.072 174.01 103.563 173.838 102.991C173.667 102.419 173.669 101.809 173.843 101.238C174.018 100.667 174.357 100.16 174.819 99.7827C175.281 99.4049 175.845 99.1727 176.438 99.1155C177.032 99.0582 177.629 99.1785 178.154 99.4611C178.68 99.7437 179.11 100.176 179.39 100.703C179.67 101.231 179.788 101.829 179.729 102.423C179.653 103.168 179.305 103.858 178.751 104.36C178.198 104.862 177.478 105.141 176.731 105.143L176.727 105.128ZM176.727 100.558C176.428 100.558 176.135 100.645 175.884 100.808C175.633 100.972 175.435 101.205 175.313 101.479C175.192 101.753 175.153 102.056 175.2 102.352C175.247 102.648 175.38 102.924 175.58 103.146C175.781 103.369 176.042 103.528 176.332 103.605C176.621 103.681 176.926 103.672 177.211 103.579C177.495 103.485 177.746 103.311 177.933 103.077C178.121 102.843 178.236 102.56 178.266 102.262C178.306 101.853 178.183 101.445 177.923 101.127C177.664 100.809 177.289 100.607 176.881 100.565L176.727 100.558Z" fill="black"/>
<path d="M152.252 123.644L167.315 123.276C167.413 123.272 167.509 123.304 167.585 123.365C167.662 123.426 167.714 123.513 167.732 123.609C167.749 123.706 167.732 123.806 167.683 123.89C167.633 123.975 167.555 124.039 167.462 124.07L152.189 129.59L152.252 123.644Z" fill="#50453A"/>
<path d="M174.47 103.214C174.287 103.215 174.11 103.148 173.975 103.025C173.839 102.903 173.753 102.734 173.735 102.552C173.652 101.735 173.785 100.911 174.121 100.163C174.457 99.414 174.984 98.7672 175.649 98.2873C176.287 97.8511 177.021 97.5744 177.788 97.4803C178.555 97.3862 179.333 97.4774 180.058 97.7464C180.152 97.7787 180.238 97.8296 180.312 97.8962C180.385 97.9627 180.445 98.0435 180.486 98.1337C180.528 98.2238 180.551 98.3215 180.554 98.4208C180.557 98.52 180.539 98.6189 180.503 98.7114C180.467 98.8038 180.412 98.888 180.343 98.9587C180.273 99.0295 180.19 99.0855 180.098 99.1232C180.007 99.161 179.908 99.1797 179.809 99.1783C179.71 99.177 179.612 99.1555 179.521 99.1152C179.025 98.9371 178.495 98.8777 177.972 98.9415C177.448 99.0054 176.948 99.1909 176.509 99.4832C176.054 99.8115 175.693 100.254 175.464 100.766C175.234 101.279 175.143 101.843 175.201 102.401C175.21 102.497 175.201 102.594 175.173 102.687C175.145 102.779 175.1 102.866 175.039 102.94C174.978 103.015 174.902 103.077 174.817 103.123C174.732 103.169 174.639 103.197 174.543 103.207L174.47 103.214Z" fill="black"/>
<path d="M100.478 164.814L130.754 182.69L111.951 221.635C111.951 221.635 103.461 237.773 87.549 230.208C84.3368 228.654 81.4727 226.464 79.13 223.77C76.7872 221.075 75.0143 217.933 73.9187 214.533L57.555 164.814C57.555 164.814 33.5201 156.642 29.96 135.609C29.8223 134.943 29.8111 134.256 29.9269 133.586C30.1067 132.583 30.5607 131.651 31.2385 130.892C30.9944 130.337 30.7977 129.762 30.6507 129.174C30.3201 127.842 30.0041 126.536 31.0879 125.432C31.5371 124.945 32.1561 124.651 32.8164 124.61C33.4767 124.569 34.1274 124.784 34.6333 125.211C34.3834 123.842 34.7618 122.635 35.5995 122.105C35.9462 121.903 36.3455 121.809 36.7458 121.837C38.6452 121.951 40.0266 124.56 40.4197 125.288C42.0326 128.232 45.431 133.214 50.4606 140.191C50.4606 140.191 43.2193 130.355 47.0732 127.647C48.2232 126.841 49.5972 127.974 50.3577 128.773C51.7575 130.245 52.2939 132.283 53.3336 133.972C54.7065 136.093 56.5385 137.878 58.6939 139.193C62.0923 141.357 65.8544 142.505 68.9589 145.143C70.3695 146.333 71.6282 147.692 72.7063 149.191C73.9628 150.964 74.411 153.054 75.4985 154.846L92.3251 182.425L100.478 164.814Z" fill="#D9C8B9"/>
<path d="M95.765 232.957C92.8014 232.912 89.8859 232.2 87.2341 230.874C83.9354 229.272 80.9939 227.019 78.586 224.25C76.1781 221.481 74.3535 218.253 73.2217 214.761L56.9572 165.388C52.5822 163.701 48.445 161.451 44.6495 158.695C36.0451 152.469 30.7105 144.525 29.2189 135.731C29.0448 134.868 29.0583 133.978 29.2587 133.122C29.459 132.265 29.8415 131.462 30.3799 130.767C30.2006 130.305 30.0497 129.834 29.928 129.354C29.5937 128 29.1932 126.322 30.5526 124.916C30.9665 124.481 31.4882 124.164 32.0646 123.996C32.6409 123.829 33.2512 123.817 33.8334 123.963C33.8539 123.471 33.9883 122.991 34.2262 122.559C34.464 122.128 34.7987 121.759 35.2038 121.479C35.6778 121.195 36.229 121.066 36.7799 121.112C39.0467 121.248 40.542 123.993 41.0343 124.894L41.06 124.942C41.9307 126.535 43.3268 128.739 45.3989 131.764C45.2046 130.971 45.1597 130.149 45.2667 129.339C45.3259 128.883 45.4793 128.444 45.7171 128.051C45.955 127.657 46.272 127.318 46.6481 127.054C47.3388 126.568 48.8084 126.083 50.8841 128.272C51.843 129.288 52.4198 130.509 52.9746 131.687C53.2638 132.341 53.5913 132.977 53.9555 133.593C55.2638 135.624 57.0165 137.33 59.0807 138.582C60.4036 139.388 61.7673 140.125 63.1661 140.79C65.2896 141.842 67.4867 142.935 69.4118 144.587C70.8703 145.82 72.171 147.229 73.2841 148.782C73.9605 149.805 74.5188 150.901 74.9484 152.05C75.2725 152.888 75.6594 153.701 76.1057 154.482L92.2159 180.887L100.122 163.773L131.681 182.406L112.577 221.958C112.533 222.109 106.673 232.957 95.765 232.957ZM33.0435 125.328C32.5057 125.339 31.9936 125.561 31.618 125.946C30.8538 126.723 31.0265 127.613 31.3719 128.997C31.5055 129.544 31.6874 130.079 31.9156 130.594L32.1066 131.028L31.7944 131.396C31.2028 132.051 30.8069 132.859 30.6518 133.729C30.5495 134.307 30.5595 134.899 30.6812 135.473C34.1347 155.865 57.556 164.052 57.7948 164.133L58.1402 164.251L74.6178 214.316C75.6871 217.619 77.4118 220.673 79.6883 223.292C81.9649 225.912 84.7464 228.044 87.866 229.56C94.1962 232.57 100.056 232.11 105.277 228.184C107.717 226.311 109.765 223.974 111.302 221.307L129.797 182.995L100.806 165.878L92.4254 183.988L74.8786 155.232C74.3919 154.388 73.9718 153.507 73.6221 152.598C73.2324 151.551 72.7271 150.552 72.1158 149.617C71.0723 148.174 69.8543 146.865 68.4896 145.721C66.6857 144.183 64.6688 143.182 62.5305 142.118C61.0836 141.433 59.6745 140.67 58.3092 139.833C56.0564 138.462 54.1443 136.596 52.7174 134.376C52.3265 133.714 51.9732 133.03 51.6593 132.327C51.1303 131.201 50.6306 130.141 49.8224 129.299C49.3668 128.817 48.2279 127.753 47.4931 128.268C47.2794 128.422 47.1001 128.618 46.9666 128.845C46.8332 129.072 46.7484 129.324 46.7179 129.586C46.2733 132.32 49.319 137.313 50.807 139.436L51.0531 139.778L49.8665 140.646L49.7011 140.415C44.3592 132.997 41.2952 128.441 39.7815 125.659L39.7558 125.612C38.694 123.665 37.669 122.65 36.7027 122.591C36.4534 122.569 36.2033 122.624 35.9863 122.749C35.4169 123.117 35.1634 124.044 35.3581 125.097L35.7475 127.234L34.142 125.763C33.8438 125.484 33.4513 125.329 33.0435 125.328Z" fill="black"/>
<path d="M140.031 100.061C140.853 100.061 141.519 99.3933 141.519 98.5703C141.519 97.7473 140.853 97.0801 140.031 97.0801C139.209 97.0801 138.543 97.7473 138.543 98.5703C138.543 99.3933 139.209 100.061 140.031 100.061Z" fill="black"/>
<path d="M155.992 99.8184C156.814 99.8184 157.48 99.1512 157.48 98.3281C157.48 97.5051 156.814 96.8379 155.992 96.8379C155.17 96.8379 154.504 97.5051 154.504 98.3281C154.504 99.1512 155.17 99.8184 155.992 99.8184Z" fill="black"/>
<path d="M145.915 105.161C145.831 105.16 145.748 105.145 145.669 105.117C144.567 104.749 143.465 104.204 143.465 103.24C143.477 103.06 143.525 102.884 143.606 102.722C143.687 102.56 143.799 102.416 143.935 102.298C144.03 102.201 144.12 102.099 144.203 101.993C144.576 101.509 144.8 100.927 144.846 100.318L145.463 93.8607C145.482 93.6656 145.577 93.4857 145.728 93.3608C145.879 93.2359 146.073 93.1762 146.268 93.1947C146.463 93.2133 146.642 93.3086 146.767 93.4597C146.892 93.6108 146.952 93.8054 146.933 94.0006L146.308 100.462C146.235 101.345 145.908 102.188 145.368 102.89C145.254 103.038 145.155 103.148 145.07 103.24C145.417 103.446 145.787 103.61 146.173 103.729C146.337 103.786 146.476 103.9 146.564 104.05C146.653 104.2 146.686 104.376 146.657 104.548C146.628 104.72 146.539 104.876 146.406 104.988C146.272 105.1 146.104 105.161 145.93 105.161H145.915Z" fill="black"/>
<path d="M148.138 111.593C147.012 111.562 145.915 111.233 144.956 110.64C144.871 110.589 144.797 110.522 144.739 110.442C144.681 110.362 144.639 110.271 144.617 110.174C144.594 110.078 144.592 109.978 144.609 109.88C144.626 109.783 144.663 109.689 144.717 109.606C144.771 109.523 144.841 109.452 144.923 109.397C145.005 109.342 145.097 109.304 145.195 109.285C145.292 109.266 145.392 109.268 145.488 109.289C145.585 109.31 145.677 109.35 145.757 109.407C145.783 109.426 147.297 110.379 148.785 110.051C149.192 109.948 149.573 109.763 149.906 109.506C150.239 109.25 150.516 108.928 150.721 108.561C150.825 108.396 150.99 108.279 151.181 108.237C151.371 108.194 151.57 108.228 151.735 108.333C151.899 108.437 152.016 108.603 152.059 108.793C152.101 108.984 152.067 109.184 151.963 109.348C151.586 110.033 151.032 110.602 150.358 110.997C149.685 111.392 148.918 111.598 148.138 111.593Z" fill="black"/>
<path d="M123.644 225.079L117.215 193.802C116.12 188.484 116.399 182.973 118.023 177.792L132.388 131.978H145.199L148.138 138.513C154.446 152.543 174.44 152.241 180.326 138.03L182.831 131.978H194.132L208.288 178.558C210.115 184.562 210.205 190.961 208.549 197.014L200.878 225.079H123.644Z" fill="#693E00"/>
<path d="M164.786 86.384H157.688C155.493 86.384 153.389 85.511 151.837 83.957C150.286 82.403 149.414 80.2953 149.414 78.0976V72.7695H164.786V86.384Z" fill="black"/>
<path d="M194.129 131.982L209.218 182.455L237.595 165.687C234.46 159.928 230.976 154.367 227.165 149.033C220.438 139.628 216.951 134.877 211.044 132.475C204.765 129.899 198.457 130.793 194.129 131.982Z" fill="#693E00"/>
<path d="M184.505 94.4121H171.756C170.527 94.4117 169.309 94.1687 168.174 93.6971C167.038 93.2255 166.007 92.5344 165.138 91.6635C164.269 90.7925 163.58 89.7587 163.11 88.621C162.64 87.4833 162.398 86.2641 162.398 85.0329V80.7939H184.508L184.505 94.4121Z" fill="black"/>
<path d="M179.997 72.7695H158.027V86.3877H179.997V72.7695Z" fill="black"/>
<path d="M190.547 145.703C200.201 145.703 208.028 137.864 208.028 128.195C208.028 118.526 200.201 110.688 190.547 110.688C180.893 110.688 173.066 118.526 173.066 128.195C173.066 137.864 180.893 145.703 190.547 145.703Z" fill="black"/>
<path d="M177.767 157.908C184.916 157.908 190.711 152.104 190.711 144.945C190.711 137.785 184.916 131.981 177.767 131.981C170.619 131.981 164.824 137.785 164.824 144.945C164.824 152.104 170.619 157.908 177.767 157.908Z" fill="black"/>
<path d="M201.002 158.643C208.15 158.643 213.945 152.839 213.945 145.68C213.945 138.521 208.15 132.717 201.002 132.717C193.854 132.717 188.059 138.521 188.059 145.68C188.059 152.839 193.854 158.643 201.002 158.643Z" fill="black"/>
<path d="M188.06 175.551C195.209 175.551 201.004 169.748 201.004 162.588C201.004 155.429 195.209 149.625 188.06 149.625C180.912 149.625 175.117 155.429 175.117 162.588C175.117 169.748 180.912 175.551 188.06 175.551Z" fill="black"/>
<path d="M233.471 197.533C233.337 197.533 233.207 197.496 233.093 197.427C232.979 197.358 232.886 197.259 232.824 197.142C232.761 197.024 232.732 196.891 232.739 196.758C232.747 196.625 232.79 196.496 232.864 196.385L241.112 184.18C241.166 184.1 241.236 184.031 241.316 183.978C241.397 183.924 241.487 183.887 241.582 183.869C241.677 183.851 241.774 183.851 241.869 183.87C241.964 183.89 242.054 183.927 242.134 183.981C242.214 184.036 242.282 184.105 242.336 184.186C242.389 184.266 242.426 184.357 242.444 184.452C242.463 184.547 242.462 184.644 242.443 184.739C242.424 184.834 242.386 184.924 242.332 185.004L234.08 197.21C234.013 197.31 233.922 197.391 233.816 197.448C233.709 197.504 233.591 197.534 233.471 197.533Z" fill="black"/>
<path d="M294.819 148.665C294.67 148.665 294.525 148.621 294.402 148.537C294.28 148.453 294.185 148.334 294.132 148.195C294.078 148.057 294.068 147.905 294.102 147.76C294.136 147.616 294.213 147.485 294.323 147.385C298.845 143.256 301.957 133.211 301.986 133.111C302.015 133.019 302.061 132.933 302.122 132.858C302.184 132.783 302.259 132.722 302.344 132.676C302.43 132.631 302.523 132.603 302.619 132.593C302.715 132.584 302.813 132.594 302.905 132.622C302.997 132.65 303.083 132.696 303.158 132.758C303.232 132.82 303.294 132.895 303.339 132.981C303.385 133.066 303.413 133.16 303.422 133.256C303.432 133.352 303.422 133.449 303.394 133.542C303.261 133.969 300.135 144.069 295.311 148.474C295.176 148.596 295.001 148.665 294.819 148.665Z" fill="black"/>
<path d="M290.25 144.683C290.097 144.684 289.948 144.637 289.824 144.549C289.699 144.461 289.605 144.337 289.554 144.193C289.503 144.049 289.498 143.893 289.54 143.746C289.582 143.599 289.668 143.469 289.787 143.373C293.971 139.973 298.674 127.234 298.722 127.109C298.797 126.938 298.934 126.801 299.106 126.727C299.278 126.654 299.472 126.648 299.647 126.713C299.823 126.777 299.967 126.906 300.052 127.073C300.136 127.241 300.153 127.434 300.099 127.613C299.901 128.154 295.209 140.86 290.713 144.517C290.582 144.624 290.418 144.683 290.25 144.683Z" fill="black"/>
<path d="M100.583 195.395C100.464 195.395 100.346 195.366 100.241 195.31C100.135 195.254 100.045 195.174 99.9771 195.075L91.7255 182.866C91.6667 182.786 91.6247 182.695 91.6018 182.599C91.579 182.502 91.5759 182.402 91.5926 182.305C91.6094 182.207 91.6457 182.114 91.6994 182.03C91.7531 181.947 91.823 181.875 91.905 181.82C91.987 181.764 92.0794 181.726 92.1765 181.707C92.2737 181.688 92.3737 181.689 92.4705 181.71C92.5673 181.73 92.659 181.77 92.7399 181.828C92.8208 181.885 92.8894 181.958 92.9416 182.042L101.193 194.247C101.268 194.358 101.311 194.487 101.318 194.62C101.325 194.754 101.296 194.887 101.233 195.005C101.17 195.123 101.077 195.222 100.962 195.29C100.848 195.359 100.717 195.395 100.583 195.395Z" fill="black"/>
<path d="M39.2358 146.516C39.0537 146.516 38.8783 146.448 38.7435 146.325C33.9233 141.909 30.7931 131.82 30.6608 131.393C30.627 131.299 30.6126 131.2 30.6184 131.1C30.6243 131.001 30.6502 130.903 30.6947 130.814C30.7392 130.725 30.8014 130.646 30.8774 130.581C30.9534 130.517 31.0416 130.469 31.1368 130.439C31.232 130.41 31.3321 130.401 31.431 130.411C31.53 130.422 31.6257 130.453 31.7125 130.502C31.7992 130.551 31.8751 130.617 31.9356 130.696C31.9961 130.775 32.0398 130.866 32.0643 130.963C32.0973 131.062 35.2092 141.107 39.7281 145.239C39.8366 145.34 39.9125 145.47 39.9458 145.614C39.979 145.758 39.9682 145.909 39.9147 146.047C39.8611 146.185 39.7674 146.303 39.6456 146.387C39.5239 146.471 39.3798 146.516 39.2321 146.516H39.2358Z" fill="black"/>
<path d="M43.8009 142.53C43.6322 142.53 43.4687 142.472 43.338 142.365C38.8374 138.711 34.1531 126.002 33.9474 125.464C33.9141 125.374 33.899 125.277 33.903 125.18C33.9069 125.084 33.9298 124.989 33.9704 124.901C34.011 124.813 34.0685 124.734 34.1396 124.669C34.2106 124.603 34.2939 124.552 34.3846 124.519C34.4753 124.485 34.5717 124.47 34.6682 124.474C34.7648 124.478 34.8596 124.501 34.9472 124.542C35.0349 124.582 35.1137 124.64 35.1792 124.711C35.2447 124.782 35.2955 124.866 35.3288 124.957C35.3766 125.085 40.0755 137.835 44.2638 141.224C44.3813 141.32 44.4662 141.45 44.5071 141.596C44.5479 141.742 44.5426 141.898 44.4919 142.041C44.4412 142.184 44.3476 142.308 44.2239 142.395C44.1002 142.483 43.9524 142.53 43.8009 142.53Z" fill="black"/>
<path d="M96.0898 164.24L118.258 177.031L132.385 131.981C132.385 131.981 112.799 126.513 96.0898 164.24Z" fill="#693E00"/>
<rect x="211" y="2" width="112" height="77" rx="10" fill="#FFFAF8"/>
<path d="M256.45 14H228.182C225.271 14 222.91 16.364 222.91 19.2802V52.5217C222.91 55.4379 225.271 57.802 228.182 57.802H256.45C259.361 57.802 261.722 55.4379 261.722 52.5217V19.2802C261.722 16.364 259.361 14 256.45 14Z" fill="#50453A"/>
<path d="M278.759 14.9199H271.918C270.893 14.9199 270.062 15.7519 270.062 16.7781V23.6295C270.062 24.6558 270.893 25.4877 271.918 25.4877H278.759C279.783 25.4877 280.614 24.6558 280.614 23.6295V16.7781C280.614 15.7519 279.783 14.9199 278.759 14.9199Z" fill="#8F8174"/>
<path d="M293.556 14.9199H286.715C285.69 14.9199 284.859 15.7519 284.859 16.7781V23.6295C284.859 24.6558 285.69 25.4877 286.715 25.4877H293.556C294.58 25.4877 295.411 24.6558 295.411 23.6295V16.7781C295.411 15.7519 294.58 14.9199 293.556 14.9199Z" fill="#8F8174"/>
<path d="M308.36 14.9199H301.519C300.495 14.9199 299.664 15.7519 299.664 16.7781V23.6295C299.664 24.6558 300.495 25.4877 301.519 25.4877H308.36C309.385 25.4877 310.216 24.6558 310.216 23.6295V16.7781C310.216 15.7519 309.385 14.9199 308.36 14.9199Z" fill="#8F8174"/>
<path d="M310.215 35.8498H270.789C270.595 35.8498 270.408 35.7722 270.27 35.6342C270.132 35.4962 270.055 35.309 270.055 35.1138C270.055 34.9187 270.132 34.7315 270.27 34.5935C270.408 34.4555 270.595 34.3779 270.789 34.3779H310.215C310.409 34.3779 310.596 34.4555 310.734 34.5935C310.872 34.7315 310.949 34.9187 310.949 35.1138C310.949 35.309 310.872 35.4962 310.734 35.6342C310.596 35.7722 310.409 35.8498 310.215 35.8498Z" fill="black"/>
<path d="M310.215 43.6388H270.789C270.595 43.6388 270.408 43.5613 270.27 43.4233C270.132 43.2853 270.055 43.0981 270.055 42.9029C270.055 42.7077 270.132 42.5205 270.27 42.3825C270.408 42.2445 270.595 42.167 270.789 42.167H310.215C310.409 42.167 310.596 42.2445 310.734 42.3825C310.872 42.5205 310.949 42.7077 310.949 42.9029C310.949 43.0981 310.872 43.2853 310.734 43.4233C310.596 43.5613 310.409 43.6388 310.215 43.6388Z" fill="black"/>
<path d="M296.495 51.4289H270.778C270.583 51.4289 270.396 51.3513 270.258 51.2133C270.12 51.0753 270.043 50.8881 270.043 50.693C270.043 50.4978 270.12 50.3106 270.258 50.1726C270.396 50.0346 270.583 49.957 270.778 49.957H296.495C296.69 49.957 296.877 50.0346 297.015 50.1726C297.153 50.3106 297.23 50.4978 297.23 50.693C297.23 50.8881 297.153 51.0753 297.015 51.2133C296.877 51.3513 296.69 51.4289 296.495 51.4289Z" fill="black"/>
<rect x="7" y="34" width="78" height="67" rx="10" fill="#FFFAF8"/>
<path d="M78.7422 60.2824H59.4614C59.2665 60.2824 59.0796 60.2049 58.9418 60.0668C58.804 59.9288 58.7266 59.7416 58.7266 59.5465C58.7266 59.3513 58.804 59.1641 58.9418 59.0261C59.0796 58.8881 59.2665 58.8105 59.4614 58.8105H78.7422C78.9371 58.8105 79.124 58.8881 79.2618 59.0261C79.3996 59.1641 79.477 59.3513 79.477 59.5465C79.477 59.7416 79.3996 59.9288 79.2618 60.0668C79.124 60.2049 78.9371 60.2824 78.7422 60.2824Z" fill="black"/>
<path d="M78.7422 67.8839H59.4614C59.2665 67.8839 59.0796 67.8064 58.9418 67.6684C58.804 67.5304 58.7266 67.3432 58.7266 67.148C58.7266 66.9529 58.804 66.7657 58.9418 66.6277C59.0796 66.4896 59.2665 66.4121 59.4614 66.4121H78.7422C78.9371 66.4121 79.124 66.4896 79.2618 66.6277C79.3996 66.7657 79.477 66.9529 79.477 67.148C79.477 67.3432 79.3996 67.5304 79.2618 67.6684C79.124 67.8064 78.9371 67.8839 78.7422 67.8839Z" fill="black"/>
<path d="M73.7126 75.4826H59.4614C59.2665 75.4826 59.0796 75.405 58.9418 75.267C58.804 75.129 58.7266 74.9418 58.7266 74.7467C58.7266 74.5515 58.804 74.3643 58.9418 74.2263C59.0796 74.0883 59.2665 74.0107 59.4614 74.0107H73.7126C73.9074 74.0107 74.0943 74.0883 74.2321 74.2263C74.3699 74.3643 74.4473 74.5515 74.4473 74.7467C74.4473 74.9418 74.3699 75.129 74.2321 75.267C74.0943 75.405 73.9074 75.4826 73.7126 75.4826Z" fill="black"/>
<path d="M48.4351 82.7133H23.265L20.9688 74.6182H49.9929L48.4351 82.7133ZM24.3598 81.2414H47.2227L48.2037 76.09H22.8976L24.3598 81.2414Z" fill="black"/>
<path d="M36.102 82.7133C35.9071 82.7133 35.7202 82.6357 35.5824 82.4977C35.4446 82.3597 35.3672 82.1725 35.3672 81.9774V75.3541C35.3672 75.1589 35.4446 74.9717 35.5824 74.8337C35.7202 74.6957 35.9071 74.6182 36.102 74.6182C36.2969 74.6182 36.4837 74.6957 36.6215 74.8337C36.7593 74.9717 36.8368 75.1589 36.8368 75.3541V81.9774C36.8368 82.1725 36.7593 82.3597 36.6215 82.4977C36.4837 82.6357 36.2969 82.7133 36.102 82.7133Z" fill="black"/>
<path d="M47.0963 83.9972C48.2001 83.9972 49.0949 83.0928 49.0949 81.9771C49.0949 80.8615 48.2001 79.957 47.0963 79.957C45.9925 79.957 45.0977 80.8615 45.0977 81.9771C45.0977 83.0928 45.9925 83.9972 47.0963 83.9972Z" fill="black"/>
<path d="M36.0873 83.9972C37.2013 83.9972 38.1043 83.0928 38.1043 81.9771C38.1043 80.8615 37.2013 79.957 36.0873 79.957C34.9733 79.957 34.0703 80.8615 34.0703 81.9771C34.0703 83.0928 34.9733 83.9972 36.0873 83.9972Z" fill="black"/>
<path d="M24.5653 83.9972C25.667 83.9972 26.5602 83.0928 26.5602 81.9771C26.5602 80.8615 25.667 79.957 24.5653 79.957C23.4635 79.957 22.5703 80.8615 22.5703 81.9771C22.5703 83.0928 23.4635 83.9972 24.5653 83.9972Z" fill="black"/>
<path d="M18.0443 61.4778C17.9306 61.4782 17.8183 61.4522 17.7162 61.4018C17.6142 61.3513 17.5253 61.2778 17.4565 61.1871L13.3417 55.7376C13.1515 55.4837 13.0356 55.1817 13.007 54.8656C12.9784 54.5494 13.0381 54.2316 13.1795 53.9475C13.321 53.6634 13.5385 53.4243 13.8079 53.257C14.0772 53.0897 14.3878 53.0007 14.7047 53H27.2733C27.7583 53.0002 28.2364 53.1157 28.6681 53.337C29.0999 53.5584 29.473 53.8792 29.7568 54.2731L35.4367 60.2157C35.5548 60.359 35.6143 60.5416 35.6035 60.727C35.5927 60.9124 35.5123 61.0869 35.3784 61.2154C35.2445 61.3439 35.0671 61.417 34.8816 61.4199C34.6962 61.4228 34.5165 61.3555 34.3786 61.2313L28.5702 55.1636C28.424 54.9503 28.2282 54.7759 27.9997 54.6554C27.7712 54.5348 27.5168 54.4719 27.2586 54.4718H14.69C14.6455 54.4711 14.6018 54.4832 14.564 54.5067C14.5262 54.5302 14.496 54.5641 14.4769 54.6043C14.4574 54.6434 14.4491 54.6872 14.453 54.7307C14.4569 54.7742 14.4728 54.8158 14.499 54.8508L18.6285 60.2967C18.6873 60.3736 18.7304 60.4615 18.7553 60.5552C18.7801 60.6489 18.7862 60.7466 18.7733 60.8427C18.7603 60.9388 18.7285 61.0313 18.6797 61.1151C18.6309 61.1988 18.566 61.2721 18.4889 61.3306C18.3607 61.4269 18.2046 61.4786 18.0443 61.4778Z" fill="black"/>
<path d="M36.1016 76.2522H49.82L53.2442 60.8642C53.2971 60.6201 53.2945 60.3672 53.2366 60.1243C53.1786 59.8814 53.0668 59.6547 52.9094 59.461C52.752 59.2673 52.5531 59.1116 52.3273 59.0054C52.1016 58.8992 51.8549 58.8453 51.6056 58.8477H36.1016V76.2522Z" fill="#BE8543"/>
<path d="M21.2424 76.2522H36.0998V58.8477H17.7522C17.4794 58.8468 17.2104 58.9111 16.9675 59.0352C16.7245 59.1594 16.5146 59.3397 16.3551 59.5613C16.1956 59.7829 16.0912 60.0393 16.0505 60.3094C16.0098 60.5795 16.0339 60.8554 16.1209 61.1143L21.2424 76.2522Z" fill="#BE8543"/>
<path d="M36.102 74.2024C35.9071 74.2024 35.7202 74.1248 35.5824 73.9868C35.4446 73.8488 35.3672 73.6616 35.3672 73.4664V60.7203C35.3672 60.5251 35.4446 60.3379 35.5824 60.1999C35.7202 60.0619 35.9071 59.9844 36.102 59.9844C36.2969 59.9844 36.4837 60.0619 36.6215 60.1999C36.7593 60.3379 36.8368 60.5251 36.8368 60.7203V73.4517C36.8387 73.5496 36.8212 73.6469 36.7851 73.7379C36.7491 73.8288 36.6952 73.9117 36.6268 73.9816C36.5584 74.0515 36.4767 74.1071 36.3866 74.145C36.2965 74.1829 36.1997 74.2024 36.102 74.2024Z" fill="black"/>
</svg>
