<svg width="324" height="301" viewBox="0 0 324 301" fill="none" xmlns="http://www.w3.org/2000/svg">
<path fill-rule="evenodd" clip-rule="evenodd" d="M162.907 58.4713C235.718 59.4402 277.805 130.383 310.468 171.918C352.825 225.779 260.092 300.566 162.907 298.422C90.113 296.815 15.6351 236.217 14.0192 175.021C12.3467 111.83 120.249 57.9022 162.907 58.4713Z" fill="#8F8174"/>
<path fill-rule="evenodd" clip-rule="evenodd" d="M67.2112 128.679C67.1884 128.649 67.1655 128.618 67.1426 128.588L67.1502 128.58C70.7439 125.938 71.5069 120.734 69.134 116.443C72.5217 119.989 77.7151 120.808 81.3113 118.163C81.3597 118.127 81.4054 118.091 81.4512 118.056C81.4741 118.089 81.4995 118.119 81.5199 118.155C81.4716 118.186 81.4258 118.221 81.38 118.254C77.7838 120.899 77.0208 126.103 79.3937 130.391C76.006 126.848 70.8126 126.029 67.2163 128.674C67.2163 128.677 67.2138 128.677 67.2112 128.679Z" fill="#251E17"/>
<path fill-rule="evenodd" clip-rule="evenodd" d="M230.373 124.781C230.357 124.761 230.339 124.738 230.324 124.715L230.329 124.712C232.873 122.841 233.414 119.158 231.733 116.121C234.132 118.629 237.807 119.209 240.352 117.337C240.386 117.311 240.419 117.288 240.452 117.263C240.469 117.286 240.485 117.306 240.5 117.332C240.467 117.355 240.434 117.377 240.401 117.403C237.855 119.275 237.316 122.957 238.997 125.992C236.599 123.487 232.921 122.907 230.378 124.779C230.375 124.779 230.375 124.779 230.373 124.781Z" fill="#251E17"/>
<path fill-rule="evenodd" clip-rule="evenodd" d="M227.285 260.8C227.267 260.78 227.252 260.76 227.236 260.739L227.241 260.737C229.663 258.954 230.176 255.449 228.577 252.562C230.858 254.948 234.358 255.5 236.779 253.72C236.809 253.694 236.842 253.671 236.873 253.648C236.888 253.669 236.903 253.689 236.919 253.712C236.888 253.735 236.855 253.758 236.825 253.781C234.403 255.561 233.89 259.066 235.487 261.952C233.205 259.569 229.708 259.017 227.287 260.798L227.285 260.8Z" fill="#251E17"/>
<path fill-rule="evenodd" clip-rule="evenodd" d="M98.8321 189.889C100.64 212.565 130.898 235.768 167.656 229.351C197.985 224.056 225.715 208.026 226.76 171.723C227.434 148.263 211.727 134.242 204.608 116.434C194.089 90.1181 212.594 41.4672 167.293 31.9527C144.601 27.1865 134.454 41.8538 134.454 41.8538C134.454 41.8538 100.755 45.1957 105.373 86.0386C114.557 167.229 95.9505 153.792 98.8321 189.889Z" fill="#403830"/>
<path fill-rule="evenodd" clip-rule="evenodd" d="M177.474 118.06C176.432 108.124 167.52 100.903 157.583 101.946C147.649 102.986 140.429 111.898 141.469 121.834L145.917 164.242C146.957 174.178 155.869 181.399 165.806 180.356C175.742 179.316 182.963 170.401 181.92 160.467L177.474 118.06Z" fill="#D9C8B9"/>
<path fill-rule="evenodd" clip-rule="evenodd" d="M201.049 159.166H129.221V182.837H201.049V159.166Z" fill="#D9C8B9"/>
<path fill-rule="evenodd" clip-rule="evenodd" d="M178.53 128.143C176.592 132.705 172.629 137.522 164.542 138.682C150.798 140.651 144.025 129.496 141.761 124.648L141.527 122.425L177.609 119.363L178.53 128.143Z" fill="#50453A"/>
<path fill-rule="evenodd" clip-rule="evenodd" d="M188.016 69.263C187.395 63.3447 184.45 57.9173 179.827 54.171C175.205 50.4247 169.285 48.6699 163.366 49.2904L145.479 51.1648C139.714 51.7701 134.424 54.6415 130.774 59.1457C127.124 63.6525 125.413 69.4232 126.018 75.1889C126.923 83.8031 127.75 91.6975 127.75 91.6975C127.75 91.6975 128.106 95.7693 128.597 101.357C130.143 119.028 145.403 132.304 163.117 131.391C171.248 130.971 178.85 127.227 184.143 121.037C189.433 114.852 191.948 106.759 191.099 98.6611L188.016 69.263Z" fill="#D9C8B9"/>
<path fill-rule="evenodd" clip-rule="evenodd" d="M152.271 88.5956C153.383 88.5065 154.413 90.0071 154.565 91.9426C154.72 93.878 153.945 95.521 152.833 95.61C151.719 95.699 150.692 94.1985 150.539 92.263C150.384 90.3276 151.16 88.6846 152.271 88.5956Z" fill="#251E17"/>
<path fill-rule="evenodd" clip-rule="evenodd" d="M180.27 84.9725C181.381 84.8835 182.409 86.384 182.564 88.3195C182.719 90.255 181.941 91.9005 180.829 91.9895C179.718 92.0785 178.69 90.578 178.535 88.6425C178.38 86.7045 179.158 85.0615 180.27 84.9725Z" fill="#251E17"/>
<path fill-rule="evenodd" clip-rule="evenodd" d="M128.207 90.0128C134.65 89.3362 140.364 93.4182 140.962 99.1229C141.56 104.825 136.816 110.003 130.374 110.68C123.932 111.354 118.217 107.272 117.62 101.57C117.019 95.8674 121.765 90.6893 128.207 90.0128Z" fill="#D9C8B9"/>
<path fill-rule="evenodd" clip-rule="evenodd" d="M125.328 98.0717C125.662 98.0361 125.906 97.7385 125.87 97.4079C125.835 97.0747 125.534 96.8331 125.204 96.8687C122.887 97.1103 121.221 98.9847 121.432 100.999C121.643 103.013 123.591 104.603 125.908 104.359C126.239 104.323 126.481 104.026 126.445 103.695C126.409 103.362 126.114 103.12 125.781 103.156C124.174 103.324 122.785 102.271 122.638 100.872C122.493 99.4731 123.721 98.2396 125.328 98.0717Z" fill="#251E17"/>
<path fill-rule="evenodd" clip-rule="evenodd" d="M168.901 94.2457C168.705 93.8795 168.845 93.4268 169.209 93.2335C169.573 93.0402 170.025 93.1801 170.219 93.5438L173.84 100.357C173.973 100.612 173.952 100.919 173.782 101.151L171.625 104.091C171.383 104.424 170.915 104.495 170.582 104.251C170.249 104.007 170.178 103.539 170.422 103.206L172.302 100.645L168.901 94.2457Z" fill="#251E17"/>
<path fill-rule="evenodd" clip-rule="evenodd" d="M148.11 82.4385C147.789 82.6852 147.329 82.6242 147.082 82.3037C146.835 81.9807 146.894 81.5204 147.217 81.2737C147.217 81.2737 150.371 78.8372 154.127 80.6989C154.488 80.8794 154.638 81.322 154.458 81.6831C154.277 82.0468 153.837 82.1943 153.473 82.0163C150.561 80.5692 148.11 82.4385 148.11 82.4385Z" fill="#251E17"/>
<path fill-rule="evenodd" clip-rule="evenodd" d="M177.365 79.1446C177.042 79.3913 176.582 79.3302 176.335 79.0098C176.088 78.6868 176.15 78.2264 176.47 77.9797C176.47 77.9797 179.626 75.5432 183.38 77.4075C183.744 77.5881 183.891 78.0281 183.711 78.3892C183.53 78.7529 183.09 78.9004 182.727 78.7224C179.814 77.2752 177.365 79.1446 177.365 79.1446Z" fill="#251E17"/>
<path fill-rule="evenodd" clip-rule="evenodd" d="M149.302 42.5857C156.24 40.3934 194.832 28.0558 190.427 72.3348C190.427 72.3348 165.65 78.7642 150.813 56.8282L150.774 56.6324L150.777 56.8308C140.812 81.3711 118.212 82.6097 118.212 82.6097C104.72 40.2052 142.059 41.8787 149.302 42.5857Z" fill="#403830"/>
<path fill-rule="evenodd" clip-rule="evenodd" d="M123.133 79.4289L129.934 79.2051L130.015 95.8917C130.012 96.3546 129.677 96.7463 129.221 96.8175C128.764 96.8836 128.326 96.6089 128.194 96.1664L123.133 79.4289Z" fill="#403830"/>
<path fill-rule="evenodd" clip-rule="evenodd" d="M222.744 169.516C217.317 160.333 211.541 159.498 205.419 159.102L196.121 159.159C196.121 159.159 188.682 179.318 166.181 179.713C140.649 180.163 131.6 159.14 131.6 159.14L118.342 159.132C108.316 158.995 89.3022 178.955 89.1445 190.58L100.065 298.203L219.385 299.388L214.603 190.623L222.744 169.516Z" fill="#693E00"/>
<path fill-rule="evenodd" clip-rule="evenodd" d="M213.273 214.204L238.447 194.236L268.992 232.745L241.334 250.113L213.273 214.204Z" fill="#D9C8B9"/>
<path fill-rule="evenodd" clip-rule="evenodd" d="M245.477 253.28C237.621 249.074 234.655 239.277 238.862 231.418C243.068 223.559 252.865 220.594 260.724 224.803C268.583 229.009 271.548 238.804 267.339 246.665C263.132 254.524 253.336 257.487 245.477 253.28Z" fill="#D9C8B9"/>
<path fill-rule="evenodd" clip-rule="evenodd" d="M218.639 187.916C210.35 191.194 206.281 200.587 209.562 208.875C212.84 217.164 222.232 221.233 230.521 217.953C238.81 214.674 242.876 205.282 239.598 196.993C236.32 188.705 226.927 184.638 218.639 187.916Z" fill="#D9C8B9"/>
<path fill-rule="evenodd" clip-rule="evenodd" d="M183.932 191.402L219.24 164.664L244.017 197.381L208.709 224.119L183.932 191.402Z" fill="#693E00"/>
<path fill-rule="evenodd" clip-rule="evenodd" d="M269.086 241.838L237.254 237.449L248.78 153.848L280.048 158.639L269.086 241.838Z" fill="#D9C8B9"/>
<path fill-rule="evenodd" clip-rule="evenodd" d="M253.552 146.826C254.076 147.144 254.801 147.572 255.22 147.775C255.821 148.06 255.808 148.027 256.426 148.309C256.937 148.541 257.436 148.803 257.944 149.042C260.083 150.049 261.001 152.605 259.994 154.744C258.987 156.885 256.433 157.803 254.292 156.796C253.814 156.57 253.346 156.323 252.865 156.104C252.176 155.789 252.189 155.825 251.52 155.504C249.831 154.695 247.644 153.495 246.331 151.921C244.833 150.125 244.121 147.94 244.861 145.28C245.156 144.217 245.734 143.118 246.329 142.21C247.028 141.145 247.885 140.155 248.702 139.184C250.223 137.373 252.929 137.139 254.74 138.66C256.55 140.183 256.784 142.887 255.264 144.698C254.684 145.389 254.055 146.076 253.552 146.826Z" fill="#D9C8B9"/>
<path fill-rule="evenodd" clip-rule="evenodd" d="M274.493 166.219C281.868 160.572 283.226 150.028 277.529 142.685C271.83 135.343 261.217 133.964 253.844 139.611C246.468 145.254 245.11 155.801 250.807 163.141C256.506 170.486 267.12 171.862 274.493 166.219Z" fill="#D9C8B9"/>
<path fill-rule="evenodd" clip-rule="evenodd" d="M269.133 139.794C269.639 137.785 271.806 136.587 273.962 137.118C276.122 137.652 277.749 140.048 277.243 142.057L271.559 163.139C271.053 165.151 268.888 166.348 266.729 165.817C264.57 165.283 263.23 163.22 263.736 161.208L269.133 139.794Z" fill="#D9C8B9"/>
<path fill-rule="evenodd" clip-rule="evenodd" d="M276.684 143.028C277.562 142.558 278.668 142.4 279.78 142.672C281.939 143.201 283.307 145.144 282.832 147.011L279.965 158.705C279.673 158.929 273.391 163.576 271.465 164.023C270.125 163.207 275.003 145.099 275.003 145.099C275.209 144.29 275.726 143.629 276.422 143.181C276.506 143.125 276.595 143.074 276.684 143.028Z" fill="#D9C8B9"/>
<path fill-rule="evenodd" clip-rule="evenodd" d="M262.386 136.068C262.922 133.908 265.112 132.591 267.271 133.128C269.428 133.667 270.745 135.857 270.206 138.016L264.466 161.04C263.927 163.2 261.74 164.517 259.58 163.978C257.424 163.441 256.109 161.251 256.645 159.09L262.386 136.068Z" fill="#D9C8B9"/>
<path fill-rule="evenodd" clip-rule="evenodd" d="M257.878 121.23C258.412 119.086 260.599 117.782 262.756 118.321C264.915 118.857 266.232 121.035 265.698 123.179L259.996 146.022C259.462 148.166 257.275 149.471 255.118 148.935C252.959 148.395 251.641 146.221 252.175 144.077L257.878 121.23Z" fill="#D9C8B9"/>
<path fill-rule="evenodd" clip-rule="evenodd" d="M253.428 149.027C251.8 147.547 250.989 145.929 250.989 145.929C250.877 145.7 250.971 145.423 251.2 145.308C251.426 145.194 251.703 145.288 251.818 145.517C251.818 145.517 254.066 150.049 258.611 150.474C258.641 150.469 258.674 150.469 258.707 150.471C258.743 150.474 258.774 150.479 258.807 150.489C258.911 150.497 259.015 150.502 259.122 150.504C259.376 150.51 259.58 150.723 259.575 150.978C259.57 151.201 259.404 151.387 259.188 151.423C259.323 152.02 259.804 153.066 261.469 153.628C262.934 154.124 263.975 154.332 264.74 153.958C265.221 153.727 265.564 153.261 265.852 152.539C265.946 152.3 266.215 152.186 266.452 152.28C266.691 152.374 266.805 152.643 266.711 152.88C266.683 152.949 266.655 153.017 266.627 153.081C266.627 153.099 266.627 153.116 266.627 153.132C266.627 153.132 266.513 154.963 268.809 155.746C270.196 156.217 271.18 156.41 271.912 156.034C272.268 155.85 272.548 155.527 272.79 155.057C272.808 154.97 272.846 154.892 272.899 154.831C272.93 154.757 272.963 154.678 272.996 154.599C273.09 154.363 273.359 154.246 273.596 154.34C273.833 154.431 273.949 154.701 273.855 154.937C273.807 155.06 273.756 155.177 273.708 155.288C273.721 155.693 273.901 157.112 275.783 157.755C277.103 158.208 278.047 158.394 278.754 158.012C279.207 157.771 279.535 157.298 279.817 156.568C279.908 156.331 280.178 156.212 280.415 156.306C280.651 156.397 280.773 156.667 280.679 156.903C280.295 157.893 279.802 158.498 279.194 158.826C278.314 159.302 277.129 159.195 275.481 158.63C273.932 158.099 273.265 157.155 272.98 156.377C272.785 156.578 272.571 156.738 272.334 156.855C271.434 157.321 270.216 157.201 268.514 156.621C266.846 156.054 266.159 155.047 265.882 154.248C265.658 154.482 265.414 154.66 265.145 154.79C264.216 155.243 262.95 155.105 261.174 154.505C258.824 153.712 258.331 152.142 258.229 151.362C256.619 151.15 255.279 150.476 254.208 149.673C254.089 150.273 253.71 151.593 252.593 152.811C252.42 152.999 252.125 153.012 251.937 152.839C251.749 152.666 251.736 152.374 251.909 152.186C253.188 150.794 253.339 149.256 253.339 149.256C253.346 149.169 253.379 149.09 253.428 149.027ZM260.62 145.171C260.635 145.336 260.562 145.502 260.414 145.601C260.203 145.741 259.916 145.682 259.776 145.471C257.761 142.442 253.305 138.35 253.305 138.35C253.117 138.175 253.102 137.882 253.275 137.694C253.448 137.506 253.743 137.495 253.929 137.668C253.929 137.668 257.7 141.137 259.931 144.098L262.141 135.044C262.205 134.794 262.456 134.642 262.703 134.703C262.95 134.764 263.1 135.013 263.044 135.262L260.63 145.143C260.628 145.153 260.625 145.164 260.62 145.171ZM269.908 137.239C269.969 136.992 270.221 136.839 270.47 136.903C270.717 136.964 270.87 137.216 270.809 137.462L268.034 148.597C267.97 148.846 267.718 148.996 267.469 148.935C267.225 148.874 267.072 148.622 267.133 148.373L269.908 137.239ZM277.007 142.404C277.08 142.16 277.342 142.023 277.584 142.099C277.828 142.175 277.965 142.435 277.889 142.679L275.041 151.779C274.967 152.023 274.707 152.158 274.461 152.081C274.219 152.005 274.082 151.746 274.158 151.501L277.007 142.404Z" fill="#251E17"/>
<path fill-rule="evenodd" clip-rule="evenodd" d="M113.691 298.455C113.691 298.455 102.905 298.315 93.1439 298.188C84.3899 298.076 77.1491 291.336 76.409 282.613C74.0946 255.315 69.5039 201.237 69.5039 201.237L79.1227 174.105C83.8838 173.978 89.8834 172.851 94.8479 171.717C101.282 181.458 104.546 191.46 106.25 201.596L113.691 298.455Z" fill="#D9C8B9"/>
<path fill-rule="evenodd" clip-rule="evenodd" d="M91.7346 223.482C91.7931 223.889 91.5083 224.27 91.0988 224.326C90.6919 224.385 90.3129 224.097 90.2544 223.688C90.2544 223.688 89.9976 221.849 89.5474 219.145C88.7564 214.384 87.5331 207.329 85.9461 202.662C85.8138 202.271 86.0224 201.848 86.4115 201.716C86.8032 201.584 87.2279 201.79 87.3601 202.182C88.9701 206.915 90.2188 214.074 91.0225 218.901C91.4727 221.623 91.7346 223.482 91.7346 223.482ZM61.3803 222.454C61.3396 222.864 60.9734 223.164 60.5639 223.126C60.1544 223.085 59.8543 222.719 59.8925 222.307C59.8925 222.307 61.9754 201.07 65.8743 190.271C66.0142 189.885 66.4415 189.684 66.828 189.824C67.2172 189.963 67.4181 190.391 67.2782 190.782C63.4251 201.454 61.3803 222.454 61.3803 222.454ZM42.3793 217.042C42.2012 217.413 41.7536 217.574 41.3823 217.393C41.011 217.215 40.8533 216.765 41.0338 216.396C41.0338 216.396 55.2942 186.769 63.1504 178.887C63.4404 178.597 63.916 178.597 64.2059 178.887C64.4984 179.177 64.4984 179.65 64.2084 179.94C56.4412 187.736 42.3793 217.042 42.3793 217.042ZM79.3386 203.12C79.3386 202.708 79.6743 202.375 80.0888 202.38C80.5009 202.38 80.834 202.716 80.8315 203.128C80.8315 203.128 80.7781 216.16 80.4144 223.609C80.394 224.021 80.0431 224.336 79.631 224.318C79.219 224.298 78.9011 223.947 78.9215 223.538C79.2852 216.114 79.3386 203.12 79.3386 203.12Z" fill="#251E17"/>
<path fill-rule="evenodd" clip-rule="evenodd" d="M25.8219 216.076C26.8112 213.39 29.5936 211.811 32.4065 212.34C43.9353 214.507 72.7255 219.921 83.4404 221.936C85.8133 222.383 87.525 224.466 87.497 226.883C87.347 240.166 86.8815 281.414 86.7162 295.956C86.701 297.235 86.1262 298.441 85.1394 299.257C84.1551 300.074 82.8606 300.415 81.6016 300.191C66.6165 297.53 22.4774 289.692 6.25622 286.81C4.75313 286.543 3.44587 285.623 2.68542 284.303C1.92497 282.975 1.79018 281.38 2.31664 279.949C7.56602 265.688 21.043 229.065 25.8219 216.076Z" fill="#FFF8F4"/>
<path fill-rule="evenodd" clip-rule="evenodd" d="M43.5201 225.631C44.0161 222.813 46.4729 220.763 49.3341 220.783C61.0664 220.867 90.3576 221.073 101.261 221.15C103.677 221.167 105.732 222.917 106.134 225.298C108.346 238.396 115.226 279.068 117.65 293.407C117.861 294.669 117.51 295.958 116.686 296.938C115.862 297.914 114.649 298.481 113.369 298.484C98.1478 298.532 53.3195 298.67 36.8465 298.718C35.3205 298.723 33.8683 298.049 32.8866 296.884C31.9023 295.714 31.4852 294.168 31.7497 292.667C34.3769 277.7 41.1269 239.263 43.5201 225.631Z" fill="#3B332C"/>
<path fill-rule="evenodd" clip-rule="evenodd" d="M81.5019 181.138C83.5569 180.993 85.1109 179.208 84.9634 177.153C84.8209 175.096 83.0305 173.544 80.978 173.689C75.5303 174.071 70.403 174.76 65.0874 175.991C63.0808 176.454 61.8269 178.463 62.2924 180.472C62.7603 182.479 64.7644 183.73 66.7762 183.265C71.7 182.125 76.4535 181.494 81.5019 181.138Z" fill="#D9C8B9"/>
<path fill-rule="evenodd" clip-rule="evenodd" d="M82.8121 188.364C84.8646 188.161 86.3601 186.329 86.1566 184.277C85.9506 182.227 84.1194 180.729 82.0669 180.933C76.9168 181.449 71.7513 182.029 66.652 182.919C64.6224 183.275 63.2592 185.21 63.6178 187.24C63.9713 189.272 65.9042 190.633 67.9363 190.277C72.8576 189.417 77.8451 188.863 82.8121 188.364Z" fill="#D9C8B9"/>
<path fill-rule="evenodd" clip-rule="evenodd" d="M83.7892 195.273C85.8365 195.031 87.304 193.172 87.0624 191.127C86.8208 189.08 84.9616 187.613 82.9143 187.854C77.8175 188.459 72.7487 189.123 67.7435 190.286C65.7393 190.751 64.4855 192.763 64.9534 194.769C65.4214 196.776 67.4306 198.027 69.4348 197.562C74.1704 196.461 78.9696 195.843 83.7892 195.273Z" fill="#D9C8B9"/>
<path fill-rule="evenodd" clip-rule="evenodd" d="M84.3805 202.742C86.4279 202.513 87.9055 200.662 87.6766 198.614C87.4452 196.564 85.5962 195.089 83.5463 195.321C78.7623 195.857 73.9529 196.481 69.2809 197.684C67.2844 198.2 66.0814 200.234 66.5952 202.231C67.1089 204.227 69.1461 205.43 71.1426 204.917C75.4738 203.8 79.945 203.241 84.3805 202.742Z" fill="#D9C8B9"/>
<path fill-rule="evenodd" clip-rule="evenodd" d="M91.0783 163.044C90.6001 161.037 88.5858 159.796 86.5766 160.274C84.5725 160.752 83.3314 162.769 83.8095 164.773C84.9565 169.588 85.9866 170.699 88.1789 175.153C89.0869 177.002 91.3275 177.765 93.1765 176.857C95.028 175.946 95.791 173.708 94.883 171.857C93.0137 168.059 92.0523 167.149 91.0783 163.044Z" fill="#D9C8B9"/>
<path fill-rule="evenodd" clip-rule="evenodd" d="M83.0703 181.229C83.3119 181.203 83.4925 180.982 83.4645 180.738C83.4391 180.491 83.2153 180.311 82.9711 180.341C82.9711 180.341 73.1133 181.407 65.5698 182.91C65.3308 182.958 65.1731 183.195 65.2188 183.439C65.2697 183.683 65.5062 183.838 65.7453 183.79C73.2531 182.292 83.0703 181.229 83.0703 181.229Z" fill="#251E17"/>
<path fill-rule="evenodd" clip-rule="evenodd" d="M84.4545 188.084C84.6986 188.059 84.8792 187.835 84.8487 187.591C84.8233 187.344 84.602 187.166 84.3578 187.194C84.3578 187.194 74.5 188.257 66.9565 189.766C66.7175 189.811 66.5598 190.048 66.6056 190.292C66.6564 190.536 66.893 190.694 67.132 190.643C74.6399 189.145 84.4545 188.084 84.4545 188.084Z" fill="#251E17"/>
<path fill-rule="evenodd" clip-rule="evenodd" d="M85.9162 195.278C86.1604 195.252 86.3384 195.031 86.3104 194.787C86.285 194.54 86.0637 194.36 85.8196 194.388C85.8196 194.388 75.9617 195.453 68.4183 196.959C68.1767 197.005 68.019 197.241 68.0673 197.485C68.1156 197.73 68.3522 197.887 68.5938 197.836C76.0991 196.338 85.9162 195.278 85.9162 195.278Z" fill="#251E17"/>
<path fill-rule="evenodd" clip-rule="evenodd" d="M86.8236 202.438C87.0678 202.413 87.2484 202.189 87.2178 201.947C87.1949 201.698 86.9711 201.52 86.727 201.548C86.727 201.548 76.8691 202.613 69.3257 204.119C69.0866 204.165 68.9289 204.401 68.9747 204.646C69.0256 204.89 69.2621 205.047 69.5012 204.997C77.009 203.499 86.8236 202.438 86.8236 202.438Z" fill="#251E17"/>
<path fill-rule="evenodd" clip-rule="evenodd" d="M83.0255 181.226C82.7763 181.233 82.5703 181.04 82.5626 180.791C82.555 180.544 82.7483 180.34 83.0001 180.333C83.0001 180.333 84.231 180.236 84.5769 178.331C84.872 176.698 83.9589 174.415 81.6292 174.259C81.3825 174.242 81.1969 174.028 81.2096 173.784C81.2274 173.537 81.441 173.349 81.6877 173.364C84.6405 173.56 85.8308 176.421 85.4595 178.489C85.2687 179.547 84.8516 180.185 84.4371 180.572C83.7478 181.223 83.0255 181.226 83.0255 181.226Z" fill="#251E17"/>
<path fill-rule="evenodd" clip-rule="evenodd" d="M84.42 188.087C84.1733 188.095 83.9648 187.902 83.9571 187.652C83.952 187.406 84.1453 187.202 84.3946 187.195C84.3946 187.195 85.6281 187.098 85.974 185.193C86.2639 183.565 85.5238 181.375 83.2018 181.223C82.9551 181.203 82.7669 180.991 82.7821 180.745C82.7999 180.498 83.0161 180.31 83.2603 180.325C86.2232 180.523 87.2278 183.275 86.8539 185.351C86.6657 186.409 86.2486 187.047 85.8315 187.434C85.1448 188.082 84.42 188.087 84.42 188.087Z" fill="#251E17"/>
<path fill-rule="evenodd" clip-rule="evenodd" d="M85.7473 195.242C85.5006 195.275 85.2793 195.1 85.2462 194.856C85.2132 194.609 85.3861 194.385 85.6328 194.355C85.6328 194.355 86.9808 194.134 87.3343 192.183C87.6268 190.55 86.9274 188.223 84.5977 188.07C84.3535 188.052 84.1628 187.836 84.1831 187.592C84.1984 187.345 84.412 187.16 84.6587 187.172C87.6166 187.371 88.5881 190.268 88.2143 192.34C87.731 195.036 85.7473 195.242 85.7473 195.242Z" fill="#251E17"/>
<path fill-rule="evenodd" clip-rule="evenodd" d="M86.7319 202.449C86.4827 202.482 86.2614 202.307 86.2283 202.063C86.1978 201.816 86.3682 201.595 86.6175 201.562C86.6175 201.562 87.9654 201.338 88.3164 199.39C88.6089 197.757 87.912 195.432 85.5798 195.277C85.3356 195.26 85.1474 195.043 85.1652 194.799C85.183 194.552 85.3941 194.367 85.6408 194.38C88.5987 194.578 89.5702 197.475 89.1964 199.548C88.7131 202.243 86.7319 202.449 86.7319 202.449Z" fill="#251E17"/>
<path fill-rule="evenodd" clip-rule="evenodd" d="M213.999 193.038C213.984 192.793 214.177 192.583 214.426 192.573C214.67 192.558 214.881 192.75 214.892 192.995L219.95 299.137C219.96 299.382 219.77 299.592 219.523 299.605C219.276 299.615 219.065 299.425 219.052 299.18L213.999 193.038Z" fill="#251E17"/>
<path fill-rule="evenodd" clip-rule="evenodd" d="M320 77.4705C320 71.3967 315.644 66.4668 310.281 66.4668H285.706C280.353 66.4668 276 71.3967 276 77.4705V99.4705C276 105.537 280.353 110.467 285.706 110.467H310.281C315.644 110.467 320 105.537 320 99.4705V77.4705Z" fill="#BE8543"/>
<path fill-rule="evenodd" clip-rule="evenodd" d="M285.893 87.4068C285.074 86.4836 285.166 85.0644 286.097 84.2505C287.02 83.4291 288.439 83.5206 289.253 84.4515L297.45 93.7549L317.061 70.9796C317.868 70.0436 319.289 69.9394 320.225 70.7456C321.156 71.5544 321.268 72.9659 320.459 73.9044L299.169 98.6253C298.747 99.1212 298.129 99.401 297.483 99.4061C296.832 99.4061 296.219 99.134 295.789 98.6456L285.893 87.4068Z" fill="#251E17"/>
<path fill-rule="evenodd" clip-rule="evenodd" d="M171.418 110.657C171.781 110.474 172.237 110.619 172.42 110.983C172.608 111.354 172.465 111.804 172.094 111.992C172.094 111.992 164.19 116.041 159.118 108.149C158.897 107.806 158.994 107.343 159.347 107.122C159.69 106.893 160.153 106.997 160.375 107.343C164.698 114.068 171.418 110.657 171.418 110.657Z" fill="#251E17"/>
</svg>
