<svg width="24" height="24" viewBox="0 0 24 24" fill="none" xmlns="http://www.w3.org/2000/svg">
<path d="M22.3985 18.9384C20.636 18.079 19.625 16.2368 19.625 13.8759V12.5259C19.6257 12.2754 19.5508 12.0306 19.4102 11.8234C19.2696 11.6161 19.0697 11.4561 18.8367 11.3642L16.8906 10.5939C16.7375 10.5326 16.6148 10.4134 16.5493 10.262C16.4837 10.1107 16.4806 9.93965 16.5406 9.78606L18.2063 5.64543C18.3193 5.37367 18.3763 5.08188 18.3739 4.78755C18.3716 4.49323 18.3098 4.20241 18.1924 3.93251C18.0749 3.66262 17.9042 3.4192 17.6905 3.21684C17.4767 3.01448 17.2244 2.85733 16.9485 2.75481C16.4111 2.5579 15.8181 2.57833 15.2955 2.81175C14.7729 3.04517 14.362 3.47318 14.15 4.00481C14.1497 4.00792 14.1497 4.01107 14.15 4.01418L12.5078 8.17199C12.4468 8.32582 12.3272 8.44913 12.1753 8.51489C12.0234 8.58065 11.8516 8.58349 11.6977 8.52278L9.71173 7.71418C9.48276 7.6214 9.23132 7.59905 8.98957 7.64999C8.74782 7.70092 8.52677 7.82284 8.3547 8.00012C6.70939 9.69153 5.87502 11.6681 5.87502 13.8751C5.87069 16.1336 6.74413 18.3055 8.31095 19.9322C8.36966 19.9935 8.44025 20.0423 8.51843 20.0755C8.5966 20.1086 8.68072 20.1255 8.76564 20.1251H22.125C22.2663 20.125 22.4033 20.077 22.5138 19.989C22.6243 19.901 22.7017 19.7781 22.7335 19.6405C22.7652 19.5028 22.7493 19.3585 22.6885 19.231C22.6276 19.1035 22.5254 19.0003 22.3985 18.9384ZM9.24533 8.87512L11.2305 9.67981C11.4596 9.77148 11.7046 9.81701 11.9514 9.81379C12.1982 9.81057 12.4419 9.75866 12.6686 9.66103C12.8953 9.56341 13.1004 9.42199 13.2723 9.2449C13.4442 9.0678 13.5795 8.85851 13.6703 8.62903L15.311 4.4884C15.511 4.01106 16.0508 3.76418 16.5164 3.94153C16.6351 3.98557 16.7437 4.0532 16.8355 4.14035C16.9274 4.22749 17.0007 4.33234 17.0509 4.44857C17.1011 4.5648 17.1273 4.69 17.1278 4.81661C17.1283 4.94323 17.1032 5.06864 17.0539 5.18528L15.382 9.32512C15.199 9.7869 15.2067 10.3024 15.4034 10.7586C15.6001 11.2147 15.9698 11.5741 16.4313 11.7579L18.375 12.5259V13.9532L8.35705 9.94621C8.62343 9.56555 8.92051 9.20732 9.24533 8.87512ZM12.9953 18.8751C12.0648 17.9825 11.4056 16.845 11.0938 15.5939C11.0503 15.4356 10.9464 15.3008 10.8044 15.2186C10.6624 15.1363 10.4937 15.1132 10.3348 15.1542C10.1759 15.1953 10.0395 15.2971 9.95512 15.4379C9.8707 15.5786 9.84501 15.7469 9.88361 15.9064C10.1563 16.9827 10.6442 17.9926 11.318 18.8751H9.03439C7.80172 17.5018 7.1215 15.7205 7.12502 13.8751C7.11737 12.8974 7.32348 11.9297 7.72892 11.04L18.4945 15.3462C18.7289 16.7525 19.3195 17.9618 20.2047 18.8743L12.9953 18.8751Z" fill="#D9C8B9"/>
</svg>
