<svg width="356" height="78" viewBox="0 0 356 78" fill="none" xmlns="http://www.w3.org/2000/svg">
<path d="M100.7 50.4999C100.7 50.9999 100.6 51.6999 100.3 52.5999C99.5996 54.5999 98.1996 56.1999 96.0996 57.3999C94.1996 58.4999 92.0996 59.0999 89.7996 59.0999C85.9996 59.0999 83.0996 57.4999 81.0996 54.3999C79.4996 51.7999 78.5996 48.4999 78.5996 44.3999C78.5996 40.8999 79.0996 37.5999 80.0996 34.4999C81.2996 30.8999 82.9996 28.0999 85.1996 26.0999C86.8996 24.5999 88.5996 23.8999 90.2996 23.8999C92.7996 23.8999 94.6996 25.0999 95.9996 27.4999C96.9996 29.3999 97.4996 31.7999 97.4996 34.4999C97.4996 35.8999 97.2996 37.4999 96.8996 39.2999C96.2996 41.6999 95.5996 42.7999 94.6996 42.7999C93.9996 42.7999 93.4996 42.3999 93.1996 41.6999C93.3996 41.5999 93.6996 41.2999 94.0996 40.9999C94.9996 40.1999 95.3996 38.1999 95.3996 34.9999C95.3996 33.0999 94.9996 31.1999 94.2996 29.3999C93.3996 27.0999 92.0996 25.8999 90.4996 25.8999C89.1996 25.8999 87.8996 26.6999 86.4996 28.1999C85.3996 29.3999 84.4996 30.6999 83.7996 32.1999C82.0996 35.6999 81.2996 39.9999 81.2996 45.0999C81.2996 48.4999 81.8996 51.1999 83.0996 53.1999C84.5996 55.6999 86.8996 56.8999 89.9996 56.8999C91.6996 56.8999 93.2996 56.3999 94.6996 55.4999C96.0996 54.5999 97.1996 53.3999 97.9996 51.8999C98.0996 51.3999 98.3996 50.6999 98.7996 49.7999C99.0996 49.3999 99.3996 49.1999 99.7996 49.1999C100.4 49.3999 100.7 49.7999 100.7 50.4999Z" fill="#211A14"/>
<path d="M118.599 38.5C118.599 38.8 118.599 39 118.499 39.2C118.399 39.4 118.299 39.5 118.199 39.6C118.099 39.7 117.999 39.8 117.899 39.8C117.799 39.9 117.799 40 117.699 40.1C117.499 40.9 117.399 41.7 117.299 42.6C117.199 43.5 117.099 44.4 117.099 45.3C116.999 46.2 116.999 47 116.999 47.9C116.999 48.7 116.999 49.5 116.999 50.1C116.999 51.3 116.999 52.5 117.099 53.5C117.099 54.5 117.299 55.6 117.599 56.7C117.599 56.9 117.699 57 117.699 57.1C117.699 57.2 117.699 57.3 117.699 57.3C117.699 57.5 117.499 57.6 117.199 57.7C116.899 57.8 116.499 57.9 116.199 57.9C115.799 57.9 115.499 57.8 115.199 57.6C114.899 57.4 114.699 57.1 114.699 56.7C114.499 55.7 114.399 54.7 114.299 53.6C114.199 52.5 114.199 51.3 114.199 50C114.199 48.3 114.199 46.5 114.299 44.7C114.399 42.8 114.499 41 114.599 39.4C114.599 39.2 114.399 39 113.899 39C113.399 39 112.599 38.9 111.299 38.9C109.899 38.9 108.599 39.1 107.499 39.4C106.399 39.7 105.799 40.2 105.699 40.9C105.599 41.6 105.499 42.2 105.499 42.9C105.399 43.5 105.399 44.2 105.399 45C105.399 45.8 105.299 46.7 105.299 47.8C105.299 48.9 105.299 50.2 105.299 51.8C105.299 53 105.299 54.1 105.399 55.3C105.399 56.5 105.599 57.6 105.899 58.8C105.699 59.1 105.599 59.2 105.399 59.2C103.899 59.2 103.099 58.4 102.999 56.9C102.899 55.5 102.899 54 102.899 52.4C102.899 50.8 102.899 49.4 102.899 48C102.899 45.4 102.899 42.8 102.999 40.3C102.899 40.1 102.799 39.8 102.799 39.6C102.799 39.4 102.799 39.1 102.799 38.8C102.799 38.4 102.899 38.2 103.099 38C103.299 37.8 103.799 37.8 104.499 37.8C105.399 37.8 106.699 37.7 108.399 37.4C110.099 37.1 112.499 37 115.399 37C116.599 37 117.399 37.1 117.799 37.4C118.399 37.5 118.599 37.9 118.599 38.5Z" fill="#211A14"/>
<path d="M120.699 54.1998C120.699 52.5998 120.699 50.9998 120.699 49.3998C120.699 47.7998 120.699 46.2998 120.799 44.7998C120.799 43.2998 120.899 41.9998 120.999 40.7998C121.099 39.5998 121.199 38.5998 121.299 37.8998C121.299 37.7998 121.399 37.5998 121.599 37.3998C121.799 37.1998 121.999 36.9998 122.199 36.8998C122.399 36.7998 122.699 36.5998 122.999 36.4998C123.299 36.3998 123.499 36.2998 123.699 36.2998C123.999 36.2998 124.299 36.3998 124.599 36.5998C124.899 36.7998 125.099 36.9998 125.099 37.1998C125.099 37.3998 125.099 37.6998 125.099 37.8998C125.099 38.0998 124.999 38.4998 124.799 38.8998C124.599 39.2998 124.399 39.9998 124.199 40.9998C123.999 41.9998 123.799 43.2998 123.599 44.6998C123.399 46.0998 123.199 47.6998 123.099 49.3998C122.999 51.0998 122.899 52.8998 122.899 54.6998C122.899 55.7998 123.099 56.3998 123.599 56.3998C123.899 56.3998 124.199 56.1998 124.599 55.6998C124.999 55.1998 125.499 54.5998 125.999 53.6998C127.199 51.8998 128.199 49.9998 128.999 47.9998C129.799 45.9998 130.499 43.7998 131.299 41.6998C131.699 40.5998 131.999 39.6998 132.299 38.9998C132.599 38.2998 132.899 37.7998 133.199 37.3998C133.499 36.9998 133.899 36.7998 134.299 36.6998C134.699 36.5998 135.199 36.4998 135.799 36.4998C137.299 36.4998 138.099 36.7998 138.099 37.3998L137.899 37.7998C137.699 39.4998 137.499 40.9998 137.399 42.2998C137.299 43.5998 137.199 44.7998 137.199 45.8998C137.199 46.9998 137.099 48.0998 137.099 49.0998C137.099 50.0998 137.099 51.1998 137.099 52.2998C137.099 55.5998 137.499 57.5998 138.299 58.5998C138.099 58.7998 137.899 58.8998 137.699 58.8998C137.499 58.9998 137.199 58.9998 137.099 58.9998C136.499 58.9998 135.999 58.7998 135.699 58.3998C135.299 57.9998 135.099 57.3998 134.899 56.6998C134.699 55.9998 134.599 55.2998 134.499 54.4998C134.399 53.6998 134.399 52.8998 134.399 52.0998C134.399 51.1998 134.399 50.1998 134.499 48.9998C134.599 47.7998 134.699 46.5998 134.799 45.4998C134.899 44.3998 134.999 43.3998 135.099 42.4998C135.199 41.5998 135.199 41.0998 135.199 40.7998C135.199 40.4998 135.099 40.2998 134.799 40.2998C133.199 44.3998 131.799 47.7998 130.399 50.4998C129.099 53.0998 127.999 54.8998 127.399 55.8998C126.699 56.9998 126.099 57.6998 125.699 57.9998C125.199 58.3998 124.599 58.4998 123.899 58.4998C122.799 58.4998 122.099 58.0998 121.599 57.3998C120.899 56.7998 120.699 55.6998 120.699 54.1998Z" fill="#211A14"/>
<path d="M156.1 53C156.1 53.7999 155.4 54.9 154.1 56.2C152.8 57.5 151.7 58.2999 150.8 58.5999C149.6 58.9999 148.7 59.0999 147.9 59.0999C145.5 59.0999 143.7 58.2 142.4 56.5C141.2 55 140.6 52.9 140.6 50.5C140.6 48 141.1 45.1 142.2 42C143.5 38.1 145.2 36.2 147.2 36.2C148.2 36.2 149.4 36.6999 151 37.5999C152.6 38.4999 153.5 39.3999 153.7 40.2999C153.9 41.2999 154 42.2999 154 43.2999C154 46.9 153.5 48.7 152.4 48.7C152.1 48.7 151.8 48.6 151.5 48.4C151.1 48.2 151 48 151 47.7C151 47.6 151.1 47.4 151.2 47.2C151.3 47 151.4 46.7999 151.4 46.7999C151.5 46.4 151.6 45.4 151.6 43.7999C151.6 40.1999 150.8 38.2999 149.1 38.2999C147.3 38.2999 145.8 39.9999 144.7 43.2999C143.8 45.9 143.4 48.2999 143.4 50.5999C143.4 52.3999 143.7 53.9 144.2 55C145 56.5 146.1 57.2999 147.7 57.2999C148.7 57.2999 149.8 56.7999 151.1 55.7999C152.2 54.9 153.1 54 153.7 53C153.8 52.7 154 52.1999 154.3 51.5999C154.5 51.3999 154.7 51.2999 155 51.2999C155.2 51.2999 155.4 51.5 155.7 52C155.9 52.4 156.1 52.7 156.1 53Z" fill="#211A14"/>
<path d="M174.1 48.4C174.1 51.2 173.5 53.7 172.2 55.8C170.7 58.3 168.7 59.6 166 59.6C163.3 59.6 161.3 58.6 160 56.5C158.9 54.8 158.4 52.5 158.4 49.7C158.4 46.9 159 44.2 160.3 41.5C161.9 38.2 163.9 36.5 166.3 36.5C166.9 36.5 167.8 36.9 169 37.6C172.5 39.6 174.1 43.2 174.1 48.4ZM171.8 48.3C171.8 46.2 171.5 44.3 171 42.6C170.2 40.3 168.9 39.1 167.2 39.1C165.2 39.1 163.7 40.4 162.6 43C161.7 45 161.3 47.2 161.3 49.5C161.3 51.6 161.6 53.3 162.2 54.7C163.1 56.6 164.4 57.6 166.2 57.6C168.2 57.6 169.7 56.5 170.7 54.2C171.4 52.5 171.8 50.6 171.8 48.3Z" fill="#211A14"/>
<path d="M193.5 59.2998C192.6 59.9998 192 60.2998 191.5 60.2998C191.1 60.2998 190.7 60.0998 190.1 59.6998C189.5 59.2998 188.9 58.7998 188.3 58.0998C187.7 57.4998 187 56.7998 186.4 55.9998C185.7 55.2998 185.1 54.5998 184.6 53.8998C184.1 53.1998 183.6 52.5998 183.2 52.0998C182.8 51.5998 182.6 51.2998 182.5 51.1998C181.6 50.2998 180.9 49.5998 180.2 49.1998C179.7 49.1998 179.5 49.4998 179.4 49.9998C179.3 50.5998 179.3 51.0998 179.3 51.6998C179.3 52.3998 179.3 53.0998 179.3 53.6998C179.3 54.2998 179.3 54.7998 179.3 55.1998C179.3 55.4998 179.4 55.8998 179.6 56.4998C179.8 56.9998 179.9 57.4998 179.9 57.7998C179.9 57.9998 179.8 58.1998 179.6 58.3998C179.4 58.5998 179.1 58.6998 178.8 58.6998C178.1 58.6998 177.6 58.4998 177.3 58.0998C177 57.6998 176.8 56.8998 176.8 55.6998C176.8 53.6998 176.8 51.9998 176.8 50.4998C176.8 48.9998 176.8 47.7998 176.8 46.6998C176.8 45.5998 176.8 44.6998 176.8 43.8998C176.8 43.0998 176.8 42.4998 176.8 41.8998C176.8 41.4998 176.8 41.1998 176.8 40.9998C176.8 40.7998 176.8 40.5998 176.8 40.3998C176.8 40.1998 176.7 39.9998 176.7 39.7998C176.7 39.5998 176.6 39.3998 176.6 39.0998C176.5 38.6998 176.5 38.2998 176.5 37.9998C176.5 37.6998 176.8 37.2998 177.3 36.9998C177.8 36.6998 178.3 36.4998 178.7 36.4998C179 36.4998 179.3 36.5998 179.7 36.7998C180 36.9998 180.2 37.1998 180.2 37.4998C180.2 37.5998 180.1 37.9998 179.9 38.6998C179.7 39.3998 179.6 40.4998 179.6 41.9998C179.6 42.9998 179.6 43.8998 179.5 44.4998C179.4 45.1998 179.4 45.5998 179.4 45.6998C179.4 45.8998 179.5 45.8998 179.6 45.8998C180 45.5998 180.4 45.2998 181 44.7998C181.6 44.2998 182.2 43.7998 182.9 43.0998C183.6 42.4998 184.3 41.7998 185.1 40.9998C185.9 40.1998 186.6 39.4998 187.3 38.6998C188.2 37.6998 188.9 36.8998 189.5 36.4998C190.1 36.0998 190.4 35.7998 190.6 35.7998C191.1 35.7998 191.4 35.9998 191.7 36.2998C192 36.5998 192.1 37.0998 192.1 37.5998C192.1 37.8998 192.1 37.9998 192.1 38.0998C191.5 38.4998 190.7 39.0998 189.8 39.8998C188.9 40.5998 187.8 41.4998 186.6 42.5998C183.8 45.0998 182.4 46.6998 182.4 47.4998C182.4 47.6998 182.6 47.9998 183 48.4998C183.4 48.9998 183.9 49.5998 184.4 50.2998C185 50.9998 185.6 51.6998 186.2 52.3998C186.9 53.0998 187.5 53.7998 188 54.3998C189 55.5998 190 56.4998 190.9 57.1998C191.8 57.8998 192.6 58.4998 193.3 58.7998C193.4 58.8998 193.4 58.9998 193.4 59.0998C193.7 59.0998 193.6 59.1998 193.5 59.2998Z" fill="#211A14"/>
<path d="M209.899 29.3998C209.799 30.0998 209.799 30.9998 209.699 31.9998C209.599 32.9998 209.499 34.1998 209.499 35.4998C209.399 36.7998 209.299 38.0998 209.299 39.5998C209.199 40.9998 209.199 42.4998 209.199 44.0998C209.199 47.7998 209.299 50.7998 209.499 52.9998C209.699 55.1998 210.099 56.8998 210.799 57.7998C210.199 58.1998 209.699 58.3998 209.299 58.3998C207.799 58.3998 206.999 57.1998 206.699 54.8998C206.499 53.0998 206.399 51.2998 206.299 49.4998C206.199 47.6998 206.199 45.7998 206.199 43.7998C206.199 41.3998 206.199 39.0998 206.299 36.7998C206.399 34.4998 206.499 32.1998 206.699 29.8998C206.699 29.5998 206.699 29.2998 206.599 28.8998C206.499 28.4998 206.499 28.1998 206.499 27.9998C206.499 27.2998 206.999 26.7998 208.099 26.6998C208.299 26.6998 208.799 26.5998 209.599 26.4998C210.299 26.3998 211.199 26.2998 212.199 26.0998C213.199 25.8998 214.199 25.7998 215.399 25.5998C216.499 25.3998 217.599 25.2998 218.699 25.1998C219.699 25.0998 220.699 24.9998 221.499 24.8998C222.299 24.7998 222.899 24.7998 223.299 24.7998C223.599 24.7998 223.899 24.7998 224.199 24.8998C224.499 24.9998 224.899 25.0998 225.199 25.1998C225.499 25.2998 225.699 25.4998 225.999 25.6998C226.199 25.8998 226.299 26.0998 226.299 26.3998C226.299 26.7998 226.199 26.9998 226.099 27.0998C225.999 27.1998 225.799 27.2998 225.599 27.2998C225.499 27.4998 225.399 28.3998 225.199 29.8998C224.799 33.2998 224.599 36.4998 224.399 39.5998C224.199 42.6998 224.099 45.6998 224.099 48.5998C224.099 53.2998 224.599 56.3998 225.599 57.7998C224.999 58.1998 224.499 58.3998 224.099 58.3998C223.699 58.3998 223.299 58.2998 222.899 58.0998C222.499 57.8998 222.199 57.4998 221.999 56.8998C221.699 56.2998 221.499 55.3998 221.399 54.2998C221.299 53.1998 221.199 51.6998 221.199 49.8998C221.199 45.8998 221.199 42.0998 221.299 38.4998C221.399 34.8998 221.399 31.2998 221.499 27.6998C220.499 27.7998 219.499 27.8998 218.299 27.9998C217.099 28.0998 215.999 28.1998 214.899 28.3998C213.799 28.4998 212.799 28.6998 211.899 28.8998C210.899 29.0998 210.299 29.1998 209.899 29.3998Z" fill="#211A14"/>
<path d="M244.999 48.4C244.999 51.2 244.399 53.7 243.099 55.8C241.599 58.3 239.599 59.6 236.899 59.6C234.199 59.6 232.199 58.6 230.899 56.5C229.799 54.8 229.299 52.5 229.299 49.7C229.299 46.9 229.899 44.2 231.199 41.5C232.799 38.2 234.799 36.5 237.199 36.5C237.799 36.5 238.699 36.9 239.899 37.6C243.299 39.6 244.999 43.2 244.999 48.4ZM242.599 48.3C242.599 46.2 242.299 44.3 241.799 42.6C240.999 40.3 239.699 39.1 237.999 39.1C235.999 39.1 234.499 40.4 233.399 43C232.499 45 232.099 47.2 232.099 49.5C232.099 51.6 232.399 53.3 232.999 54.7C233.899 56.6 235.199 57.6 236.999 57.6C238.999 57.6 240.499 56.5 241.499 54.2C242.199 52.5 242.599 50.6 242.599 48.3Z" fill="#211A14"/>
<path d="M264.4 59.2998C263.5 59.9998 262.9 60.2998 262.4 60.2998C262 60.2998 261.6 60.0998 261 59.6998C260.4 59.2998 259.8 58.7998 259.2 58.0998C258.6 57.4998 257.9 56.7998 257.3 55.9998C256.6 55.2998 256 54.5998 255.5 53.8998C255 53.1998 254.5 52.5998 254.1 52.0998C253.7 51.5998 253.5 51.2998 253.4 51.1998C252.5 50.2998 251.8 49.5998 251.1 49.1998C250.6 49.1998 250.4 49.4998 250.3 49.9998C250.2 50.5998 250.2 51.0998 250.2 51.6998C250.2 52.3998 250.2 53.0998 250.2 53.6998C250.2 54.2998 250.2 54.7998 250.2 55.1998C250.2 55.4998 250.3 55.8998 250.5 56.4998C250.7 56.9998 250.8 57.4998 250.8 57.7998C250.8 57.9998 250.7 58.1998 250.5 58.3998C250.3 58.5998 250 58.6998 249.7 58.6998C249 58.6998 248.5 58.4998 248.2 58.0998C247.9 57.6998 247.7 56.8998 247.7 55.6998C247.7 53.6998 247.7 51.9998 247.7 50.4998C247.7 48.9998 247.7 47.7998 247.7 46.6998C247.7 45.5998 247.7 44.6998 247.7 43.8998C247.7 43.0998 247.7 42.4998 247.7 41.8998C247.7 41.4998 247.7 41.1998 247.7 40.9998C247.7 40.7998 247.7 40.5998 247.7 40.3998C247.7 40.1998 247.6 39.9998 247.6 39.7998C247.6 39.5998 247.5 39.3998 247.5 39.0998C247.4 38.6998 247.4 38.2998 247.4 37.9998C247.4 37.6998 247.7 37.2998 248.2 36.9998C248.7 36.6998 249.2 36.4998 249.6 36.4998C249.9 36.4998 250.2 36.5998 250.6 36.7998C250.9 36.9998 251.1 37.1998 251.1 37.4998C251.1 37.5998 251 37.9998 250.8 38.6998C250.6 39.3998 250.5 40.4998 250.5 41.9998C250.5 42.9998 250.5 43.8998 250.4 44.4998C250.3 45.1998 250.3 45.5998 250.3 45.6998C250.3 45.8998 250.4 45.8998 250.5 45.8998C250.9 45.5998 251.3 45.2998 251.9 44.7998C252.5 44.2998 253.1 43.7998 253.8 43.0998C254.5 42.3998 255.2 41.7998 256 40.9998C256.8 40.1998 257.5 39.4998 258.2 38.6998C259.1 37.6998 259.8 36.8998 260.4 36.4998C261 36.0998 261.3 35.7998 261.5 35.7998C262 35.7998 262.3 35.9998 262.6 36.2998C262.9 36.5998 263 37.0998 263 37.5998C263 37.8998 263 37.9998 263 38.0998C262.4 38.4998 261.6 39.0998 260.7 39.8998C259.8 40.5998 258.7 41.4998 257.5 42.5998C254.7 45.0998 253.3 46.6998 253.3 47.4998C253.3 47.6998 253.5 47.9998 253.9 48.4998C254.3 48.9998 254.8 49.5998 255.3 50.2998C255.9 50.9998 256.5 51.6998 257.1 52.3998C257.8 53.0998 258.4 53.7998 258.9 54.3998C259.9 55.5998 260.9 56.4998 261.8 57.1998C262.7 57.8998 263.5 58.4998 264.2 58.7998C264.3 58.8998 264.3 58.9998 264.3 59.0998C264.5 59.0998 264.5 59.1998 264.4 59.2998Z" fill="#211A14"/>
<path d="M282.1 38.7999C281.8 40.1999 281.6 41.6999 281.3 43.0999C281 44.5999 280.8 46.1 280.8 47.4V62.7999C280.8 65 280.1 66.7999 278.8 68C277.5 69.2 275.7 69.9 273.5 69.9C272.3 69.9 270.9 69.6 269.4 68.9C267.7 68.2 266.5 67.2999 265.8 66.1999C265.6 65.8999 265.6 65.5999 265.6 65.2999C265.6 64.2999 266.1 63.9 267 63.9C267.2 63.9 267.4 63.9999 267.6 64.0999C268.2 64.6999 268.7 65.2999 269.3 65.7999C270.4 66.7999 271.8 67.3 273.5 67.3C275.7 67.3 277.1 66.5 277.8 65C278.2 64 278.4 62.2999 278.4 59.7999C278.4 59.5 278.3 58.7999 278.2 57.7999C278.1 57 278 56.2999 278.1 55.5999C277.2 56.4999 276.5 57 276.1 57.2C275.4 57.7 274.6 57.9 273.7 57.9C271.5 57.9 269.8 57 268.6 55.2999C267.6 53.7999 267.1 51.9 267.1 49.5C267.1 45.1 267.2 41.2999 267.3 38.2999C267.4 37.1999 268 36.7 269 36.7C270.2 36.7 270.8 36.8999 270.7 37.2999C270.1 38.9999 269.8 42.7999 269.8 48.7999C269.8 53.4 271.1 55.7 273.7 55.7C275.3 55.7 276.6 54.5 277.5 52C278.2 50.1 278.6 48.2 278.5 46.2V41C278.5 40.4 278.6 39.7 278.6 38.9C278.6 38 279.2 37.7 280.2 37.7C281.6 37.8 282.1 38.0999 282.1 38.7999Z" fill="#211A14"/>
<path d="M300.499 38.5C300.499 38.8 300.499 39 300.399 39.2C300.299 39.3 300.199 39.5 300.099 39.6C299.999 39.7 299.899 39.8 299.799 39.8C299.699 39.9 299.699 40 299.599 40.1C299.399 40.9 299.299 41.7 299.199 42.6C299.099 43.5 298.999 44.4 298.999 45.3C298.899 46.2 298.899 47 298.899 47.9C298.899 48.7 298.899 49.5 298.899 50.1C298.899 51.3 298.899 52.5 298.999 53.5C298.999 54.5 299.199 55.6 299.499 56.7C299.499 56.9 299.599 57 299.599 57.1C299.599 57.2 299.599 57.3 299.599 57.3C299.599 57.5 299.399 57.6 299.099 57.7C298.799 57.8 298.399 57.9 298.099 57.9C297.699 57.9 297.399 57.8 297.099 57.6C296.799 57.4 296.599 57.1 296.599 56.7C296.399 55.7 296.299 54.7 296.199 53.6C296.099 52.5 296.099 51.3 296.099 50C296.099 48.3 296.099 46.5 296.199 44.7C296.299 42.8 296.399 41 296.499 39.4C296.499 39.2 296.299 39 295.799 39C295.299 39 294.499 38.9 293.199 38.9C291.799 38.9 290.499 39.1 289.399 39.4C288.299 39.7 287.699 40.2 287.599 40.9C287.499 41.6 287.399 42.2 287.399 42.9C287.299 43.5 287.299 44.2 287.299 45C287.299 45.8 287.199 46.7 287.199 47.8C287.199 48.9 287.199 50.2 287.199 51.8C287.199 53 287.199 54.1 287.299 55.3C287.299 56.5 287.499 57.6 287.799 58.8C287.599 59.1 287.499 59.2 287.299 59.2C285.799 59.2 284.999 58.4 284.899 56.9C284.799 55.5 284.799 54 284.799 52.4C284.799 50.8 284.799 49.4 284.799 48C284.799 45.4 284.799 42.8 284.899 40.3C284.799 40.1 284.699 39.8 284.699 39.6C284.699 39.4 284.699 39.1 284.699 38.8C284.699 38.4 284.799 38.2 284.999 38C285.199 37.9 285.699 37.8 286.399 37.8C287.299 37.8 288.599 37.7 290.299 37.4C291.999 37.1 294.399 37 297.299 37C298.499 37 299.299 37.1 299.699 37.4C300.099 37.7 300.499 37.9 300.499 38.5Z" fill="#211A14"/>
<path d="M318.2 48.4C318.2 51.2 317.6 53.7 316.3 55.8C314.8 58.3 312.8 59.6 310.1 59.6C307.4 59.6 305.4 58.6 304.1 56.5C303 54.8 302.5 52.5 302.5 49.7C302.5 46.9 303.1 44.2 304.4 41.5C306 38.2 308 36.5 310.4 36.5C311 36.5 311.9 36.9 313.1 37.6C316.5 39.6 318.2 43.2 318.2 48.4ZM315.8 48.3C315.8 46.2 315.5 44.3 315 42.6C314.2 40.3 312.9 39.1 311.2 39.1C309.2 39.1 307.7 40.4 306.6 43C305.7 45 305.3 47.2 305.3 49.5C305.3 51.6 305.6 53.3 306.2 54.7C307.1 56.6 308.4 57.6 310.2 57.6C312.2 57.6 313.7 56.5 314.7 54.2C315.4 52.5 315.8 50.6 315.8 48.3Z" fill="#211A14"/>
<path d="M337.6 59.2998C336.7 59.9998 336.1 60.2998 335.6 60.2998C335.2 60.2998 334.8 60.0998 334.2 59.6998C333.6 59.2998 333 58.7998 332.4 58.0998C331.8 57.3998 331.1 56.7998 330.5 55.9998C329.8 55.2998 329.2 54.5998 328.7 53.8998C328.2 53.1998 327.7 52.5998 327.3 52.0998C326.9 51.5998 326.7 51.2998 326.6 51.1998C325.7 50.2998 325 49.5998 324.3 49.1998C323.8 49.1998 323.6 49.4998 323.5 49.9998C323.4 50.5998 323.4 51.0998 323.4 51.6998C323.4 52.3998 323.4 53.0998 323.4 53.6998C323.4 54.2998 323.4 54.7998 323.4 55.1998C323.4 55.4998 323.5 55.8998 323.7 56.4998C323.9 56.9998 324 57.4998 324 57.7998C324 57.9998 323.9 58.1998 323.7 58.3998C323.5 58.5998 323.2 58.6998 322.9 58.6998C322.2 58.6998 321.7 58.4998 321.4 58.0998C321.1 57.6998 320.9 56.8998 320.9 55.6998C320.9 53.6998 320.9 51.9998 320.9 50.4998C320.9 48.9998 320.9 47.7998 320.9 46.6998C320.9 45.5998 320.9 44.6998 320.9 43.8998C320.9 43.0998 320.9 42.4998 320.9 41.8998C320.9 41.4998 320.9 41.1998 320.9 40.9998C320.9 40.7998 320.9 40.5998 320.9 40.3998C320.9 40.1998 320.8 39.9998 320.8 39.7998C320.8 39.5998 320.7 39.3998 320.7 39.0998C320.6 38.6998 320.6 38.2998 320.6 37.9998C320.6 37.6998 320.9 37.2998 321.4 36.9998C321.9 36.6998 322.4 36.4998 322.8 36.4998C323.1 36.4998 323.4 36.5998 323.8 36.7998C324.2 36.9998 324.3 37.1998 324.3 37.4998C324.3 37.5998 324.2 37.9998 324 38.6998C323.8 39.3998 323.7 40.4998 323.7 41.9998C323.7 42.9998 323.7 43.8998 323.6 44.4998C323.5 45.1998 323.5 45.5998 323.5 45.6998C323.5 45.8998 323.6 45.8998 323.7 45.8998C324.1 45.5998 324.5 45.2998 325.1 44.7998C325.7 44.2998 326.3 43.7998 327 43.0998C327.7 42.3998 328.4 41.7998 329.2 40.9998C330 40.1998 330.7 39.4998 331.4 38.6998C332.3 37.6998 333 36.8998 333.6 36.4998C334.2 36.0998 334.5 35.7998 334.7 35.7998C335.2 35.7998 335.5 35.9998 335.8 36.2998C336.1 36.5998 336.2 37.0998 336.2 37.5998C336.2 37.8998 336.2 37.9998 336.2 38.0998C335.6 38.4998 334.8 39.0998 333.9 39.8998C333 40.5998 331.9 41.4998 330.7 42.5998C327.9 45.0998 326.5 46.6998 326.5 47.4998C326.5 47.6998 326.7 47.9998 327.1 48.4998C327.5 48.9998 328 49.5998 328.5 50.2998C329.1 50.9998 329.7 51.6998 330.3 52.3998C330.9 53.0998 331.6 53.7998 332.1 54.3998C333.1 55.5998 334.1 56.4998 335 57.1998C335.9 57.8998 336.7 58.4998 337.4 58.7998C337.5 58.8998 337.5 58.9998 337.5 59.0998C337.7 59.0998 337.7 59.1998 337.6 59.2998Z" fill="#211A14"/>
<path d="M21.4102 22.1236L18.3209 22.1268C16.1609 22.1283 15.7649 22.5559 15.7797 20.2226C15.7963 17.6149 16.6979 15.7938 19.5313 15.5339L42.3375 15.5326C43.2881 15.5324 44.3184 15.461 45.2576 15.6086C48.8742 16.1773 48.3739 20.14 48.3723 22.7747L48.3732 33.5105C48.3733 34.1197 48.5833 35.9809 48.137 36.4347C47.1716 37.4164 46.7189 35.998 46.723 35.113L46.7298 20.9569C46.7337 17.2815 46.246 17.1596 42.3879 17.1635L22.4124 17.1629C23.0358 18.2409 23.0652 18.8693 23.0613 20.0748L23.057 29.1777L23.0556 49.5204C23.0514 54.537 23.3876 54.3468 27.9584 54.3459L36.2317 54.3446C36.5405 54.3444 36.8677 54.3206 37.1744 54.3476C38.0237 54.4223 38.4899 55.9626 36.7178 55.9798L26.564 55.9797C25.8882 55.9792 25.1433 56.0251 24.4822 55.873C21.0953 55.0938 21.4079 51.9714 21.4089 49.3916L21.4102 22.1236ZM19.1873 17.1629C17.4754 17.7918 17.4215 18.892 17.4416 20.4866H19.7341H21.4102C21.4531 18.5168 21.3383 17.5065 19.1873 17.1629Z" fill="#211A14"/>
<path d="M30.8187 21.2812C30.3706 21.2778 29.7911 21.3287 29.3649 21.1927C28.5378 20.9285 28.7144 19.9786 29.401 19.6875C30.0999 19.6593 31.659 19.4771 31.3557 20.6721C31.2813 20.9649 31.0703 21.1381 30.8187 21.2812Z" fill="#211A14"/>
<path d="M36.2875 21.2813C35.7244 21.3188 33.1535 21.343 32.7403 21.2106C31.9573 20.9595 32.0694 19.9723 32.7498 19.6876C33.4059 19.6826 35.9068 19.5948 36.369 19.7521C37.1196 20.0074 36.9068 21.0083 36.2875 21.2813Z" fill="#211A14"/>
<path d="M39.5761 21.2813C39.1469 21.2992 38.4577 21.3527 38.0696 21.1725C37.3791 20.8518 37.625 19.8728 38.2827 19.6876C38.7013 19.6809 39.2682 19.6096 39.6625 19.743C40.5063 20.0285 40.2388 20.984 39.5761 21.2813Z" fill="#211A14"/>
<path d="M27.729 28.4583C28.3728 27.867 29.5914 26.2676 30.2757 25.9383C30.4937 25.9262 30.6808 25.9361 30.8752 26.0475C32.1773 26.7934 30.2008 28.2597 29.6782 28.8011C28.1412 30.3937 28.1361 31.26 26.49 29.6076C26.1452 29.2876 25.543 28.8525 25.4827 28.3666C25.4239 27.8922 25.7959 27.4533 26.2775 27.45C26.8108 27.4463 27.3559 28.1151 27.729 28.4583Z" fill="#211A14"/>
<path d="M43.5895 28.8495C41.6923 28.8778 39.7902 28.8483 37.8926 28.8481L35.8381 28.8484C35.3763 28.8503 34.7752 28.9578 34.3552 28.7148C33.6117 28.2848 34.0333 27.3245 34.7598 27.1999C36.6454 27.1464 38.55 27.1996 40.4376 27.1984L42.5493 27.1973C43.1855 27.197 44.3197 26.9933 44.4045 27.9085C44.4571 28.4755 44.1359 28.7953 43.5895 28.8495Z" fill="#211A14"/>
<path d="M27.7283 36.5129C28.1875 36.0064 29.8017 34.2546 30.2751 34.0162C30.9492 33.9825 31.6225 34.5046 31.2038 35.2287C30.9894 35.5996 28.7138 37.881 28.2943 38.2393C27.4503 38.9597 27.2417 38.3184 26.4893 37.8205C26.2148 37.455 25.6019 37.0201 25.5171 36.582C25.4301 36.1338 25.786 35.6455 26.2413 35.5978C26.7606 35.5434 27.3498 36.2127 27.7283 36.5129Z" fill="#211A14"/>
<path d="M37.1913 36.9386C36.6189 36.9397 34.7149 37.0705 34.3249 36.7421C33.7793 36.2828 34.0294 35.4475 34.7067 35.3326C35.3653 35.2208 36.1423 35.2963 36.8149 35.2963L41.2281 35.2979C41.8522 35.2994 43.3055 35.2022 43.8272 35.3145C44.6724 35.4962 44.6251 36.7806 43.7728 36.9139C43.1208 37.016 42.3152 36.9413 41.6434 36.941L37.1913 36.9386Z" fill="#211A14"/>
<path d="M44.3765 44.5303C44.3538 41.006 45.7384 38.2819 49.5379 37.8205C51.3122 37.5624 53.2095 38.4861 54.3615 39.7897C55.5931 41.1832 55.8272 42.7343 55.7209 44.5303L58.0716 44.5273C62.3839 44.5253 62.2657 45.8048 61.5793 49.6407L60.0979 57.8471C59.3106 62.3707 57.8755 62.4103 53.9181 62.4112L50.7766 62.4095L46.1475 62.4112C42.3156 62.4121 41.0136 62.4799 40.1293 58.0618L38.4355 49.3013C37.7245 45.5109 38.2865 44.5198 42.1797 44.5276L44.3765 44.5303ZM49.5379 39.5081C46.6499 39.9472 46.0612 41.9644 46.0787 44.5303H50.7766H54.0427C54.0923 43.0334 54.0856 41.9504 52.9921 40.7948C52.1012 39.8532 50.8378 39.3019 49.5379 39.5081ZM40.6117 46.2009C39.8264 46.3382 39.6469 46.9251 39.7799 47.6326L41.8054 57.9678C42.4 60.8774 42.8094 60.742 45.89 60.7429L54.0015 60.7414C55.5979 60.7406 57.3397 61.0642 58.1037 59.2773C58.2812 58.7877 58.3482 58.2501 58.4382 57.738L59.8462 49.8337C59.981 49.0886 60.7955 46.5776 59.9286 46.2711C59.4692 46.1087 54.4272 46.2006 53.5028 46.2008L40.6117 46.2009Z" fill="#211A14"/>
<path d="M27.7294 44.7749C28.2154 44.2784 29.872 42.4037 30.3999 42.2832C30.6534 42.3065 30.8683 42.3673 31.0574 42.5469C31.8581 43.3079 30.6092 44.214 30.1189 44.7061L28.6144 46.231C27.6001 47.244 27.3179 46.6929 26.4904 45.8043C26.1258 45.5059 25.5412 45.0802 25.5352 44.5731C25.5297 44.1103 25.9312 43.6846 26.4039 43.7163C26.9167 43.7507 27.4028 44.4162 27.7294 44.7749Z" fill="#211A14"/>
<path d="M33.9941 44.1812C34.1099 43.6457 34.3077 43.403 34.8758 43.3624C35.4615 43.359 36.7496 43.233 37.2223 43.5351C37.9862 44.0231 37.4429 44.923 36.7092 45.0115C35.7408 45.0055 34.2979 45.4077 33.9941 44.1812Z" fill="#211A14"/>
</svg>
