<svg width="324" height="300" viewBox="0 0 324 300" fill="none" xmlns="http://www.w3.org/2000/svg">
<path fill-rule="evenodd" clip-rule="evenodd" d="M171.423 67.6858C215.509 70.3283 287.843 92.2694 284.4 175.458C281.724 240.089 202.388 286.855 130.647 279.976C47.0075 271.951 -9.46146 249.339 14.8754 181.496C42.1575 105.451 117.032 64.4304 171.423 67.6858Z" fill="#D4C4B5"/>
<path fill-rule="evenodd" clip-rule="evenodd" d="M41.5371 166.9C41.5371 166.867 41.5371 166.834 41.5447 166.801H41.5524C45.4716 167.083 48.961 164.033 49.8257 159.799C50.0674 164.112 53.0812 167.635 57.008 167.92C57.0614 167.922 57.1123 167.927 57.1632 167.927C57.1581 167.965 57.1581 167.998 57.1505 168.034C57.0996 168.029 57.0538 168.024 57.0004 168.021C53.0761 167.736 49.5867 170.788 48.727 175.021C48.4778 170.707 45.464 167.185 41.5447 166.902C41.5371 166.9 41.5371 166.9 41.5371 166.9Z" fill="#211A14"/>
<path fill-rule="evenodd" clip-rule="evenodd" d="M192.676 96.15C192.676 96.1093 192.676 96.066 192.681 96.0253L192.688 96.0279C197.46 96.3712 201.705 92.6605 202.76 87.5078C203.052 92.7572 206.72 97.0427 211.491 97.3886C211.557 97.3936 211.621 97.3962 211.679 97.3987C211.679 97.442 211.674 97.4852 211.674 97.5284C211.608 97.5208 211.55 97.5157 211.486 97.5132C206.712 97.1673 202.468 100.878 201.42 106.028C201.12 100.781 197.455 96.4959 192.681 96.15C192.676 96.15 192.676 96.15 192.676 96.15Z" fill="#211A14"/>
<path fill-rule="evenodd" clip-rule="evenodd" d="M267.094 164.522C267.094 164.504 267.094 164.484 267.099 164.466C269.248 164.621 271.163 162.95 271.636 160.631C271.768 162.994 273.421 164.924 275.571 165.079C275.596 165.082 275.621 165.084 275.655 165.084C275.647 165.105 275.647 165.122 275.647 165.143C275.621 165.14 275.588 165.138 275.563 165.135C273.414 164.98 271.501 166.651 271.031 168.97C270.896 166.608 269.248 164.677 267.099 164.522C267.094 164.522 267.094 164.522 267.094 164.522Z" fill="#211A14"/>
<path fill-rule="evenodd" clip-rule="evenodd" d="M186.691 170.619C186.691 160.387 168.188 158.452 159.813 158.452L150.856 152.02L118.894 152.17L97.3293 152.083C88.9643 152.083 82.1661 160.387 82.1661 170.619L69.1367 295.416L187.141 297.804L186.691 170.619Z" fill="#845416"/>
<path fill-rule="evenodd" clip-rule="evenodd" d="M230.418 181.025C230.919 181.477 231.611 182.088 232.02 182.39C232.605 182.825 232.6 182.785 233.205 183.214C233.711 183.573 234.195 183.957 234.688 184.321C236.786 185.847 237.249 188.789 235.718 190.885C234.195 192.981 231.252 193.441 229.154 191.915C228.686 191.572 228.231 191.208 227.763 190.872C227.084 190.392 227.091 190.432 226.432 189.949C224.787 188.728 222.676 186.984 221.59 185.018C220.351 182.774 220.034 180.274 221.381 177.563C221.921 176.48 222.768 175.417 223.594 174.56C224.571 173.56 225.697 172.67 226.778 171.795C228.79 170.16 231.753 170.467 233.386 172.479C235.021 174.493 234.716 177.454 232.704 179.089C231.936 179.712 231.115 180.323 230.418 181.025Z" fill="#EEE0D5"/>
<path fill-rule="evenodd" clip-rule="evenodd" d="M248.707 203.469C257.817 198.916 261.462 187.842 256.841 178.758C252.225 169.673 241.082 165.993 231.975 170.548C222.865 175.1 219.22 186.174 223.836 195.259C228.46 204.343 239.6 208.021 248.707 203.469Z" fill="#EEE0D5"/>
<path fill-rule="evenodd" clip-rule="evenodd" d="M248.395 173.907C249.359 171.847 251.938 171.005 254.15 172.025C256.365 173.045 257.622 175.962 256.663 178.022L246.182 199.546C245.218 201.604 242.639 202.448 240.427 201.428C238.211 200.406 237.197 197.906 238.153 195.848L248.395 173.907Z" fill="#EEE0D5"/>
<path fill-rule="evenodd" clip-rule="evenodd" d="M255.864 178.951C256.904 178.628 258.122 178.687 259.266 179.211C261.482 180.225 262.555 182.601 261.657 184.511L256.148 196.513C255.79 196.693 248.063 200.396 245.901 200.478C244.625 199.323 253.623 180.833 253.623 180.833C254.015 180.007 254.704 179.401 255.551 179.063C255.647 179.022 255.752 178.984 255.864 178.951Z" fill="#EEE0D5"/>
<path fill-rule="evenodd" clip-rule="evenodd" d="M241.904 168.499C242.926 166.284 245.556 165.32 247.769 166.345C249.984 167.37 250.948 170.003 249.918 172.215L238.974 195.817C237.951 198.032 235.322 198.999 233.106 197.971C230.894 196.946 229.93 194.317 230.96 192.101L241.904 168.499Z" fill="#EEE0D5"/>
<path fill-rule="evenodd" clip-rule="evenodd" d="M222.128 184.549L254.886 198.545L220.462 279.597L185.367 270.581L222.128 184.549Z" fill="#EEE0D5"/>
<path fill-rule="evenodd" clip-rule="evenodd" d="M240.118 151.593C241.135 149.395 243.76 148.444 245.972 149.469C248.185 150.497 249.157 153.111 248.134 155.309L237.274 178.727C236.252 180.925 233.627 181.876 231.415 180.851C229.199 179.826 228.235 177.209 229.253 175.011L240.118 151.593Z" fill="#EEE0D5"/>
<path fill-rule="evenodd" clip-rule="evenodd" d="M173.148 223.701L207.325 212.727L220.724 268.143L186.124 276.625L173.148 223.701Z" fill="#EEE0D5"/>
<path fill-rule="evenodd" clip-rule="evenodd" d="M209.081 256.382C199.661 253.399 189.587 258.625 186.606 268.045C183.623 277.468 188.852 287.54 198.272 290.523C207.695 293.504 217.767 288.277 220.748 278.857C223.731 269.434 218.502 259.365 209.081 256.382Z" fill="#EEE0D5"/>
<path fill-rule="evenodd" clip-rule="evenodd" d="M185.682 200.022C176.086 202.377 170.201 212.08 172.556 221.678C174.909 231.277 184.614 237.157 194.212 234.804C203.808 232.452 209.688 222.749 207.338 213.151C204.981 203.552 195.28 197.669 185.682 200.022Z" fill="#EEE0D5"/>
<path fill-rule="evenodd" clip-rule="evenodd" d="M173.065 193.916L149.346 167.336L183.457 137.508C190.903 131.93 197.414 124.852 207.331 127.584L224.124 146.86L220.055 150.614L218.595 149.973L217.918 152.577L214.559 155.677L212.918 155.153L212.226 157.819L173.065 193.916Z" fill="#EEE0D5"/>
<path fill-rule="evenodd" clip-rule="evenodd" d="M222.613 120.505C209.311 99.5738 213.289 71.4881 232.827 55.1728C254.073 37.4383 285.715 40.2868 303.444 61.5285C321.178 82.7702 318.327 114.411 297.088 132.143C277.823 148.23 249.996 147.383 231.758 131.235L179.804 174.723C176.82 177.221 172.375 176.827 169.875 173.843C167.38 170.86 167.771 166.409 170.752 163.914L222.613 120.505ZM292.622 70.5623C279.875 55.2923 257.133 53.2449 241.865 65.992C226.595 78.739 224.546 101.484 237.293 116.754C250.042 132.024 272.784 134.071 288.052 121.324C303.319 108.577 305.372 85.8323 292.622 70.5623Z" fill="#FABA73"/>
<path fill-rule="evenodd" clip-rule="evenodd" d="M159.905 122.964C159.905 112.908 151.741 104.744 141.682 104.744C131.624 104.744 123.457 112.908 123.457 122.964V181.59C123.457 191.649 131.624 199.813 141.682 199.813C151.741 199.813 159.905 191.649 159.905 181.59V122.964Z" fill="#EEE0D5"/>
<path fill-rule="evenodd" clip-rule="evenodd" d="M165.747 154.162C152.881 158.138 145.66 171.813 149.638 184.68C153.611 197.546 167.283 204.764 180.155 200.786C193.019 196.811 200.234 183.138 196.262 170.272C192.284 157.405 178.611 150.187 165.747 154.162Z" fill="#845416"/>
<path fill-rule="evenodd" clip-rule="evenodd" d="M149.086 183.081L196.007 169.477L209.22 212.593L162.647 226.983L149.086 183.081Z" fill="#845416"/>
<path fill-rule="evenodd" clip-rule="evenodd" d="M159.905 140.943C157.138 141.184 154.124 140.95 151.552 139.572C139.729 133.231 143.355 124.106 140.848 118.549L154.574 123.038L159.905 129.175V140.943Z" fill="#50453A"/>
<path fill-rule="evenodd" clip-rule="evenodd" d="M65.9265 169.668C49.6748 198.545 90.004 245.613 127.658 230.415C180.304 209.165 139.845 141.404 152.724 119.908C167.392 95.4339 218.868 68.0196 174.32 40.8138C159.261 31.6147 140.275 41.1572 140.275 41.1572C140.275 41.1572 105.935 28.8629 95.2127 82.1324C81.3974 150.771 86.7562 132.66 65.9265 169.668Z" fill="#211A14"/>
<path fill-rule="evenodd" clip-rule="evenodd" d="M181.991 70.4969C180.539 59.3013 171.001 50.9262 159.709 50.9414C155.418 50.9491 150.83 50.9567 146.423 50.9618C140.502 50.9719 134.838 53.3779 130.731 57.6354C126.616 61.8904 124.408 67.6306 124.604 73.5438C124.891 82.1656 125.209 91.8607 125.476 99.9509C125.84 110.935 131.649 121.017 140.973 126.836C143.16 128.202 145.489 129.657 147.9 131.162C155.51 135.911 165.147 135.984 172.822 131.353C180.506 126.722 184.934 118.166 184.282 109.219L188.815 104.297L182.647 96.4132C182.647 96.4132 183.415 88.3178 183.285 84.3808C183.156 80.4997 182.634 75.4716 181.991 70.4969Z" fill="#EEE0D5"/>
<path fill-rule="evenodd" clip-rule="evenodd" d="M175.707 87.7933C176.847 87.8213 177.734 89.4541 177.681 91.4353C177.635 93.4166 176.671 95.0011 175.532 94.9731C174.393 94.9451 173.507 93.3123 173.561 91.3311C173.607 89.3498 174.568 87.7654 175.707 87.7933Z" fill="#211A14"/>
<path fill-rule="evenodd" clip-rule="evenodd" d="M172.623 83.0228C172.339 83.32 171.876 83.3309 171.579 83.0496C171.281 82.7715 171.271 82.3028 171.548 82.0076C171.548 82.0076 174.304 79.0863 178.33 80.3456C178.718 80.468 178.933 80.8845 178.813 81.2721C178.688 81.661 178.275 81.8796 177.884 81.7578C174.765 80.777 172.623 83.0228 172.623 83.0228Z" fill="#211A14"/>
<path fill-rule="evenodd" clip-rule="evenodd" d="M157.965 41.3616C157.965 41.3616 166.325 44.083 171.411 49.1569C175.213 52.9413 174.908 61.1842 171.905 69.6661C165.673 87.309 145.543 89.6768 145.543 89.6768C145.543 89.6768 144.93 104.227 144.592 111.709C141.362 182.482 99.0566 183.619 99.0566 183.619L122.241 61.1714C122.241 61.1714 137.547 36.9109 157.965 41.3616Z" fill="#211A14"/>
<path fill-rule="evenodd" clip-rule="evenodd" d="M152.125 88.0781C158.643 88.0781 163.936 92.7654 163.936 98.5362C163.936 104.309 158.643 108.997 152.125 108.997C145.601 108.997 140.309 104.309 140.309 98.5362C140.309 92.7654 145.601 88.0781 152.125 88.0781Z" fill="#EEE0D5"/>
<path fill-rule="evenodd" clip-rule="evenodd" d="M148.394 95.8432C148.732 95.8432 149.007 95.5711 149.007 95.2354C149.007 94.8971 148.732 94.625 148.394 94.625C146.052 94.625 144.188 96.3265 144.188 98.3662C144.188 100.403 145.973 102.199 148.315 102.199C148.648 102.199 148.923 101.927 148.923 101.591C148.923 101.253 148.648 100.981 148.315 100.981C146.688 100.981 145.406 99.7803 145.406 98.3662C145.406 96.9496 146.766 95.8432 148.394 95.8432Z" fill="#211A14"/>
<path fill-rule="evenodd" clip-rule="evenodd" d="M146.779 77.8926L153.616 78.3809L151.942 95.098C151.896 95.5609 151.52 95.9195 151.052 95.9399C150.589 95.9602 150.18 95.6372 150.093 95.1794L146.779 77.8926Z" fill="#211A14"/>
<path fill-rule="evenodd" clip-rule="evenodd" d="M210.835 141.603C209.474 139.709 209.904 137.064 211.804 135.703C213.699 134.337 216.341 134.772 217.702 136.667C219.76 139.531 222.221 142.145 224.638 144.716C226.24 146.415 226.153 149.093 224.454 150.693C222.756 152.293 220.072 152.211 218.478 150.51C215.807 147.672 213.106 144.767 210.835 141.603Z" fill="#EEE0D5"/>
<path fill-rule="evenodd" clip-rule="evenodd" d="M204.784 146.847C203.365 144.995 203.711 142.337 205.559 140.916C207.408 139.494 210.066 139.837 211.49 141.686C213.393 144.163 215.613 146.478 217.709 148.802C219.27 150.537 219.128 153.215 217.396 154.774C215.659 156.336 212.981 156.198 211.419 154.464C209.179 151.977 206.824 149.494 204.784 146.847Z" fill="#EEE0D5"/>
<path fill-rule="evenodd" clip-rule="evenodd" d="M199.863 151.663C198.698 149.638 199.395 147.049 201.412 145.884C203.437 144.717 206.023 145.414 207.196 147.436C208.483 149.671 210.11 151.477 211.87 153.357C213.465 155.058 213.381 157.734 211.674 159.331C209.975 160.928 207.292 160.842 205.698 159.138C203.49 156.78 201.491 154.476 199.863 151.663Z" fill="#EEE0D5"/>
<path fill-rule="evenodd" clip-rule="evenodd" d="M195.743 156.493C194.407 154.576 194.883 151.938 196.796 150.606C198.716 149.273 201.353 149.749 202.681 151.666C203.952 153.49 205.201 155.016 206.758 156.575C208.406 158.228 208.406 160.906 206.75 162.554C205.105 164.207 202.421 164.205 200.773 162.552C198.853 160.626 197.304 158.747 195.743 156.493Z" fill="#EEE0D5"/>
<path fill-rule="evenodd" clip-rule="evenodd" d="M203.464 128.701C205.137 127.07 207.818 127.101 209.446 128.772C211.081 130.443 211.048 133.123 209.374 134.751C207.526 136.557 205.552 138.314 203.268 139.528C201.21 140.626 198.644 139.843 197.551 137.783C196.452 135.723 197.233 133.162 199.29 132.06C200.872 131.224 202.187 129.947 203.464 128.701Z" fill="#EEE0D5"/>
<path fill-rule="evenodd" clip-rule="evenodd" d="M242.678 166.838C242.795 166.591 243.088 166.487 243.335 166.601C243.576 166.718 243.686 167.013 243.569 167.26L236.862 181.431C236.745 181.678 236.452 181.782 236.206 181.665C235.959 181.548 235.855 181.256 235.972 181.009L242.678 166.838Z" fill="#211A14"/>
<path fill-rule="evenodd" clip-rule="evenodd" d="M250.12 171.502C250.23 171.255 250.53 171.148 250.777 171.263C251.023 171.377 251.127 171.672 251.011 171.919L244.988 184.821C244.879 185.068 244.586 185.175 244.337 185.06C244.09 184.943 243.981 184.651 244.098 184.404L250.12 171.502Z" fill="#211A14"/>
<path fill-rule="evenodd" clip-rule="evenodd" d="M256.175 178.235C256.295 177.988 256.587 177.882 256.834 177.999C257.081 178.113 257.185 178.408 257.076 178.655L251.053 191.554C250.941 191.801 250.641 191.908 250.394 191.794C250.148 191.679 250.043 191.384 250.153 191.137L256.175 178.235Z" fill="#211A14"/>
<path fill-rule="evenodd" clip-rule="evenodd" d="M231.61 168.863C231.72 168.614 232.012 168.497 232.261 168.604C232.508 168.711 232.625 169.003 232.521 169.253L227.096 181.888C226.986 182.14 226.694 182.254 226.445 182.147C226.193 182.04 226.081 181.75 226.185 181.499L231.61 168.863Z" fill="#211A14"/>
<path fill-rule="evenodd" clip-rule="evenodd" d="M199.883 139.544C200.092 139.656 200.163 139.913 200.051 140.116C199.942 140.322 199.68 140.396 199.479 140.286C199.479 140.286 197.309 139.088 197.017 136.876C196.829 135.444 197.409 133.547 200.005 131.283C202.271 129.315 204.571 128.564 204.571 128.564C204.784 128.496 205.026 128.615 205.097 128.836C205.176 129.06 205.051 129.297 204.83 129.371C204.83 129.371 202.681 130.075 200.56 131.919C198.286 133.9 197.688 135.513 197.859 136.764C198.093 138.572 199.883 139.544 199.883 139.544Z" fill="#211A14"/>
<path fill-rule="evenodd" clip-rule="evenodd" d="M210.155 140.929C210.012 140.746 210.046 140.479 210.229 140.334C210.409 140.186 210.671 140.217 210.819 140.4L219.344 151.115C219.486 151.298 219.461 151.565 219.278 151.713C219.095 151.858 218.828 151.827 218.677 151.644L210.155 140.929Z" fill="#211A14"/>
<path fill-rule="evenodd" clip-rule="evenodd" d="M203.777 145.538C203.627 145.36 203.645 145.093 203.821 144.94C203.999 144.79 204.266 144.811 204.421 144.986L213.452 155.434C213.602 155.609 213.582 155.877 213.406 156.029C213.231 156.184 212.956 156.164 212.806 155.988L203.777 145.538Z" fill="#211A14"/>
<path fill-rule="evenodd" clip-rule="evenodd" d="M199.042 150.201C198.887 150.025 198.899 149.756 199.075 149.6C199.245 149.445 199.512 149.458 199.667 149.631L209.238 160.214C209.395 160.387 209.383 160.654 209.212 160.811C209.037 160.969 208.77 160.956 208.615 160.781L199.042 150.201Z" fill="#211A14"/>
<path fill-rule="evenodd" clip-rule="evenodd" d="M197.036 158.983C196.886 158.805 196.911 158.538 197.087 158.388C197.27 158.24 197.537 158.263 197.687 158.446C197.687 158.446 199.19 160.262 200.98 161.936C202.148 163.027 203.422 164.062 204.478 164.461C204.694 164.545 204.811 164.789 204.724 165.01C204.64 165.227 204.399 165.338 204.177 165.252C203.046 164.822 201.652 163.726 200.401 162.556C198.572 160.842 197.036 158.983 197.036 158.983Z" fill="#211A14"/>
<path fill-rule="evenodd" clip-rule="evenodd" d="M221.276 185.389C221.386 185.124 221.694 184.999 221.961 185.111C222.228 185.221 222.35 185.526 222.24 185.796L201.009 236.608C200.897 236.873 200.592 237 200.325 236.888C200.058 236.776 199.933 236.471 200.045 236.204L221.276 185.389Z" fill="#211A14"/>
<path fill-rule="evenodd" clip-rule="evenodd" d="M180.884 111.928C181.289 111.849 181.68 112.111 181.757 112.521C181.836 112.925 181.568 113.314 181.159 113.393C181.159 113.393 177.949 114.006 176.172 116.76C175.95 117.104 175.487 117.203 175.142 116.982C174.791 116.753 174.694 116.29 174.915 115.946C177.036 112.658 180.884 111.928 180.884 111.928Z" fill="#211A14"/>
<path fill-rule="evenodd" clip-rule="evenodd" d="M246.376 7.26584L254.556 30.016C254.729 30.4954 254.513 31.0277 254.056 31.2521L252.125 32.1997C251.658 32.4286 251.094 32.2622 250.827 31.8168L238.512 11.3084C238.178 10.7555 238.087 10.0856 238.279 9.46439C238.47 8.8432 238.907 8.32934 239.491 8.05289L243.582 6.11127C244.094 5.8641 244.7 5.84784 245.232 6.06574C245.763 6.2869 246.178 6.7227 246.376 7.26584ZM283.064 2.96305L278.119 26.7024C278.015 27.2031 277.55 27.5444 277.041 27.4936L274.904 27.2802C274.389 27.2288 273.998 26.7927 274.003 26.275L274.253 1.73044C274.26 1.23609 274.467 0.767757 274.84 0.439275C275.206 0.110794 275.696 -0.0420642 276.185 0.00997251L281.346 0.582376C281.904 0.64417 282.399 0.936875 282.733 1.3922C283.058 1.84426 283.181 2.41667 283.064 2.96305ZM316.598 21.5824L297.78 37.4197C297.388 37.7495 296.81 37.7299 296.442 37.3743L294.891 35.8784C294.519 35.5197 294.481 34.9368 294.804 34.5336L310.267 15.2242C310.54 14.886 310.948 14.6746 311.379 14.6485C311.82 14.6258 312.241 14.7819 312.549 15.0909L316.698 19.179C317.023 19.4977 317.198 19.9433 317.178 20.4018C317.162 20.8604 316.948 21.2865 316.598 21.5824Z" fill="#50453A"/>
</svg>
