<svg width="324" height="301" viewBox="0 0 324 301" fill="none" xmlns="http://www.w3.org/2000/svg">
<path fill-rule="evenodd" clip-rule="evenodd" d="M151.284 59.8395C222.753 70.7859 292.257 87.7522 284.739 163.751C278.688 224.806 235.704 309.851 151.284 296.83C55.4649 282.048 18.1623 234.687 4.68529 186.748C-11.9556 127.58 98.8588 51.8179 151.284 59.8395Z" fill="#8F8174"/>
<path fill-rule="evenodd" clip-rule="evenodd" d="M28.3984 147.567C28.3984 147.513 28.3984 147.468 28.4035 147.417H28.4112C34.1463 147.834 39.2456 143.373 40.502 137.188C40.8606 143.49 45.2605 148.635 50.9906 149.049C51.0695 149.057 51.1458 149.065 51.2195 149.065C51.2119 149.116 51.2119 149.169 51.2043 149.22C51.133 149.212 51.0567 149.207 50.983 149.2C45.2478 148.785 40.151 153.241 38.8947 159.426C38.5361 153.126 34.1336 147.984 28.4035 147.567C28.3984 147.567 28.3984 147.567 28.3984 147.567Z" fill="#251E17"/>
<path fill-rule="evenodd" clip-rule="evenodd" d="M52.373 233.161C52.373 233.135 52.373 233.11 52.3781 233.087C55.2114 233.29 57.7318 231.09 58.3549 228.033C58.5304 231.146 60.7075 233.69 63.5382 233.893C63.5763 233.896 63.6094 233.898 63.6501 233.901C63.6501 233.926 63.6424 233.951 63.6424 233.977C63.6043 233.972 63.5636 233.969 63.5331 233.967C60.6998 233.763 58.1794 235.963 57.5614 239.018C57.3783 235.907 55.2037 233.364 52.3781 233.161C52.373 233.161 52.373 233.161 52.373 233.161Z" fill="#251E17"/>
<path fill-rule="evenodd" clip-rule="evenodd" d="M211.301 91.9002C211.301 91.8747 211.301 91.8467 211.301 91.8289H211.308C214.139 92.0299 216.66 89.8299 217.285 86.7754C217.461 89.8884 219.635 92.4266 222.468 92.6352C222.501 92.6352 222.54 92.6428 222.578 92.6428C222.573 92.6682 222.573 92.6937 222.573 92.7191C222.532 92.714 222.494 92.714 222.461 92.7064C219.63 92.5055 217.11 94.7054 216.484 97.7599C216.309 94.6469 214.134 92.1087 211.301 91.9002Z" fill="#251E17"/>
<path fill-rule="evenodd" clip-rule="evenodd" d="M73.1533 123.17C67.4512 143.641 86.5336 173.718 120.84 179.901C149.15 185 178.624 179.85 191.203 148.341C199.334 127.982 190.064 110.637 189.535 92.7267C188.767 66.2662 220.632 29.5383 183.955 6.63328C165.582 -4.83957 151.968 4.76395 151.968 4.76395C151.968 4.76395 121.334 -3.13301 112.264 34.1798C94.2296 108.345 82.2227 90.5776 73.1533 123.17Z" fill="#403830"/>
<path fill-rule="evenodd" clip-rule="evenodd" d="M166.038 86.2185C168.337 77.1771 162.866 67.9627 153.817 65.6661C144.773 63.3593 135.561 68.835 133.262 77.8866L123.45 116.489C121.146 125.533 126.622 134.745 135.666 137.044C144.715 139.343 153.922 133.867 156.226 124.823L166.038 86.2185Z" fill="#D9C8B9"/>
<path fill-rule="evenodd" clip-rule="evenodd" d="M173.383 127.703L108.055 111.012L102.916 130.477L168.442 147.138L173.383 127.703Z" fill="#D9C8B9"/>
<path fill-rule="evenodd" clip-rule="evenodd" d="M80.9342 232.587C80.9342 232.587 74.848 270.944 80.4204 298.865C80.4204 298.865 160.641 304.272 208.918 295.4C208.918 295.4 202.903 249.695 191.197 231.102C182.608 217.451 80.9342 232.587 80.9342 232.587Z" fill="#3B332C"/>
<path fill-rule="evenodd" clip-rule="evenodd" d="M146.008 273.114C145.962 272.885 146.124 272.665 146.365 272.624C146.601 272.583 146.834 272.735 146.877 272.965L151.994 299.805C152.033 300.035 151.88 300.255 151.637 300.298C151.394 300.339 151.163 300.187 151.118 299.957L146.008 273.114Z" fill="#FFFAF8"/>
<path fill-rule="evenodd" clip-rule="evenodd" d="M75.4967 148.022C76.3232 136.244 84.8662 122.475 89.3577 118.156C96.044 111.737 108.069 111.007 108.069 111.007C108.069 111.007 122.609 133.126 142.655 135.163C163.126 137.241 167.041 126.079 167.041 126.079L172.804 127.542L178.518 129.103C187.216 131.114 195.088 138.594 195.251 140.685L197.822 231.305L80.7617 233.738C80.7617 233.738 74.136 167.25 75.4967 148.022Z" fill="#693E00"/>
<path fill-rule="evenodd" clip-rule="evenodd" d="M250.691 101.969C252.853 100.42 255.991 100.779 257.678 102.758C259.377 104.744 258.987 107.615 256.818 109.157C253.784 111.326 252.444 114.541 251.859 117.959C251.434 120.446 248.888 122.153 246.174 121.764C243.453 121.377 241.589 119.04 242.013 116.555C242.995 110.817 245.594 105.609 250.691 101.969Z" fill="#D9C8B9"/>
<path fill-rule="evenodd" clip-rule="evenodd" d="M320.078 112.854C320.078 110.774 318.631 109.08 316.848 109.08H176.811C175.029 109.08 173.584 110.774 173.584 112.854V250.153C173.584 252.232 175.029 253.926 176.811 253.926H316.848C318.631 253.926 320.078 252.232 320.078 250.153V112.854Z" fill="#FFFAF8"/>
<path fill-rule="evenodd" clip-rule="evenodd" d="M209.85 156.605C209.85 151.684 205.855 147.688 200.933 147.688C196.011 147.688 192.01 151.684 192.01 156.605C192.01 161.527 196.011 165.528 200.933 165.528C205.854 165.528 209.85 161.528 209.85 156.605ZM210.697 156.605C210.697 151.216 206.322 146.842 200.933 146.842C195.544 146.842 191.164 151.216 191.164 156.605C191.164 161.995 195.544 166.374 200.933 166.374C206.322 166.374 210.697 161.995 210.697 156.605Z" fill="#251E17"/>
<path fill-rule="evenodd" clip-rule="evenodd" d="M209.85 185.254C209.85 180.332 205.855 176.337 200.933 176.337C196.011 176.337 192.01 180.333 192.01 185.254C192.01 190.176 196.011 194.176 200.933 194.176C205.854 194.176 209.85 190.176 209.85 185.254ZM210.697 185.254C210.697 179.865 206.322 175.49 200.933 175.49C195.544 175.49 191.164 179.865 191.164 185.254C191.164 190.643 195.544 195.023 200.933 195.023C206.322 195.023 210.697 190.643 210.697 185.254Z" fill="#251E17"/>
<path fill-rule="evenodd" clip-rule="evenodd" d="M210.501 213.902C210.501 209.006 206.386 204.985 201.259 204.985C196.13 204.985 192.01 209.007 192.01 213.902C192.01 218.798 196.131 222.825 201.259 222.825C206.386 222.825 210.501 218.799 210.501 213.902ZM211.348 213.902C211.348 208.513 206.828 204.139 201.259 204.139C195.69 204.139 191.164 208.513 191.164 213.902C191.164 219.291 195.69 223.671 201.259 223.671C206.828 223.671 211.348 219.291 211.348 213.902Z" fill="#251E17"/>
<path fill-rule="evenodd" clip-rule="evenodd" d="M208.8 134.169C208.921 133.946 209.193 133.855 209.42 133.971C209.643 134.092 209.73 134.365 209.61 134.588L206.181 141.203C206.059 141.423 205.788 141.511 205.56 141.397C205.337 141.277 205.255 141.005 205.37 140.783L208.8 134.169ZM224.099 152.386C224.349 152.403 224.541 152.623 224.522 152.871C224.509 153.123 224.29 153.312 224.044 153.298L216.604 152.814C216.354 152.794 216.161 152.579 216.176 152.325C216.196 152.075 216.408 151.884 216.659 151.899L224.099 152.386ZM218.463 141.247C218.665 141.093 218.951 141.136 219.101 141.331C219.253 141.541 219.211 141.824 219.011 141.973L213.048 146.442C212.845 146.59 212.56 146.551 212.403 146.351C212.255 146.148 212.292 145.86 212.5 145.713L218.463 141.247Z" fill="#251E17"/>
<path fill-rule="evenodd" clip-rule="evenodd" d="M212.877 224.974C212.877 224.74 213.066 224.551 213.3 224.551L301.848 224.551C302.082 224.551 302.271 224.74 302.271 224.974C302.271 225.208 302.082 225.397 301.848 225.397L213.3 225.397C213.066 225.397 212.877 225.208 212.877 224.974Z" fill="#251E17"/>
<path fill-rule="evenodd" clip-rule="evenodd" d="M212.877 196.326C212.877 196.092 213.066 195.902 213.3 195.902L301.848 195.902C302.082 195.902 302.271 196.092 302.271 196.326C302.271 196.559 302.082 196.749 301.848 196.749L213.3 196.749C213.066 196.749 212.877 196.559 212.877 196.326Z" fill="#251E17"/>
<path fill-rule="evenodd" clip-rule="evenodd" d="M212.877 167.677C212.877 167.443 213.066 167.254 213.3 167.254L301.848 167.254C302.082 167.254 302.271 167.443 302.271 167.677C302.271 167.911 302.082 168.1 301.848 168.1L213.3 168.1C213.066 168.1 212.877 167.911 212.877 167.677Z" fill="#251E17"/>
<path fill-rule="evenodd" clip-rule="evenodd" d="M320.078 130.123H173.584V112.31C173.584 110.527 175.036 109.08 176.819 109.08H316.848C318.631 109.08 320.078 110.527 320.078 112.31V130.123Z" fill="#50453A"/>
<path fill-rule="evenodd" clip-rule="evenodd" d="M253.955 106.46C253.739 103.947 255.791 101.747 258.533 101.551C261.272 101.355 263.676 103.23 263.889 105.743C264.334 110.867 265.095 116.206 264.243 121.338C263.826 123.831 261.285 125.542 258.564 125.166C255.85 124.782 253.975 122.457 254.39 119.97C255.128 115.522 254.339 110.893 253.955 106.46Z" fill="#D9C8B9"/>
<path fill-rule="evenodd" clip-rule="evenodd" d="M263.504 105.678C263.316 103.165 265.394 100.99 268.135 100.82C270.882 100.644 273.258 102.544 273.448 105.06C273.845 110.416 274.188 119.383 273.55 124.727C273.245 127.235 270.791 129.038 268.057 128.766C265.322 128.491 263.341 126.238 263.649 123.738C264.234 118.829 263.87 110.599 263.504 105.678Z" fill="#D9C8B9"/>
<path fill-rule="evenodd" clip-rule="evenodd" d="M270.258 105.227C269.724 102.76 271.476 100.357 274.172 99.8683C276.868 99.3749 279.498 100.982 280.032 103.449C281.202 108.821 281.647 113.933 281.293 119.409C281.131 121.921 278.775 123.842 276.034 123.691C273.287 123.549 271.189 121.395 271.352 118.874C271.644 114.2 271.26 109.823 270.258 105.227Z" fill="#D9C8B9"/>
<path fill-rule="evenodd" clip-rule="evenodd" d="M277.882 103.742C277.79 101.225 279.939 99.1137 282.694 99.0221C285.44 98.9382 287.745 100.912 287.844 103.425C288.019 107.944 288.851 111.054 288.846 115.574C288.838 118.087 286.6 120.132 283.851 120.124C281.104 120.119 278.879 118.074 278.879 115.554C278.891 111.159 278.05 108.132 277.882 103.742Z" fill="#D9C8B9"/>
<path fill-rule="evenodd" clip-rule="evenodd" d="M122.65 222.287C127.678 214.662 137.945 212.554 145.57 217.582C153.192 222.608 155.303 232.88 150.275 240.502C145.25 248.13 134.982 250.236 127.357 245.21C119.728 240.182 117.624 229.912 122.65 222.287Z" fill="#D9C8B9"/>
<path fill-rule="evenodd" clip-rule="evenodd" d="M108.299 171.765C116.562 167.869 126.425 171.411 130.326 179.672C134.217 187.93 130.677 197.801 122.414 201.697C114.158 205.593 104.288 202.051 100.394 193.79C96.495 185.532 100.035 175.661 108.299 171.765Z" fill="#D9C8B9"/>
<path fill-rule="evenodd" clip-rule="evenodd" d="M116.192 136.869L75.4531 156.086L93.5665 194.49L134.305 175.276L116.192 136.869Z" fill="#693E00"/>
<path fill-rule="evenodd" clip-rule="evenodd" d="M130.632 177.506C130.373 177.638 130.06 177.542 129.922 177.285C129.785 177.03 129.889 176.712 130.144 176.578L136.141 173.434L120.22 139.188C120.098 138.921 120.207 138.616 120.474 138.492C120.736 138.375 121.049 138.487 121.171 138.746L137.298 173.444C137.415 173.699 137.318 173.999 137.072 174.128L130.632 177.506Z" fill="#251E17"/>
<path fill-rule="evenodd" clip-rule="evenodd" d="M163.708 95.401C160.537 98.7683 155.504 101.711 148.042 100.109C135.358 97.3924 133.028 85.4261 132.611 80.4463L133.125 78.4219L165.738 87.4048L163.708 95.401Z" fill="#50453A"/>
<path fill-rule="evenodd" clip-rule="evenodd" d="M190.696 48.2946C193.75 36.2902 186.489 24.0747 174.485 21.0278L161.026 17.6046C155.407 16.1701 149.456 17.0374 144.469 20.0003C139.489 22.9633 135.88 27.7854 134.456 33.4061C132.607 40.685 130.992 47.0382 130.992 47.0382C130.992 47.0382 130.119 50.2352 128.881 54.7622C124.369 71.3192 133.771 88.4737 150.153 93.5731C157.152 95.7527 164.744 94.9592 171.143 91.3782C177.544 87.7972 182.193 81.7493 183.997 74.6382C184.165 73.9744 187.565 60.622 190.696 48.2946Z" fill="#D9C8B9"/>
<path fill-rule="evenodd" clip-rule="evenodd" d="M153.4 51.994C154.507 52.2738 155.003 54.0566 154.514 55.9768C154.018 57.897 152.731 59.2272 151.622 58.9474C150.524 58.6676 150.028 56.8772 150.516 54.9544C151.004 53.0419 152.302 51.7066 153.4 51.994Z" fill="#251E17"/>
<path fill-rule="evenodd" clip-rule="evenodd" d="M178.258 59.2012C179.367 59.4835 179.86 61.274 179.372 63.1942C178.878 65.1144 177.589 66.442 176.48 66.1622C175.381 65.8749 174.885 64.092 175.374 62.1718C175.862 60.2516 177.159 58.9215 178.258 59.2012Z" fill="#251E17"/>
<path fill-rule="evenodd" clip-rule="evenodd" d="M131.935 45.7116C137.8 47.202 141.492 52.6269 140.17 57.8229C138.85 63.0112 133.016 66.0199 127.156 64.5295C121.288 63.0315 117.598 57.6067 118.918 52.4183C120.241 47.23 126.075 44.2213 131.935 45.7116Z" fill="#D9C8B9"/>
<path fill-rule="evenodd" clip-rule="evenodd" d="M126.804 51.8457C127.11 51.9169 127.415 51.7338 127.494 51.4336C127.573 51.1361 127.389 50.8233 127.084 50.7444C124.973 50.2103 122.911 51.3116 122.44 53.1478C121.98 54.9841 123.17 57.0009 125.281 57.5427C125.579 57.6139 125.891 57.4308 125.963 57.1307C126.041 56.8255 125.858 56.5203 125.561 56.4414C124.096 56.0701 123.216 54.7043 123.541 53.4276C123.867 52.1509 125.34 51.4743 126.804 51.8457Z" fill="#251E17"/>
<path fill-rule="evenodd" clip-rule="evenodd" d="M162.794 62.628C162.735 62.2185 163.023 61.8396 163.432 61.7887C163.842 61.7302 164.221 62.0227 164.271 62.4271L165.243 69.5687C165.281 69.8561 165.151 70.1358 164.917 70.291L162.072 72.173C161.733 72.4019 161.265 72.3104 161.036 71.9645C160.81 71.6186 160.907 71.1582 161.253 70.9293L163.699 69.3093L162.794 62.628Z" fill="#251E17"/>
<path fill-rule="evenodd" clip-rule="evenodd" d="M148.354 43.7468C148.003 43.8765 147.606 43.6959 147.477 43.3424C147.344 42.9863 147.527 42.5947 147.886 42.4649C147.886 42.4649 151.383 41.1755 154.209 43.8841C154.476 44.1435 154.488 44.581 154.227 44.8531C153.959 45.1278 153.53 45.1329 153.258 44.8735C151.063 42.7701 148.354 43.7468 148.354 43.7468Z" fill="#251E17"/>
<path fill-rule="evenodd" clip-rule="evenodd" d="M177.015 50.2082C176.658 50.3201 176.274 50.1242 176.155 49.7656C176.038 49.4019 176.234 49.0179 176.6 48.9009C176.6 48.9009 180.14 47.7539 182.857 50.5719C183.116 50.8465 183.111 51.284 182.836 51.5434C182.561 51.8028 182.127 51.7977 181.867 51.5231C179.764 49.3358 177.015 50.2082 177.015 50.2082Z" fill="#251E17"/>
<path fill-rule="evenodd" clip-rule="evenodd" d="M165.777 77.997C166.141 77.8139 166.596 77.9588 166.779 78.3225C166.967 78.6938 166.825 79.144 166.454 79.3322C166.454 79.3322 158.549 83.3812 153.478 75.4893C153.256 75.1459 153.353 74.6831 153.706 74.4618C154.05 74.2329 154.513 74.3372 154.734 74.6831C159.058 81.4076 165.777 77.997 165.777 77.997Z" fill="#251E17"/>
<path fill-rule="evenodd" clip-rule="evenodd" d="M165.758 10.9613C172.549 11.2869 210.365 12.9553 192.186 50.3342C192.186 50.3342 168.388 47.9562 162.478 23.9322L162.511 23.7491L162.452 23.9246C145.776 42.2084 125.574 35.99 125.574 35.99C127.461 -5.54218 159.639 8.00092 165.758 10.9613Z" fill="#403830"/>
<path fill-rule="evenodd" clip-rule="evenodd" d="M130.912 34.793L136.942 36.7996L131.614 51.4491C131.466 51.8509 131.049 52.0849 130.624 52.001C130.202 51.9094 129.91 51.533 129.935 51.0956L130.912 34.793Z" fill="#403830"/>
<path fill-rule="evenodd" clip-rule="evenodd" d="M247.373 105.325C247.373 105.325 251.28 98.3642 265.616 97.6877C278.155 97.0951 287.506 97.8809 287.773 103.461C288.013 108.606 250.725 111.373 247.373 105.325Z" fill="#D9C8B9"/>
<path fill-rule="evenodd" clip-rule="evenodd" d="M263.596 108.81C263.596 108.555 263.825 108.359 264.097 108.359C264.372 108.359 264.593 108.568 264.593 108.822L264.377 122.821C264.372 123.07 264.151 123.271 263.871 123.271C263.596 123.263 263.383 123.055 263.383 122.808L263.596 108.81Z" fill="#251E17"/>
<path fill-rule="evenodd" clip-rule="evenodd" d="M273.557 108.796C273.557 108.542 273.786 108.341 274.058 108.346C274.333 108.346 274.559 108.554 274.554 108.809L274.338 122.802C274.333 123.054 274.112 123.257 273.832 123.257C273.557 123.25 273.344 123.041 273.344 122.787L273.557 108.796Z" fill="#251E17"/>
<path fill-rule="evenodd" clip-rule="evenodd" d="M281.429 107.63C281.437 107.376 281.663 107.18 281.938 107.188C282.217 107.193 282.431 107.401 282.426 107.656L282.067 119.884C282.06 120.131 281.833 120.332 281.559 120.326C281.279 120.319 281.065 120.11 281.07 119.856L281.429 107.63Z" fill="#251E17"/>
<path fill-rule="evenodd" clip-rule="evenodd" d="M129.277 177.664L99.5098 191.708L120.991 237.251L150.762 223.207L129.277 177.664Z" fill="#D9C8B9"/>
<path fill-rule="evenodd" clip-rule="evenodd" d="M207.778 186.908C205.565 188.099 202.79 187.267 201.6 185.052C200.407 182.837 201.236 180.069 203.456 178.877C214.367 173.004 221.939 170.654 234.467 171.646C236.972 171.847 238.849 174.047 238.653 176.555C238.452 179.065 236.25 180.937 233.745 180.736C223.248 179.907 216.921 181.985 207.778 186.908Z" fill="#D9C8B9"/>
<path fill-rule="evenodd" clip-rule="evenodd" d="M201.94 181.925C199.89 183.38 197.036 182.894 195.584 180.842C194.127 178.79 194.615 175.941 196.665 174.484C205.137 168.482 216.322 162.772 226.01 159.079C228.362 158.186 230.997 159.369 231.897 161.719C232.788 164.069 231.61 166.706 229.252 167.604C220.236 171.038 209.824 176.335 201.94 181.925Z" fill="#D9C8B9"/>
<path fill-rule="evenodd" clip-rule="evenodd" d="M211.646 199.837C209.133 199.699 207.206 197.548 207.343 195.035C207.48 192.522 209.634 190.594 212.147 190.732C221.107 191.225 226.555 190.767 235.202 193.346C237.611 194.066 238.984 196.609 238.269 199.018C237.547 201.431 235.006 202.802 232.598 202.085C224.747 199.742 219.777 200.284 211.646 199.837Z" fill="#D9C8B9"/>
<path fill-rule="evenodd" clip-rule="evenodd" d="M199.802 161.791C201.516 159.947 204.406 159.838 206.25 161.55C208.091 163.259 208.203 166.148 206.489 167.994C202.193 172.633 199.151 178.285 197.068 184.244C196.234 186.619 193.63 187.87 191.254 187.039C188.879 186.205 187.627 183.603 188.462 181.225C190.962 174.088 194.652 167.351 199.802 161.791Z" fill="#D9C8B9"/>
<path fill-rule="evenodd" clip-rule="evenodd" d="M126.518 218.415L144.168 246.198L217.148 199.838L199.498 172.053L126.518 218.415Z" fill="#D9C8B9"/>
<path fill-rule="evenodd" clip-rule="evenodd" d="M210.395 191.417C207.895 191.714 205.624 189.929 205.324 187.431C205.024 184.934 206.814 182.66 209.309 182.36C218.979 181.205 227.474 181.742 237.047 182.892C239.547 183.187 241.329 185.458 241.037 187.955C240.737 190.455 238.466 192.241 235.966 191.946C227.135 190.888 219.309 190.348 210.395 191.417Z" fill="#D9C8B9"/>
<path fill-rule="evenodd" clip-rule="evenodd" d="M83.9302 158.32C83.8132 158.055 83.9302 157.748 84.1896 157.628C84.4566 157.506 84.7644 157.626 84.8814 157.887L100.228 191.693C100.35 191.955 100.228 192.268 99.9657 192.385C99.7063 192.504 99.3935 192.39 99.2765 192.128L83.9302 158.32Z" fill="#251E17"/>
</svg>
