<svg width="324" height="301" viewBox="0 0 324 301" fill="none" xmlns="http://www.w3.org/2000/svg">
<path fill-rule="evenodd" clip-rule="evenodd" d="M162.528 71.2132C223.659 66.8896 256.134 109.373 289.502 182.607C318.656 246.61 231.205 286.273 160.872 286.273C90.5371 286.273 9.24287 245.445 33.3178 179.365C61.2178 102.811 117.87 74.372 162.528 71.2132Z" fill="#8F8174"/>
<path fill-rule="evenodd" clip-rule="evenodd" d="M55.8926 175.701C55.8926 175.663 55.9002 175.617 55.9002 175.577H55.9053C60.6918 175.922 64.9417 172.204 65.992 167.049C66.2896 172.303 69.9621 176.594 74.7486 176.937C74.8071 176.945 74.8707 176.95 74.9368 176.95C74.9292 176.996 74.9292 177.036 74.9241 177.082C74.858 177.075 74.7995 177.067 74.7359 177.062C69.9571 176.716 65.697 180.434 64.6492 185.597C64.3567 180.338 60.6791 176.047 55.9002 175.701H55.8926Z" fill="#251E17"/>
<path fill-rule="evenodd" clip-rule="evenodd" d="M224.398 134.407C224.398 134.377 224.406 134.349 224.406 134.318H224.411C227.753 134.557 230.729 131.966 231.464 128.359C231.665 132.032 234.238 135.033 237.578 135.275C237.624 135.275 237.662 135.28 237.708 135.28C237.708 135.313 237.7 135.338 237.7 135.371C237.657 135.366 237.611 135.359 237.57 135.359C234.231 135.117 231.255 137.716 230.52 141.323C230.312 137.645 227.745 134.649 224.406 134.407H224.398Z" fill="#251E17"/>
<path fill-rule="evenodd" clip-rule="evenodd" d="M133.775 253.683C133.775 253.662 133.775 253.637 133.78 253.616C136.347 253.8 138.625 251.808 139.193 249.041C139.355 251.859 141.321 254.163 143.885 254.346C143.918 254.354 143.951 254.354 143.984 254.354C143.984 254.379 143.984 254.4 143.977 254.425C143.944 254.418 143.913 254.418 143.88 254.412C141.314 254.229 139.035 256.221 138.475 258.988C138.313 256.17 136.339 253.871 133.78 253.683C133.775 253.683 133.775 253.683 133.775 253.683Z" fill="#251E17"/>
<path fill-rule="evenodd" clip-rule="evenodd" d="M109.144 170.251C105.842 175.467 104.365 178.097 99.1433 174.804C93.9295 171.49 93.5506 162.972 95.2114 157.028C97.4698 148.981 98.2837 146.807 102.862 142.196C106.71 138.322 109.736 136.153 114.556 133.544C129.666 125.372 142.629 128.836 152.975 137.827C165.353 148.564 173.342 169.007 175.132 182.818C175.816 188.077 175.966 193.41 176.584 198.678C177.307 204.817 172.904 210.377 166.777 211.102C160.638 211.824 155.078 207.429 154.356 201.29C153.743 196.106 153.601 190.872 152.942 185.694C151.894 177.647 148.033 166.281 141.751 158.382C137.616 153.173 132.14 149.482 125.199 153.231C122.348 154.783 119.953 156.761 117.674 159.066C114.268 162.491 111.722 166.177 109.144 170.251Z" fill="#D9C8B9"/>
<path fill-rule="evenodd" clip-rule="evenodd" d="M130.096 140.607C124.444 143.095 117.829 140.523 115.35 134.872C112.855 129.213 115.428 122.606 121.08 120.118C128.593 116.825 136.472 114.012 144.895 115.027C154.394 116.186 162.833 120.973 169.845 127.873C178.889 136.775 185.504 149.242 189.177 159.672C191.227 165.499 188.159 171.893 182.333 173.937C176.506 175.995 170.112 172.923 168.062 167.096C165.809 160.682 162.124 153.169 157.085 147.047C153.059 142.159 148.222 137.985 142.194 137.25C137.858 136.721 133.964 138.903 130.096 140.607Z" fill="#D9C8B9"/>
<path fill-rule="evenodd" clip-rule="evenodd" d="M152.424 131.323C146.414 129.909 142.683 123.874 144.102 117.864C145.529 111.849 151.556 108.126 157.566 109.537C181.56 115.201 196.761 130.321 205.05 153.14C207.158 158.948 204.165 165.375 198.356 167.471C192.549 169.587 186.123 166.586 184.019 160.785C178.46 145.489 168.505 135.118 152.424 131.323Z" fill="#D9C8B9"/>
<path fill-rule="evenodd" clip-rule="evenodd" d="M168.934 130.281C163.107 128.211 160.058 121.812 162.13 115.99C164.193 110.169 170.607 107.122 176.421 109.192C204.014 118.999 215.212 133.056 224.81 159.646C226.914 165.46 223.897 171.879 218.091 173.97C212.277 176.073 205.863 173.065 203.767 167.251C196.78 147.927 188.98 137.405 168.934 130.281Z" fill="#D9C8B9"/>
<path fill-rule="evenodd" clip-rule="evenodd" d="M153.088 188.535C153.088 188.535 161.193 250.864 177.697 287.61C180.952 294.876 188.018 299.696 195.981 300.064C220.918 301.153 244.148 290.273 265.731 267.836C269.37 264.074 270.23 258.423 267.893 253.741C258.172 234.45 232.78 183.372 225.951 162.993C216.999 136.24 163.772 135.368 153.088 188.535Z" fill="#D9C8B9"/>
<path fill-rule="evenodd" clip-rule="evenodd" d="M115.233 133.403C114.782 133.525 114.32 133.271 114.198 132.823C114.068 132.381 114.327 131.918 114.77 131.788C114.77 131.788 138.944 124.924 157.032 139.522C164.761 145.758 171.394 155.924 174.52 172.26C174.604 172.707 174.306 173.15 173.851 173.236C173.393 173.325 172.95 173.028 172.866 172.573C169.845 156.743 163.464 146.872 155.976 140.824C138.547 126.755 115.233 133.403 115.233 133.403Z" fill="#251E17"/>
<path fill-rule="evenodd" clip-rule="evenodd" d="M143.93 116.121C143.47 116.083 143.137 115.674 143.175 115.211C143.228 114.748 143.638 114.41 144.093 114.455C144.093 114.455 178.946 117.795 191.075 162.109C191.2 162.557 190.933 163.02 190.483 163.144C190.04 163.261 189.577 162.999 189.455 162.552C177.67 119.489 143.93 116.121 143.93 116.121Z" fill="#251E17"/>
<path fill-rule="evenodd" clip-rule="evenodd" d="M164.512 112.877C164.077 112.729 163.843 112.253 163.985 111.816C164.135 111.373 164.611 111.139 165.046 111.29C165.046 111.29 198.864 122.625 207.374 156.22C207.491 156.67 207.219 157.125 206.769 157.237C206.318 157.354 205.863 157.079 205.746 156.632C197.457 123.907 164.512 112.877 164.512 112.877Z" fill="#251E17"/>
<path fill-rule="evenodd" clip-rule="evenodd" d="M76.2901 129.57C76.2901 125.384 72.8922 121.986 68.706 121.986H49.5244C45.3381 121.986 41.9453 125.384 41.9453 129.57V144.736C41.9453 148.922 45.3381 152.313 49.5244 152.313H68.706C72.8922 152.313 76.2901 148.922 76.2901 144.736V129.57Z" fill="#BE8543"/>
<path fill-rule="evenodd" clip-rule="evenodd" d="M65.5753 218.061C65.5753 213.874 62.1749 210.477 57.9886 210.477H38.8095C34.6283 210.477 31.2305 213.874 31.2305 218.061V233.224C31.2305 237.413 34.6283 240.803 38.8095 240.803H57.9886C62.1749 240.803 65.5753 237.413 65.5753 233.224V218.061Z" fill="#BE8543"/>
<path fill-rule="evenodd" clip-rule="evenodd" d="M146.343 74.1115C146.343 69.9252 142.942 66.5273 138.756 66.5273H119.575C115.396 66.5273 111.998 69.9252 111.998 74.1115V89.2747C111.998 93.4559 115.396 96.8537 119.575 96.8537H138.756C142.942 96.8537 146.343 93.4559 146.343 89.2747V74.1115Z" fill="#BE8543"/>
<path fill-rule="evenodd" clip-rule="evenodd" d="M46.8034 132.67C45.9895 131.739 46.0811 130.32 47.0068 129.506C47.9377 128.685 49.3492 128.776 50.1707 129.707L58.3601 139.011L77.9792 116.235C78.7854 115.299 80.1969 115.195 81.1354 116.001C82.0739 116.81 82.1782 118.222 81.3694 119.16L60.0794 143.881C59.6572 144.377 59.0443 144.662 58.3932 144.662C57.7497 144.67 57.1292 144.39 56.6994 143.902L46.8034 132.67Z" fill="#251E17"/>
<path fill-rule="evenodd" clip-rule="evenodd" d="M36.093 221.153C35.2715 220.23 35.363 218.81 36.2888 217.997C37.2197 217.175 38.6388 217.267 39.4527 218.198L47.6498 227.501L67.2612 204.726C68.0674 203.79 69.4815 203.685 70.4174 204.492C71.3559 205.3 71.4602 206.712 70.6539 207.65L49.3614 232.371C48.9392 232.867 48.3263 233.147 47.6752 233.152C47.0317 233.152 46.4137 232.88 45.9839 232.392L36.093 221.153Z" fill="#251E17"/>
<path fill-rule="evenodd" clip-rule="evenodd" d="M116.852 77.2037C116.033 76.2804 116.125 74.8613 117.056 74.0474C117.979 73.2259 119.398 73.3175 120.212 74.2483L128.409 83.5517L148.02 60.7765C148.826 59.8405 150.248 59.7362 151.184 60.5425C152.115 61.3512 152.227 62.7628 151.418 63.7013L130.128 88.4222C129.706 88.9181 129.088 89.1979 128.442 89.203C127.791 89.203 127.178 88.9308 126.748 88.4425L116.852 77.2037Z" fill="#251E17"/>
<path fill-rule="evenodd" clip-rule="evenodd" d="M67.0204 193.227L46.707 231.981L89.5083 221.419L67.0204 193.227Z" fill="#FFFAF8"/>
<path fill-rule="evenodd" clip-rule="evenodd" d="M54.1466 217.768C57.2596 219.52 60.9957 222.775 61.217 228.394L46.6973 231.974L54.1466 217.768Z" fill="#3B332C"/>
<path fill-rule="evenodd" clip-rule="evenodd" d="M214.707 122.317C222.433 116.205 223.748 104.979 217.637 97.245C214.653 93.4758 210.297 91.0394 205.526 90.4875C200.747 89.9254 195.947 91.2861 192.178 94.2694C156.61 122.396 66.5898 193.585 66.5898 193.585L88.9023 221.803L214.707 122.317Z" fill="#3B332C"/>
<path fill-rule="evenodd" clip-rule="evenodd" d="M184.293 100.505L196.572 90.7919C202.002 86.5014 209.874 87.4195 214.164 92.8418L221.097 101.614C225.299 106.932 224.398 114.648 219.08 118.855L205.98 129.211L184.293 100.505Z" fill="#693E00"/>
<path fill-rule="evenodd" clip-rule="evenodd" d="M116.352 186.761C112.087 182.303 112.237 175.212 116.698 170.942C121.156 166.677 128.255 166.827 132.52 171.285C152.396 192.049 162.437 183.839 186.005 191.685C191.865 193.631 195.675 207.629 193.722 213.489C191.774 219.349 176.995 230.906 171.142 228.952C143.425 219.728 139.727 211.185 116.352 186.761Z" fill="#D9C8B9"/>
</svg>
