<svg width="324" height="300" viewBox="0 0 324 300" fill="none" xmlns="http://www.w3.org/2000/svg">
<path fill-rule="evenodd" clip-rule="evenodd" d="M162.423 24.3412C227.626 19.4426 262.264 67.5756 297.855 150.549C328.951 223.063 235.674 268 160.657 268C85.6362 268 -1.07322 221.743 24.6054 146.875C54.364 60.1412 114.79 27.92 162.423 24.3412Z" fill="#8F8174"/>
<path d="M124.444 120.189C115.381 127.88 112.334 139.165 116.32 147.366C119.055 152.988 124.344 155.614 126.682 156.595L149.485 151.152L143.743 129.117L124.444 120.189Z" fill="black"/>
<path d="M186.295 92.5908C192.953 113.469 202.336 121.905 210.048 125.643C214.502 127.803 220.162 129.25 225.105 134.85C230.442 140.899 231.923 148.365 232.313 153.855L177.882 149.404L166.625 96.2964L186.295 92.5908Z" fill="black"/>
<path d="M137.569 75.3743L154.087 72.2563C161.472 70.8623 169.114 72.4283 175.333 76.6099C181.551 80.7915 185.836 87.2461 187.244 94.5538L188.572 101.44L123.21 113.794L120.538 101.346C119.424 95.5599 119.863 89.5774 123.21 84.7061C126.556 79.8347 131.721 76.4781 137.569 75.3743Z" fill="black"/>
<path d="M179.27 114.552C179.07 112.239 177.957 110.097 176.171 108.592C174.385 107.087 172.071 106.34 169.732 106.513L167.468 94.7204C165.983 86.8245 158.405 81.628 150.581 83.1153L128.859 87.2505C122.969 88.3743 119.116 94.1034 120.248 100.049L125.296 126.542C127.092 135.951 136.099 142.143 145.415 140.369L146.421 140.178L149.223 154.868L177.919 149.404L174.605 132.011H174.575L173.05 123.931C175.02 123.316 176.715 122.047 177.848 120.338C178.982 118.629 179.484 116.585 179.27 114.552Z" fill="#D9C8B9"/>
<path d="M170.688 118.937C170.107 118.936 169.539 118.769 169.052 118.455C168.566 118.141 168.182 117.694 167.947 117.168C167.712 116.643 167.637 116.061 167.73 115.493C167.823 114.926 168.081 114.398 168.472 113.973C168.863 113.547 169.37 113.244 169.932 113.098C170.494 112.953 171.086 112.972 171.637 113.154C172.188 113.335 172.674 113.671 173.036 114.121C173.398 114.571 173.62 115.114 173.675 115.687C173.751 116.469 173.51 117.249 173.004 117.856C172.499 118.462 171.771 118.846 170.981 118.922C170.884 118.932 170.786 118.937 170.688 118.937ZM170.688 114.471H170.539C170.341 114.49 170.148 114.547 169.973 114.64C169.797 114.732 169.641 114.858 169.515 115.011C169.323 115.239 169.205 115.519 169.174 115.814C169.144 116.109 169.203 116.406 169.343 116.668C169.484 116.93 169.701 117.145 169.965 117.284C170.23 117.424 170.53 117.483 170.829 117.453C171.228 117.415 171.596 117.221 171.852 116.915C172.107 116.608 172.229 116.214 172.191 115.819C172.151 115.423 171.955 115.059 171.645 114.805C171.377 114.589 171.041 114.471 170.695 114.471H170.688Z" fill="black"/>
<path d="M168.64 117.629C168.482 117.629 168.327 117.579 168.2 117.485C168.072 117.392 167.978 117.261 167.931 117.111C167.659 116.226 167.626 115.285 167.835 114.383C168.045 113.48 168.49 112.648 169.126 111.97C171.03 109.961 173.651 110.346 173.951 110.398C174.048 110.414 174.14 110.449 174.222 110.501C174.305 110.552 174.377 110.62 174.433 110.699C174.489 110.778 174.529 110.867 174.551 110.961C174.572 111.056 174.574 111.153 174.558 111.249C174.541 111.344 174.505 111.435 174.452 111.516C174.4 111.598 174.332 111.669 174.252 111.724C174.171 111.779 174.081 111.819 173.986 111.839C173.89 111.86 173.791 111.862 173.695 111.845C173.61 111.845 171.617 111.503 170.221 112.976C169.762 113.465 169.441 114.066 169.29 114.717C169.138 115.368 169.163 116.046 169.36 116.685C169.389 116.777 169.399 116.875 169.39 116.971C169.38 117.067 169.352 117.16 169.306 117.246C169.26 117.331 169.198 117.406 169.122 117.468C169.047 117.529 168.96 117.575 168.867 117.603C168.793 117.624 168.717 117.632 168.64 117.629Z" fill="black"/>
<path d="M129.022 117.762C129.981 117.762 130.759 116.992 130.759 116.043C130.759 115.094 129.981 114.324 129.022 114.324C128.063 114.324 127.285 115.094 127.285 116.043C127.285 116.992 128.063 117.762 129.022 117.762Z" fill="black"/>
<path d="M146.131 114.254C147.091 114.254 147.868 113.484 147.868 112.535C147.868 111.586 147.091 110.816 146.131 110.816C145.172 110.816 144.395 111.586 144.395 112.535C144.395 113.484 145.172 114.254 146.131 114.254Z" fill="black"/>
<path d="M137.095 122.073H136.988C135.681 121.885 134.323 121.562 134.134 120.538C134.108 120.343 134.122 120.145 134.175 119.956C134.228 119.767 134.318 119.59 134.442 119.436C134.512 119.326 134.594 119.194 134.683 119.021C135.01 118.371 135.139 117.641 135.054 116.92L134.301 109.483C134.291 109.387 134.3 109.29 134.329 109.197C134.357 109.104 134.403 109.018 134.465 108.943C134.528 108.868 134.604 108.805 134.69 108.76C134.777 108.714 134.871 108.685 134.969 108.676C135.066 108.666 135.165 108.675 135.258 108.703C135.352 108.731 135.439 108.777 135.515 108.839C135.591 108.9 135.654 108.976 135.7 109.061C135.747 109.147 135.775 109.24 135.785 109.337L136.527 116.784C136.642 117.779 136.464 118.785 136.015 119.682C135.893 119.917 135.789 120.082 135.703 120.222V120.248C136.186 120.442 136.695 120.565 137.214 120.615C137.411 120.628 137.594 120.719 137.724 120.866C137.853 121.014 137.918 121.206 137.904 121.401C137.891 121.595 137.799 121.777 137.65 121.905C137.501 122.033 137.307 122.097 137.11 122.084L137.095 122.073Z" fill="black"/>
<path d="M140.052 129.315C139.165 129.309 138.287 129.153 137.454 128.852C137.27 128.779 137.123 128.637 137.045 128.457C136.967 128.276 136.964 128.072 137.038 127.89C137.112 127.708 137.256 127.563 137.438 127.485C137.621 127.408 137.826 127.406 138.01 127.479C138.04 127.479 140.037 128.254 141.722 127.527C142.181 127.311 142.59 127.003 142.923 126.624C143.257 126.245 143.509 125.802 143.663 125.323C143.698 125.233 143.75 125.151 143.817 125.08C143.884 125.01 143.965 124.954 144.054 124.915C144.143 124.875 144.239 124.854 144.337 124.851C144.434 124.848 144.531 124.865 144.622 124.899C144.713 124.934 144.797 124.985 144.868 125.052C144.939 125.118 144.996 125.198 145.035 125.286C145.075 125.374 145.097 125.469 145.1 125.566C145.102 125.662 145.086 125.758 145.051 125.848C144.826 126.509 144.466 127.117 143.994 127.635C143.523 128.153 142.949 128.57 142.308 128.86C141.596 129.165 140.828 129.32 140.052 129.315Z" fill="black"/>
<path d="M103.886 266.482L143.735 267.507L229.211 269.71C221.133 228.108 213.054 186.508 204.976 144.908C182.016 146.35 159.167 149.182 136.557 153.388C136.082 153.476 134.003 153.755 131.242 154.28C122.465 156.006 109.308 158.592 102.861 165.739C96.897 172.349 97.4092 182.041 97.8991 189.452C99.4356 212.68 101.328 238.296 103.886 266.482Z" fill="#693E00"/>
<path d="M185.398 84.5441C193.331 84.5441 199.761 78.181 199.761 70.3316C199.761 62.4823 193.331 56.1191 185.398 56.1191C177.466 56.1191 171.035 62.4823 171.035 70.3316C171.035 78.181 177.466 84.5441 185.398 84.5441Z" fill="black"/>
<path d="M261.872 273.016L210.655 286.446L178.34 148.331L203.548 144.74C213.185 143.37 222.985 145.741 230.895 151.358C238.805 156.976 244.214 165.403 245.987 174.876L261.872 273.016Z" fill="#693E00"/>
<path d="M146.301 140.203L161.026 137.009C161.121 136.987 161.221 137 161.308 137.046C161.395 137.092 161.462 137.167 161.498 137.259C161.533 137.35 161.535 137.451 161.502 137.544C161.47 137.636 161.405 137.714 161.32 137.762L147.357 146.055L146.301 140.203Z" fill="#50453A"/>
<path d="M180.617 155.757L147.664 160.899L145.114 147.215C145 146.607 145.134 145.979 145.486 145.468C145.839 144.958 146.382 144.606 146.996 144.49L174.163 139.349C174.757 139.236 175.372 139.352 175.882 139.674C176.392 139.995 176.758 140.498 176.906 141.078L180.617 155.757Z" fill="#693E00"/>
<path d="M184.363 213.359L196.454 205.432C200.628 202.694 205.731 201.71 210.639 202.695C215.548 203.681 219.859 206.555 222.626 210.686L258.608 264.42C261.63 268.931 262.716 274.446 261.628 279.751C260.541 285.055 257.368 289.715 252.808 292.704C245.813 297.292 237.262 298.941 229.037 297.289C220.812 295.638 213.588 290.821 208.952 283.899L179.056 239.255C176.29 235.124 175.295 230.076 176.29 225.22C177.286 220.363 180.189 216.097 184.363 213.359Z" fill="#693E00"/>
<path d="M156.66 153.307C156.481 153.309 156.307 153.247 156.17 153.131C156.034 153.016 155.944 152.855 155.918 152.679L154.582 143.638C154.553 143.443 154.604 143.245 154.723 143.087C154.842 142.929 155.02 142.825 155.217 142.797C155.413 142.769 155.614 142.819 155.773 142.937C155.932 143.054 156.038 143.23 156.067 143.425L157.399 152.452C157.413 152.547 157.408 152.645 157.384 152.738C157.36 152.832 157.318 152.92 157.26 152.997C157.202 153.075 157.129 153.14 157.045 153.189C156.961 153.239 156.868 153.271 156.772 153.285L156.66 153.307Z" fill="black"/>
<path d="M166.863 151.372C166.683 151.374 166.509 151.311 166.373 151.196C166.236 151.08 166.147 150.92 166.121 150.744L164.773 141.702C164.759 141.606 164.764 141.507 164.789 141.413C164.813 141.319 164.856 141.23 164.915 141.152C164.974 141.074 165.048 141.008 165.132 140.958C165.217 140.908 165.311 140.875 165.408 140.861C165.506 140.847 165.605 140.852 165.7 140.876C165.796 140.9 165.886 140.943 165.964 141.001C166.043 141.059 166.11 141.132 166.16 141.216C166.211 141.3 166.244 141.393 166.258 141.489L167.605 150.531C167.617 150.627 167.61 150.724 167.584 150.817C167.558 150.91 167.514 150.997 167.454 151.073C167.394 151.149 167.319 151.212 167.234 151.26C167.15 151.307 167.056 151.338 166.959 151.35L166.863 151.372Z" fill="black"/>
<path d="M249.448 251.477C249.325 251.477 249.204 251.446 249.096 251.389C248.988 251.331 248.896 251.248 248.828 251.146L223.624 213.511C222.414 211.527 218.948 206.764 212.601 204.788C209.465 203.83 206.136 203.666 202.918 204.311C202.822 204.333 202.722 204.335 202.624 204.318C202.527 204.301 202.434 204.265 202.351 204.211C202.268 204.158 202.196 204.089 202.14 204.008C202.085 203.927 202.046 203.836 202.026 203.74C202.007 203.644 202.007 203.545 202.027 203.449C202.046 203.353 202.085 203.262 202.141 203.181C202.197 203.1 202.268 203.031 202.351 202.978C202.435 202.925 202.528 202.888 202.625 202.871C206.087 202.176 209.669 202.354 213.043 203.389C219.876 205.512 223.594 210.628 224.879 212.725L250.064 250.335C250.173 250.497 250.212 250.695 250.173 250.886C250.134 251.076 250.02 251.244 249.856 251.352C249.735 251.432 249.593 251.476 249.448 251.477Z" fill="black"/>
<path d="M198.855 269.568C198.732 269.568 198.611 269.537 198.503 269.48C198.395 269.422 198.303 269.339 198.236 269.237L184.073 248.087C183.498 247.224 182.856 246.324 182.054 245.256C176.353 237.643 175.522 232.711 175.451 232.226C173.102 221.135 179.679 216.434 179.961 216.251C180.122 216.138 180.322 216.095 180.516 216.128C180.71 216.162 180.883 216.271 180.996 216.43C181.109 216.59 181.154 216.788 181.12 216.98C181.086 217.172 180.976 217.343 180.814 217.455C180.555 217.635 174.757 221.84 176.91 231.95V232.005C176.91 232.053 177.619 236.875 183.219 244.382C184.036 245.483 184.704 246.391 185.283 247.276L199.449 268.425C199.524 268.536 199.567 268.665 199.573 268.798C199.58 268.931 199.549 269.063 199.486 269.181C199.422 269.298 199.327 269.396 199.212 269.464C199.096 269.532 198.964 269.568 198.829 269.568H198.855Z" fill="black"/>
<path d="M144.762 292.006H92.3832L89.4141 276.629H149.182L144.762 292.006ZM93.6116 290.537H143.641L147.215 278.098H91.2029L93.6116 290.537Z" fill="#FFFAF8"/>
<path d="M117.988 292.006C117.792 292.006 117.603 291.929 117.464 291.791C117.324 291.653 117.246 291.467 117.246 291.272V277.375C117.246 277.18 117.324 276.994 117.464 276.856C117.603 276.718 117.792 276.641 117.988 276.641C118.185 276.641 118.374 276.718 118.513 276.856C118.652 276.994 118.731 277.18 118.731 277.375V291.272C118.731 291.467 118.652 291.653 118.513 291.791C118.374 291.929 118.185 292.006 117.988 292.006Z" fill="#FFFAF8"/>
<path d="M94.5577 295.535C96.9088 295.535 98.8147 293.633 98.8147 291.286C98.8147 288.939 96.9088 287.037 94.5577 287.037C92.2067 287.037 90.3008 288.939 90.3008 291.286C90.3008 293.633 92.2067 295.535 94.5577 295.535Z" fill="#FFFAF8"/>
<path d="M118.021 295.535C120.392 295.535 122.315 293.633 122.315 291.286C122.315 288.939 120.392 287.037 118.021 287.037C115.649 287.037 113.727 288.939 113.727 291.286C113.727 293.633 115.649 295.535 118.021 295.535Z" fill="#FFFAF8"/>
<path d="M142.57 295.535C144.919 295.535 146.823 293.633 146.823 291.286C146.823 288.939 144.919 287.037 142.57 287.037C140.221 287.037 138.316 288.939 138.316 291.286C138.316 293.633 140.221 295.535 142.57 295.535Z" fill="#FFFAF8"/>
<path d="M159.602 244.999C159.441 244.999 159.284 244.946 159.157 244.848C159 244.731 158.897 244.556 158.869 244.364C158.842 244.171 158.894 243.975 159.012 243.82L167.815 232.343C167.962 232.148 168.051 231.915 168.071 231.673C168.092 231.43 168.045 231.186 167.934 230.969C167.823 230.752 167.653 230.569 167.444 230.441C167.234 230.314 166.993 230.246 166.747 230.246H139.965C139.282 230.246 138.609 230.41 138.003 230.723C137.397 231.036 136.877 231.49 136.488 232.046L132.65 237.522C132.595 237.601 132.524 237.669 132.442 237.721C132.36 237.773 132.268 237.809 132.172 237.826C132.076 237.843 131.978 237.842 131.882 237.821C131.787 237.801 131.697 237.762 131.617 237.707C131.536 237.652 131.468 237.582 131.415 237.501C131.362 237.42 131.326 237.329 131.309 237.234C131.291 237.139 131.293 237.042 131.314 236.947C131.334 236.853 131.374 236.764 131.429 236.684L135.267 231.209C135.793 230.458 136.496 229.845 137.314 229.422C138.132 228.998 139.042 228.777 139.965 228.777H166.747C167.269 228.777 167.781 228.92 168.226 229.191C168.671 229.462 169.031 229.851 169.265 230.313C169.499 230.775 169.599 231.292 169.553 231.807C169.506 232.322 169.316 232.814 169.003 233.228L160.196 244.709C160.127 244.799 160.037 244.872 159.934 244.923C159.831 244.973 159.717 244.999 159.602 244.999Z" fill="black"/>
<path d="M94.4611 269.266L82.7332 237.881C82.3757 236.922 82.4173 235.863 82.8487 234.935C83.2801 234.006 84.0662 233.286 85.0342 232.93L102.686 226.471C103.165 226.295 103.675 226.215 104.187 226.234C104.698 226.254 105.2 226.373 105.665 226.585C106.129 226.797 106.547 227.097 106.894 227.469C107.242 227.84 107.511 228.276 107.688 228.751L118.641 258.061C119.203 259.569 119.138 261.237 118.458 262.698C117.779 264.158 116.542 265.292 115.018 265.851L99.4641 271.543C98.9845 271.719 98.4746 271.799 97.9636 271.78C97.4526 271.76 96.9505 271.641 96.4859 271.43C96.0213 271.218 95.6034 270.919 95.256 270.547C94.9085 270.176 94.6385 269.741 94.4611 269.266Z" fill="#FFFAF8"/>
<path d="M98.1107 272.52C97.1642 272.515 96.2416 272.226 95.4654 271.69C94.6892 271.154 94.096 270.397 93.7647 269.52L82.0368 238.135C81.6148 236.996 81.6666 235.737 82.1808 234.636C82.6949 233.534 83.6294 232.68 84.7795 232.259L102.431 225.799C103.584 225.378 104.859 225.426 105.976 225.934C107.093 226.443 107.96 227.369 108.388 228.509L119.34 257.819C119.971 259.51 119.897 261.38 119.136 263.017C118.375 264.655 116.988 265.926 115.28 266.552L99.7215 272.245C99.2056 272.431 98.66 272.525 98.1107 272.52ZM104.049 226.981C103.669 226.98 103.292 227.046 102.936 227.176L85.3102 233.614C84.5274 233.902 83.8923 234.486 83.5443 235.237C83.1964 235.988 83.164 236.846 83.4545 237.621L95.1825 269.002C95.4745 269.776 96.0646 270.404 96.8236 270.748C97.5826 271.092 98.4485 271.125 99.2316 270.838L114.79 265.146C116.129 264.656 117.217 263.659 117.815 262.376C118.412 261.092 118.469 259.626 117.974 258.3L107.018 228.99C106.795 228.393 106.393 227.878 105.866 227.513C105.338 227.149 104.711 226.953 104.067 226.952L104.049 226.981Z" fill="#FFFAF8"/>
<path d="M137.269 269.604L107.363 253.988C106.907 253.753 106.504 253.431 106.175 253.041C105.846 252.651 105.598 252.2 105.445 251.715C105.293 251.229 105.239 250.719 105.286 250.213C105.334 249.707 105.482 249.215 105.722 248.766L114.507 232.295C114.745 231.846 115.071 231.447 115.464 231.123C115.858 230.798 116.313 230.553 116.803 230.403C117.292 230.253 117.807 230.199 118.317 230.246C118.828 230.293 119.324 230.439 119.777 230.675L147.705 245.259C149.142 246.01 150.219 247.295 150.7 248.831C151.18 250.367 151.024 252.029 150.266 253.452L142.524 267.969C142.288 268.418 141.964 268.817 141.572 269.142C141.18 269.467 140.727 269.712 140.239 269.864C139.751 270.016 139.237 270.071 138.728 270.026C138.218 269.982 137.722 269.838 137.269 269.604Z" fill="black"/>
<path d="M139.075 270.768C138.323 270.769 137.583 270.587 136.919 270.24L107.012 254.624C105.926 254.055 105.112 253.083 104.749 251.92C104.387 250.758 104.505 249.501 105.079 248.425L113.86 231.954C114.435 230.879 115.417 230.073 116.592 229.714C117.766 229.355 119.037 229.471 120.125 230.037L148.056 244.631C149.665 245.475 150.87 246.915 151.407 248.636C151.945 250.356 151.772 252.218 150.925 253.813L143.183 268.326C142.788 269.065 142.197 269.683 141.473 270.113C140.749 270.544 139.92 270.77 139.075 270.768ZM137.613 268.932C138.352 269.317 139.216 269.396 140.014 269.151C140.812 268.907 141.479 268.359 141.87 267.628L149.612 253.115C150.276 251.864 150.412 250.404 149.99 249.054C149.569 247.704 148.624 246.575 147.362 245.913L119.431 231.337C119.065 231.146 118.664 231.028 118.252 230.99C117.84 230.952 117.425 230.995 117.029 231.116C116.634 231.237 116.267 231.434 115.948 231.696C115.63 231.957 115.367 232.278 115.174 232.641L106.389 249.112C106.001 249.844 105.922 250.698 106.169 251.487C106.416 252.276 106.969 252.937 107.706 253.324L137.613 268.932Z" fill="black"/>
<path d="M156.03 242.582H86.1109C85.5949 242.582 85.0853 242.696 84.6198 242.916C84.1543 243.137 83.7447 243.458 83.4213 243.856C83.0978 244.254 82.8688 244.718 82.7511 245.215C82.6333 245.713 82.6299 246.23 82.741 246.728L89.7926 278.37H148.77L159.411 247.246C159.592 246.715 159.643 246.148 159.559 245.593C159.476 245.039 159.26 244.512 158.929 244.056C158.599 243.6 158.164 243.229 157.659 242.972C157.155 242.716 156.596 242.582 156.03 242.582Z" fill="#BE8543"/>
<path d="M117.988 274.102C117.792 274.102 117.603 274.025 117.464 273.887C117.324 273.749 117.246 273.563 117.246 273.368V246.559C117.246 246.364 117.324 246.177 117.464 246.039C117.603 245.902 117.792 245.824 117.988 245.824C118.185 245.824 118.374 245.902 118.513 246.039C118.652 246.177 118.731 246.364 118.731 246.559V273.368C118.731 273.563 118.652 273.749 118.513 273.887C118.374 274.025 118.185 274.102 117.988 274.102Z" fill="black"/>
<path d="M176.755 105.998L161.587 108.936C158.696 109.101 155.857 108.122 153.695 106.216C151.534 104.31 150.226 101.632 150.059 98.771L149.848 95.1609L172.947 90.4785L176.755 105.998Z" fill="black"/>
<path d="M122.441 87.4346L173.313 77.8321L176.33 93.4847L141.277 100.101C137.082 100.893 132.741 100.004 129.208 97.6281C125.676 95.2526 123.242 91.5859 122.441 87.4346Z" fill="black"/>
<path d="M112.741 197.596C112.332 193.196 115.566 189.298 119.966 188.889L161.796 185L164.042 209.147C164.451 213.546 161.216 217.444 156.817 217.853L122.951 221.002C118.552 221.411 114.654 218.176 114.245 213.777L112.741 197.596Z" fill="#FFFAF8"/>
<path d="M122.782 201.558C122.585 201.568 122.392 201.501 122.246 201.37C122.099 201.24 122.011 201.057 122.001 200.862C121.991 200.667 122.059 200.476 122.191 200.331C122.323 200.186 122.507 200.099 122.704 200.089L151.98 197.004C152.177 196.984 152.374 197.041 152.527 197.165C152.681 197.288 152.779 197.467 152.8 197.661C152.821 197.856 152.762 198.051 152.638 198.203C152.513 198.356 152.332 198.453 152.136 198.473L122.86 201.558H122.782Z" fill="black"/>
<path d="M123.888 209.27C123.79 209.275 123.693 209.261 123.601 209.229C123.509 209.196 123.424 209.147 123.351 209.082C123.279 209.017 123.22 208.939 123.178 208.852C123.136 208.765 123.112 208.67 123.106 208.574C123.101 208.477 123.116 208.381 123.148 208.29C123.181 208.199 123.231 208.115 123.296 208.043C123.362 207.971 123.441 207.913 123.529 207.872C123.617 207.83 123.712 207.806 123.81 207.801L153.085 204.716C153.183 204.706 153.281 204.715 153.375 204.742C153.469 204.77 153.557 204.816 153.633 204.877C153.709 204.938 153.772 205.013 153.819 205.098C153.866 205.183 153.895 205.277 153.905 205.373C153.916 205.47 153.907 205.567 153.879 205.66C153.851 205.753 153.805 205.84 153.743 205.915C153.681 205.991 153.605 206.053 153.519 206.1C153.433 206.146 153.338 206.175 153.241 206.185L123.966 209.27H123.888Z" fill="black"/>
<path d="M165.471 194.013H154.182C153.39 194.007 152.601 194.089 151.828 194.259C150.27 194.626 148.295 195.467 149.119 197.454C149.309 197.891 149.586 198.285 149.933 198.613C150.279 198.942 150.689 199.199 151.138 199.368C154.909 200.837 168.24 206.191 171.202 209.129L180.755 217.208L202.856 204.355C199.982 198.804 196.533 193.563 192.565 188.717C188.779 184.101 184.158 178.372 178.691 175.673C175.696 174.204 172.159 174.149 168.919 174.644C164.993 175.248 161.109 176.092 157.288 177.171C153.948 178.126 150.53 179.158 148.009 181.685L144.272 185.049C144.088 185.202 143.958 185.411 143.904 185.643C143.849 185.876 143.873 186.119 143.97 186.338C144.068 186.556 144.234 186.737 144.444 186.853C144.655 186.97 144.898 187.016 145.137 186.984L161.222 185.475C162.042 185.398 162.865 185.575 163.578 185.983C164.291 186.39 164.858 187.007 165.201 187.748L167.008 191.663C167.125 191.916 167.176 192.195 167.156 192.474C167.135 192.752 167.044 193.021 166.891 193.255C166.738 193.489 166.528 193.681 166.279 193.814C166.031 193.946 165.753 194.015 165.471 194.013Z" fill="#D9C8B9"/>
<path d="M181.171 188.413C181.033 188.413 180.898 188.376 180.781 188.304C180.663 188.233 180.568 188.131 180.506 188.009C177.537 182.082 173.959 179.056 171.491 177.557C168.83 175.938 166.845 175.721 166.822 175.721C166.626 175.701 166.445 175.604 166.32 175.453C166.195 175.301 166.136 175.106 166.156 174.911C166.176 174.716 166.274 174.537 166.427 174.414C166.581 174.29 166.778 174.232 166.975 174.252C167.346 174.289 175.748 175.269 181.82 187.359C181.908 187.533 181.922 187.735 181.859 187.92C181.796 188.104 181.662 188.256 181.486 188.343C181.388 188.39 181.28 188.414 181.171 188.413Z" fill="black"/>
<path d="M84.2269 25H49.7731C42.7187 25 37 30.7187 37 37.7731V72.2269C37 79.2813 42.7187 85 49.7731 85H84.2269C91.2813 85 97 79.2813 97 72.2269V37.7731C97 30.7187 91.2813 25 84.2269 25Z" fill="#FFFAF8"/>
<path d="M77.0128 43.5176H57.1727C53.9556 43.5176 51.3477 46.1256 51.3477 49.3427V65.4953C51.3477 68.7124 53.9556 71.3204 57.1727 71.3204H77.0128C80.2299 71.3204 82.8379 68.7124 82.8379 65.4953V49.3427C82.8379 46.1256 80.2299 43.5176 77.0128 43.5176Z" fill="#50453A"/>
<path d="M82.8274 53.945H51.3438C50.9895 53.945 50.6497 53.8043 50.3991 53.5537C50.1486 53.3031 50.0078 52.9633 50.0078 52.609C50.0078 52.2546 50.1486 51.9148 50.3991 51.6643C50.6497 51.4137 50.9895 51.2729 51.3438 51.2729H82.8274C83.1817 51.2729 83.5216 51.4137 83.7721 51.6643C84.0227 51.9148 84.1634 52.2546 84.1634 52.609C84.1634 52.9633 84.0227 53.3031 83.7721 53.5537C83.5216 53.8043 83.1817 53.945 82.8274 53.945Z" fill="#8F8174"/>
<path d="M69.1592 44.8543H67.0816C58.9986 44.8543 56.6606 41.9418 56.1195 39.5102C56.0126 39.0238 56.0122 38.52 56.1183 38.0334C56.2244 37.5469 56.4344 37.089 56.7341 36.6912C57.0284 36.2945 57.4055 35.9665 57.8392 35.7301C58.273 35.4936 58.7529 35.3543 59.2458 35.3218C64.5899 34.9477 68.1505 42.6699 68.2974 42.9705L69.1592 44.8543ZM59.6132 37.9738H59.4262C59.3171 37.9822 59.2111 38.014 59.1155 38.067C59.0198 38.12 58.9367 38.193 58.8717 38.2811C58.8038 38.3704 58.7561 38.4734 58.7318 38.5829C58.7076 38.6925 58.7075 38.8061 58.7314 38.9157C59.1189 40.6659 61.2298 41.7547 64.7436 42.0754C63.5478 40.1849 61.6373 37.9738 59.6132 37.9738Z" fill="#8F8174"/>
<path d="M66.9732 44.8547H64.9023L65.7574 42.9643C65.911 42.6369 69.4649 34.9481 74.809 35.3155C75.304 35.3498 75.7859 35.4905 76.2215 35.7282C76.6571 35.9658 77.0364 36.2947 77.3332 36.6924C77.63 37.0901 77.8375 37.5471 77.9414 38.0324C78.0453 38.5176 78.0432 39.0196 77.9353 39.5039C77.4009 41.9422 75.0628 44.8547 66.9732 44.8547ZM74.4483 37.9742C72.4442 37.9742 70.5203 40.2054 69.3045 42.0825C72.8317 41.7618 74.9426 40.673 75.3167 38.9228C75.3406 38.8131 75.3405 38.6996 75.3163 38.59C75.292 38.4805 75.2443 38.3775 75.1764 38.2882C75.1107 38.1993 75.0266 38.1258 74.9297 38.0727C74.8328 38.0197 74.7255 37.9883 74.6153 37.9809L74.4483 37.9742Z" fill="#8F8174"/>
<path d="M75.481 59.6443C75.2456 59.6453 75.0141 59.584 74.8099 59.4667C74.6058 59.3493 74.4363 59.1802 74.3186 58.9763L66.9037 46.1905L59.8561 58.482C59.7684 58.6342 59.6516 58.7676 59.5123 58.8746C59.373 58.9817 59.2139 59.0603 59.0443 59.1059C58.8746 59.1514 58.6977 59.1632 58.5235 59.1404C58.3493 59.1176 58.1813 59.0607 58.0291 58.973C57.8769 58.8852 57.7434 58.7684 57.6364 58.6291C57.5294 58.4898 57.4508 58.3308 57.4052 58.1611C57.3596 57.9915 57.3479 57.8145 57.3707 57.6403C57.3935 57.4661 57.4504 57.2981 57.5381 57.1459L66.8903 40.833L76.63 57.6336C76.8074 57.9394 76.8564 58.303 76.7662 58.6448C76.6761 58.9866 76.4541 59.2788 76.149 59.4573C75.9467 59.5774 75.7162 59.6419 75.481 59.6443Z" fill="#8F8174"/>
<path d="M67.2229 72.6508C66.8685 72.6508 66.5287 72.5101 66.2781 72.2595C66.0275 72.009 65.8867 71.6692 65.8867 71.3148V44.4005C65.8867 44.0461 66.0275 43.7063 66.2781 43.4558C66.5287 43.2052 66.8685 43.0645 67.2229 43.0645C67.5773 43.0645 67.9171 43.2052 68.1677 43.4558C68.4183 43.7063 68.559 44.0461 68.559 44.4005V71.3148C68.559 71.4903 68.5245 71.664 68.4574 71.8261C68.3902 71.9882 68.2918 72.1355 68.1677 72.2595C68.0436 72.3836 67.8963 72.482 67.7342 72.5491C67.5721 72.6163 67.3984 72.6508 67.2229 72.6508Z" fill="#8F8174"/>
<path d="M301.227 78H266.773C259.719 78 254 83.7187 254 90.7731V125.227C254 132.281 259.719 138 266.773 138H301.227C308.281 138 314 132.281 314 125.227V90.7731C314 83.7187 308.281 78 301.227 78Z" fill="#FFFAF8"/>
<path d="M278.614 98.0114C278.422 98.0114 278.237 97.9369 278.1 97.8035C277.963 97.6702 277.883 97.4887 277.878 97.2978C277.808 94.3189 278.915 92.5403 279.861 91.5705C280.903 90.4735 282.338 89.8293 283.855 89.7773H283.896C285.36 89.8081 286.754 90.4131 287.772 91.4608C288.736 92.4232 289.88 94.2164 289.843 97.2868C289.843 97.4809 289.766 97.6671 289.628 97.8043C289.49 97.9416 289.303 98.0187 289.108 98.0187C288.912 98.0187 288.725 97.9416 288.587 97.8043C288.449 97.6671 288.372 97.4809 288.372 97.2868C288.401 94.7251 287.497 93.2613 286.731 92.511C285.984 91.7438 284.966 91.2952 283.892 91.2595H283.866C282.746 91.3092 281.69 91.7925 280.924 92.6062C279.853 93.7041 279.309 95.3216 279.357 97.2795C279.359 97.3756 279.343 97.4713 279.308 97.561C279.273 97.6507 279.221 97.7328 279.154 97.8024C279.088 97.8721 279.008 97.928 278.92 97.967C278.831 98.006 278.736 98.0273 278.64 98.0297L278.614 98.0114Z" fill="black"/>
<path d="M294.521 126.223H273.489C272.974 126.223 272.465 126.113 271.996 125.901C271.527 125.689 271.109 125.38 270.77 124.995C270.431 124.609 270.178 124.156 270.029 123.665C269.88 123.174 269.839 122.658 269.907 122.15L272.849 100.397C272.965 99.5338 273.392 98.7416 274.051 98.1681C274.71 97.5946 275.556 97.2787 276.432 97.2793H291.093C291.954 97.2793 292.787 97.5853 293.442 98.1422C294.097 98.699 294.53 99.4702 294.664 100.317L298.081 122.073C298.163 122.585 298.132 123.109 297.99 123.608C297.849 124.107 297.6 124.569 297.262 124.964C296.923 125.358 296.503 125.675 296.03 125.892C295.557 126.11 295.042 126.222 294.521 126.223Z" fill="#50453A"/>
</svg>
