<svg width="24" height="24" viewBox="0 0 24 24" fill="none" xmlns="http://www.w3.org/2000/svg">
<path d="M5.23828 16.7051C5.01139 16.7051 4.81494 16.6193 4.64893 16.4478C4.48844 16.2762 4.4082 16.0742 4.4082 15.8418C4.4082 15.6149 4.48844 15.4185 4.64893 15.2524C4.80941 15.0864 5.00586 15.0034 5.23828 15.0034H20.7524C20.9793 15.0034 21.173 15.0864 21.3335 15.2524C21.4995 15.4185 21.5825 15.6149 21.5825 15.8418C21.5825 16.0742 21.4995 16.2762 21.3335 16.4478C21.173 16.6193 20.9793 16.7051 20.7524 16.7051H5.23828ZM5.23828 12.8618C5.01139 12.8618 4.81494 12.7788 4.64893 12.6128C4.48844 12.4412 4.4082 12.242 4.4082 12.0151C4.4082 11.7827 4.48844 11.5835 4.64893 11.4175C4.80941 11.2459 5.00586 11.1602 5.23828 11.1602H20.7524C20.9793 11.1602 21.173 11.2459 21.3335 11.4175C21.4995 11.5835 21.5825 11.7827 21.5825 12.0151C21.5825 12.242 21.4995 12.4412 21.3335 12.6128C21.173 12.7788 20.9793 12.8618 20.7524 12.8618H5.23828ZM5.23828 9.03516C5.01139 9.03516 4.81494 8.95215 4.64893 8.78613C4.48844 8.61458 4.4082 8.41536 4.4082 8.18848C4.4082 7.95605 4.48844 7.75684 4.64893 7.59082C4.80941 7.4248 5.00586 7.3418 5.23828 7.3418H20.7524C20.9793 7.3418 21.173 7.4248 21.3335 7.59082C21.4995 7.75684 21.5825 7.95605 21.5825 8.18848C21.5825 8.41536 21.4995 8.61458 21.3335 8.78613C21.173 8.95215 20.9793 9.03516 20.7524 9.03516H5.23828Z" fill="#50453A"/>
</svg>
