<svg width="324" height="300" viewBox="0 0 324 300" fill="none" xmlns="http://www.w3.org/2000/svg">
<path fill-rule="evenodd" clip-rule="evenodd" d="M169.178 24.6C241.078 35.7795 311.001 53.1072 303.437 130.724C297.35 193.079 254.107 279.936 169.178 266.637C72.7812 251.54 35.2537 203.17 21.6954 154.211C4.95429 93.7834 116.437 16.4076 169.178 24.6Z" fill="#D4C4B5"/>
<path d="M186.361 116.138L195.535 85.9756C195.663 85.5545 195.882 85.1668 196.178 84.8399C196.474 84.513 196.838 84.2551 197.246 84.0845C197.653 83.914 198.094 83.835 198.535 83.8531C198.977 83.8713 199.409 83.9862 199.801 84.1897L209.703 89.3131C210.131 89.5348 210.499 89.8558 210.776 90.249C211.053 90.6421 211.231 91.0959 211.295 91.572C211.358 92.048 211.306 92.5322 211.141 92.9837C210.977 93.4352 210.705 93.8406 210.35 94.1657L186.361 116.138Z" fill="white"/>
<path d="M184.01 114.956L210.184 98.7442C210.59 98.4928 211.048 98.3355 211.524 98.2842C211.999 98.2328 212.481 98.2886 212.932 98.4475C213.383 98.6063 213.792 98.8642 214.13 99.2019C214.467 99.5396 214.724 99.9486 214.881 100.398L218.353 110.4C218.518 110.875 218.567 111.382 218.496 111.879C218.426 112.377 218.237 112.851 217.947 113.261C217.656 113.672 217.272 114.009 216.825 114.243C216.378 114.477 215.882 114.602 215.377 114.609L184.01 114.956Z" fill="white"/>
<path d="M147.001 170.768C159.187 170.768 169.066 160.939 169.066 148.814C169.066 136.689 159.187 126.86 147.001 126.86C134.815 126.86 124.936 136.689 124.936 148.814C124.936 160.939 134.815 170.768 147.001 170.768Z" fill="#211A14"/>
<path d="M99.5125 53.3799H12.8623C7.35727 53.3799 2.89453 57.8201 2.89453 63.2973V101.467C2.89453 106.944 7.35727 111.384 12.8623 111.384H99.5125C105.018 111.384 109.48 106.944 109.48 101.467V63.2973C109.48 57.8201 105.018 53.3799 99.5125 53.3799Z" fill="white"/>
<path d="M22.3482 72.9508C22.1562 72.9509 21.9718 72.8763 21.8344 72.743C21.6969 72.6097 21.6173 72.4281 21.6125 72.2372C21.5426 69.2583 22.6498 67.4798 23.5951 66.51C24.6378 65.413 26.0729 64.7687 27.5895 64.7168H27.63C29.0947 64.7476 30.488 65.3526 31.5068 66.4002C32.4705 67.3627 33.6144 69.1559 33.5776 72.2262C33.5776 72.4204 33.5001 72.6065 33.3621 72.7438C33.2242 72.881 33.0371 72.9582 32.8419 72.9582C32.6468 72.9582 32.4597 72.881 32.3218 72.7438C32.1838 72.6065 32.1063 72.4204 32.1063 72.2262C32.1357 69.6645 31.2309 68.2007 30.4659 67.4505C29.7179 66.6833 28.7 66.2346 27.6263 66.1989H27.6006C26.4807 66.2487 25.4247 66.732 24.658 67.5456C23.5877 68.6435 23.0433 70.2611 23.0911 72.2189C23.0936 72.315 23.077 72.4107 23.0422 72.5004C23.0075 72.5902 22.9554 72.6722 22.8888 72.7419C22.8221 72.8116 22.7424 72.8675 22.6541 72.9065C22.5657 72.9455 22.4705 72.9668 22.3739 72.9691L22.3482 72.9508Z" fill="#211A14"/>
<path d="M38.1636 101.162H17.1319C16.6168 101.162 16.1077 101.052 15.6387 100.841C15.1696 100.629 14.7515 100.32 14.4123 99.934C14.0731 99.5483 13.8206 99.095 13.6718 98.6044C13.523 98.1138 13.4812 97.5972 13.5493 97.0892L16.4919 75.3367C16.6078 74.4733 17.0349 73.6811 17.6939 73.1076C18.3529 72.534 19.1989 72.2182 20.0744 72.2188H34.7355C35.5969 72.2188 36.43 72.5248 37.0848 73.0816C37.7395 73.6385 38.173 74.4096 38.307 75.2562L41.724 97.0124C41.8053 97.5245 41.7741 98.0481 41.6326 98.5471C41.4911 99.0461 41.2426 99.5087 40.9043 99.9031C40.566 100.297 40.1458 100.614 39.6727 100.832C39.1995 101.049 38.6847 101.162 38.1636 101.162Z" fill="#50453A"/>
<path d="M95.3041 68.9004H55.4512C53.8688 68.9004 52.5859 70.1767 52.5859 71.7512V73.9652C52.5859 75.5397 53.8688 76.8161 55.4512 76.8161H95.3041C96.8866 76.8161 98.1694 75.5397 98.1694 73.9652V71.7512C98.1694 70.1767 96.8866 68.9004 95.3041 68.9004Z" fill="#D4C4B5"/>
<path d="M96.268 86.8359H54.4915C54.2964 86.8359 54.1093 86.7588 53.9713 86.6215C53.8334 86.4843 53.7559 86.2981 53.7559 86.104C53.7559 85.9099 53.8334 85.7237 53.9713 85.5864C54.1093 85.4492 54.2964 85.3721 54.4915 85.3721H96.268C96.4631 85.3721 96.6503 85.4492 96.7882 85.5864C96.9262 85.7237 97.0037 85.9099 97.0037 86.104C97.0037 86.2981 96.9262 86.4843 96.7882 86.6215C96.6503 86.7588 96.4631 86.8359 96.268 86.8359Z" fill="#211A14"/>
<path d="M90.3867 96.2402H54.4915C54.2964 96.2402 54.1093 96.1631 53.9713 96.0258C53.8334 95.8886 53.7559 95.7024 53.7559 95.5083C53.7559 95.3142 53.8334 95.128 53.9713 94.9907C54.1093 94.8535 54.2964 94.7764 54.4915 94.7764H90.3867C90.5818 94.7764 90.7689 94.8535 90.9068 94.9907C91.0448 95.128 91.1223 95.3142 91.1223 95.5083C91.1223 95.7024 91.0448 95.8886 90.9068 96.0258C90.7689 96.1631 90.5818 96.2402 90.3867 96.2402Z" fill="#211A14"/>
<path d="M212.987 189.71C225.728 189.71 236.057 179.499 236.057 166.903C236.057 154.307 225.728 144.097 212.987 144.097C200.246 144.097 189.918 154.307 189.918 166.903C189.918 179.499 200.246 189.71 212.987 189.71Z" fill="#211A14"/>
<path d="M189.917 158.94C202.658 158.94 212.987 148.729 212.987 136.134C212.987 123.538 202.658 113.327 189.917 113.327C177.176 113.327 166.848 123.538 166.848 136.134C166.848 148.729 177.176 158.94 189.917 158.94Z" fill="#211A14"/>
<path d="M169.651 132.47H155.63C152.179 132.47 148.761 131.794 145.572 130.479C142.383 129.165 139.486 127.239 137.046 124.81C134.605 122.382 132.67 119.499 131.349 116.326C130.029 113.153 129.349 109.753 129.35 106.319V88.4746C129.354 84.3726 130.996 80.4403 133.913 77.5418C136.831 74.6432 140.785 73.0156 144.908 73.0166H163.84C170.255 73.0166 176.407 75.552 180.943 80.0652C185.479 84.5783 188.027 90.6994 188.027 97.082V114.22C188.025 116.619 187.549 118.994 186.624 121.209C185.699 123.425 184.345 125.437 182.639 127.132C180.932 128.827 178.907 130.17 176.679 131.086C174.45 132.002 172.062 132.472 169.651 132.47Z" fill="#211A14"/>
<path d="M135.149 79.1289C135.149 79.1289 126.829 80.3512 124.644 97.8586C124.386 99.9972 123.458 102.001 121.992 103.586L120.654 105.028C120.316 105.391 120.124 105.864 120.114 106.359C120.104 106.853 120.276 107.334 120.598 107.71L122.412 109.833L121.496 121.031C121.496 121.031 119.657 132.965 133.777 132.595H142.759V144.976H170.989V123.695C170.989 123.695 177.422 122.597 178.592 116.296C178.887 114.72 178.82 113.099 178.396 111.553C177.972 110.007 177.201 108.577 176.142 107.37C174.035 104.995 170.32 102.978 164.203 105.818C164.207 105.818 139.909 110.671 135.149 79.1289Z" fill="#EEE0D5"/>
<path d="M169.066 119C168.484 119 167.915 118.828 167.431 118.506C166.947 118.185 166.57 117.728 166.347 117.193C166.124 116.658 166.066 116.069 166.18 115.501C166.293 114.933 166.573 114.411 166.985 114.002C167.396 113.593 167.921 113.314 168.492 113.201C169.062 113.088 169.654 113.146 170.192 113.367C170.729 113.589 171.189 113.964 171.512 114.446C171.836 114.927 172.008 115.493 172.008 116.072C172.008 116.849 171.698 117.593 171.146 118.142C170.594 118.691 169.846 119 169.066 119ZM169.066 114.586C168.775 114.586 168.49 114.672 168.248 114.833C168.006 114.994 167.818 115.223 167.706 115.49C167.595 115.758 167.566 116.052 167.623 116.336C167.679 116.62 167.819 116.881 168.025 117.085C168.231 117.29 168.493 117.429 168.779 117.486C169.064 117.542 169.36 117.513 169.629 117.403C169.897 117.292 170.127 117.104 170.289 116.863C170.451 116.623 170.537 116.34 170.537 116.05C170.537 115.662 170.382 115.29 170.106 115.015C169.83 114.741 169.456 114.586 169.066 114.586Z" fill="#211A14"/>
<path d="M166.847 116.793C166.656 116.793 166.472 116.719 166.334 116.586C166.197 116.453 166.117 116.273 166.111 116.083C166.06 114.571 166.512 113.349 167.461 112.449C169.344 110.663 172.489 110.89 172.611 110.901C172.806 110.916 172.987 111.007 173.114 111.155C173.241 111.303 173.304 111.495 173.289 111.689C173.274 111.883 173.182 112.064 173.034 112.19C172.885 112.317 172.692 112.379 172.497 112.364C172.471 112.364 169.863 112.181 168.451 113.521C167.814 114.128 167.524 114.952 167.561 116.042C167.564 116.139 167.548 116.235 167.514 116.325C167.48 116.416 167.428 116.498 167.362 116.569C167.296 116.639 167.216 116.696 167.128 116.735C167.039 116.775 166.944 116.797 166.847 116.8V116.793Z" fill="#211A14"/>
<path d="M138.111 105.796C139.072 105.796 139.851 105.021 139.851 104.065C139.851 103.109 139.072 102.334 138.111 102.334C137.15 102.334 136.371 103.109 136.371 104.065C136.371 105.021 137.15 105.796 138.111 105.796Z" fill="#211A14"/>
<path d="M132.001 120.394C131.292 120.396 130.59 120.257 129.937 119.984C127.822 119.094 126.403 116.749 126.406 114.15C126.407 113.932 126.456 113.717 126.549 113.52C126.642 113.323 126.778 113.149 126.946 113.009C127.114 112.87 127.311 112.768 127.523 112.713C127.735 112.657 127.956 112.648 128.172 112.687L136.944 114.246C137.168 114.287 137.38 114.378 137.564 114.513C137.748 114.647 137.898 114.821 138.005 115.022C138.111 115.223 138.17 115.445 138.177 115.672C138.185 115.899 138.14 116.124 138.048 116.331C136.922 118.82 134.432 120.394 132.001 120.394ZM127.907 114.11C127.903 114.121 127.903 114.132 127.907 114.143C127.907 116.163 128.963 117.964 130.541 118.63C132.961 119.647 135.749 117.898 136.738 115.702L136.716 115.658L127.94 114.099L127.907 114.11Z" fill="#211A14"/>
<path d="M142.758 132.598H156.246C156.365 132.599 156.481 132.64 156.573 132.716C156.665 132.791 156.729 132.896 156.753 133.013C156.777 133.129 156.76 133.25 156.706 133.356C156.651 133.461 156.561 133.545 156.452 133.593L142.758 139.412V132.598Z" fill="#50453A"/>
<path d="M142.527 144.689C142.525 144.022 142.738 143.371 143.135 142.833C143.532 142.296 144.093 141.899 144.734 141.703C145.225 141.555 145.729 141.455 146.239 141.403C148.165 141.225 150.095 141.701 151.715 142.753C153.068 141.71 154.73 141.143 156.442 141.139C158.153 141.135 159.818 141.695 161.176 142.731C162.546 141.816 164.146 141.302 165.795 141.246C166.83 141.217 167.862 141.373 168.841 141.707C169.451 141.919 169.98 142.315 170.353 142.839C170.727 143.364 170.927 143.991 170.926 144.634V151.039H142.527V144.689Z" fill="#845416"/>
<path d="M252.031 237.076L89.7324 236.94L96.9269 171.408C97.6091 165.198 100.568 159.455 105.238 155.279C109.908 151.103 115.961 148.785 122.24 148.77L189.333 148.602C197.161 148.583 204.816 150.891 211.317 155.23C217.817 159.57 222.866 165.742 225.817 172.956C239.426 204.092 249.273 226.825 250.347 229.522C250.858 230.845 251.267 232.204 251.572 233.588C251.81 234.738 251.964 235.903 252.031 237.076Z" fill="#845416"/>
<path d="M202.927 236.991H119.734V180.894H182.517C183.375 180.894 184.21 181.167 184.9 181.673C185.59 182.18 186.1 182.893 186.353 183.708L202.927 236.991Z" fill="#211A14"/>
<path d="M182.506 181.626C182.33 181.629 182.16 181.569 182.025 181.457C181.89 181.346 181.8 181.19 181.77 181.019C181.564 179.807 176.83 151.336 186.706 147.914C186.891 147.85 187.093 147.861 187.269 147.946C187.445 148.03 187.58 148.181 187.644 148.364C187.708 148.548 187.697 148.749 187.612 148.924C187.527 149.099 187.376 149.233 187.192 149.297C179.957 151.8 181.873 172.869 183.223 180.77C183.239 180.865 183.237 180.962 183.215 181.056C183.194 181.15 183.154 181.238 183.098 181.317C183.042 181.395 182.971 181.462 182.889 181.513C182.807 181.565 182.715 181.599 182.62 181.615C182.582 181.622 182.544 181.625 182.506 181.626Z" fill="#211A14"/>
<path d="M122.652 181.63C122.486 181.63 122.325 181.575 122.195 181.474C122.065 181.373 121.973 181.231 121.935 181.072C120.014 173.192 119.962 164.982 121.784 157.079C122.445 154.265 123.345 151.512 124.477 148.847C124.555 148.675 124.699 148.54 124.877 148.471C125.055 148.402 125.254 148.404 125.431 148.476C125.607 148.549 125.748 148.687 125.824 148.86C125.899 149.033 125.903 149.229 125.834 149.405C124.735 151.994 123.861 154.671 123.219 157.405C121.447 165.092 121.498 173.078 123.369 180.743C123.391 180.835 123.394 180.931 123.378 181.025C123.362 181.119 123.328 181.209 123.277 181.29C123.225 181.37 123.158 181.44 123.08 181.496C123.001 181.551 122.912 181.59 122.818 181.612C122.764 181.625 122.708 181.631 122.652 181.63Z" fill="#211A14"/>
<path d="M111.057 135.86C110.292 134.876 109.415 133.984 108.442 133.203L108.401 133.166C106.582 131.56 105.002 129.704 103.708 127.655C102.561 125.825 101.869 123.951 100.743 121.068C100.181 119.633 99.7835 118.506 99.5628 117.877C96.9403 110.382 95.2189 103.663 92.5559 102.697C92.155 102.561 91.7385 102.476 91.3164 102.444C90.7544 102.392 90.1876 102.452 89.6494 102.621C89.1111 102.79 88.6124 103.065 88.1826 103.429C87.8975 103.671 87.6496 103.953 87.4469 104.267C86.4171 105.895 86.9283 108.256 87.984 112.907C88.1531 113.639 88.304 114.243 88.4033 114.645L90.5403 124.394C90.5403 124.394 85.2879 125.576 85.5821 129.719C85.5821 129.719 80.7269 126.857 78.8437 132.478C78.8437 132.478 72.7012 132.972 74.4851 139.677C74.4851 139.677 76.9605 148.65 80.6276 148.946C80.6276 148.946 79.9361 162.948 91.629 169.074L110.755 166.681L112.013 161.257C115.324 146.985 113.83 142.355 113.275 140.643C112.738 138.963 111.993 137.356 111.057 135.86Z" fill="#EEE0D5"/>
<path d="M94.1076 161.136C93.9915 161.136 93.877 161.109 93.7735 161.057C93.6699 161.005 93.5802 160.929 93.5117 160.836C91.3035 157.853 89.9324 154.339 89.5393 150.655C88.7044 142.238 93.5375 136.016 95.5163 133.876L93.9825 129.938C93.8317 129.539 93.6368 129.03 93.4198 128.525C92.2023 125.711 91.6543 123.347 91.794 121.495C91.8336 120.936 91.9867 120.391 92.244 119.892C92.5012 119.393 92.8574 118.951 93.2911 118.593C93.7157 118.241 94.2079 117.978 94.7377 117.821C95.2676 117.663 95.8241 117.615 96.3733 117.678C99.7058 118.044 101.699 121.836 101.784 121.993C101.828 122.079 101.855 122.172 101.864 122.268C101.872 122.364 101.861 122.46 101.831 122.552C101.802 122.644 101.755 122.729 101.692 122.803C101.63 122.876 101.554 122.937 101.468 122.981C101.382 123.025 101.288 123.052 101.191 123.06C101.095 123.068 100.998 123.058 100.906 123.028C100.813 122.999 100.728 122.952 100.654 122.89C100.58 122.828 100.519 122.752 100.475 122.666C100.475 122.633 98.7568 119.413 96.2115 119.135C95.8584 119.094 95.5006 119.124 95.1598 119.225C94.819 119.326 94.5023 119.494 94.229 119.72C93.9479 119.953 93.7172 120.24 93.5509 120.564C93.3846 120.888 93.2862 121.242 93.2616 121.605C93.1402 123.219 93.6478 125.352 94.7697 127.947C95.0014 128.478 95.2037 129.012 95.3582 129.411L97.2267 134.205L96.8993 134.542C95.3067 136.185 90.1793 142.19 91.0143 150.505C91.3766 153.927 92.6459 157.191 94.6924 159.965C94.8072 160.121 94.8549 160.316 94.8253 160.508C94.7957 160.699 94.691 160.871 94.5343 160.986C94.4114 161.079 94.2621 161.132 94.1076 161.136Z" fill="#211A14"/>
<path d="M135.775 233.416C130.794 233.09 125.795 233.68 121.03 235.158C103.297 240.717 95.4297 257.01 93.7598 260.699L135.775 260.915V233.416Z" fill="#EEE0D5"/>
<path d="M136.511 261.65L92.623 261.423L93.0865 260.398C95.8304 254.353 104.018 239.725 120.809 234.459C125.66 232.954 130.749 232.352 135.819 232.684L136.511 232.728V261.65ZM94.9109 259.974L135.04 260.179V234.108C130.375 233.882 125.707 234.478 121.25 235.868C105.909 240.666 97.9748 253.617 94.9109 259.974Z" fill="#EEE0D5"/>
<path d="M87.5274 150.966C86.8091 150.973 86.0985 150.817 85.4492 150.512C84.6406 150.118 83.9551 149.512 83.4667 148.759C83.2146 149.065 82.8999 149.315 82.5435 149.491C81.8675 149.809 81.0937 149.855 80.3844 149.619C80.2936 149.586 80.2102 149.535 80.139 149.47C80.0677 149.405 80.0101 149.327 79.9692 149.24C79.9284 149.153 79.9053 149.059 79.9011 148.962C79.8969 148.866 79.9118 148.77 79.9449 148.68C79.978 148.59 80.0286 148.507 80.0939 148.436C80.1592 148.365 80.238 148.308 80.3256 148.267C80.4132 148.226 80.508 148.203 80.6045 148.199C80.7011 148.195 80.7975 148.21 80.8883 148.243C81.224 148.343 81.5848 148.318 81.9035 148.173C82.1258 148.031 82.3174 147.846 82.467 147.629C82.6167 147.412 82.7215 147.168 82.7752 146.911L83.5108 144.528L84.1987 146.922C84.1987 146.922 84.6879 148.521 86.1076 149.187C87.1154 149.663 88.3954 149.579 89.9108 148.942C90.0004 148.9 90.0976 148.876 90.1965 148.873C90.2955 148.869 90.3941 148.885 90.4866 148.92C90.5791 148.956 90.6635 149.009 90.7347 149.077C90.806 149.146 90.8626 149.228 90.9013 149.318C90.9399 149.409 90.9597 149.507 90.9596 149.605C90.9595 149.704 90.9393 149.801 90.9004 149.892C90.8615 149.982 90.8047 150.064 90.7332 150.132C90.6618 150.2 90.5772 150.254 90.4846 150.288C89.5543 150.709 88.5487 150.939 87.5274 150.966Z" fill="#211A14"/>
<path d="M83.4781 147.863C83.322 147.862 83.1702 147.813 83.0446 147.72C82.919 147.628 82.826 147.499 82.7792 147.351L78.1374 132.691C78.0788 132.505 78.0967 132.304 78.1871 132.132C78.2774 131.96 78.4329 131.83 78.6192 131.772C78.8055 131.714 79.0075 131.732 79.1806 131.821C79.3537 131.911 79.4839 132.066 79.5424 132.251L84.1659 146.912C84.195 147.003 84.2056 147.1 84.1971 147.196C84.1886 147.292 84.1612 147.385 84.1164 147.47C84.0717 147.556 84.0104 147.631 83.9362 147.693C83.8621 147.755 83.7763 147.801 83.684 147.83C83.6173 147.851 83.5479 147.862 83.4781 147.863Z" fill="#211A14"/>
<path d="M90.7618 144.829C90.6102 144.828 90.4624 144.782 90.3386 144.694C90.2148 144.607 90.1211 144.484 90.0703 144.342L84.9025 129.956C84.8699 129.866 84.8555 129.77 84.8603 129.674C84.865 129.577 84.8887 129.483 84.93 129.396C84.9713 129.309 85.0295 129.231 85.1011 129.167C85.1728 129.102 85.2565 129.052 85.3475 129.019C85.4386 128.987 85.5352 128.973 85.6318 128.977C85.7284 128.982 85.8231 129.006 85.9105 129.047C85.998 129.088 86.0764 129.146 86.1414 129.217C86.2063 129.288 86.2566 129.372 86.2892 129.462L91.4386 143.852C91.4781 143.962 91.4903 144.081 91.4742 144.197C91.458 144.313 91.414 144.424 91.3459 144.52C91.2777 144.616 91.1874 144.694 91.0825 144.747C90.9777 144.801 90.8614 144.829 90.7434 144.829H90.7618Z" fill="#211A14"/>
<path d="M308.696 117.627H236.954C230.124 117.627 224.588 123.135 224.588 129.93V208.073C224.588 214.868 230.124 220.377 236.954 220.377H308.696C315.526 220.377 321.062 214.868 321.062 208.073V129.93C321.062 123.135 315.526 117.627 308.696 117.627Z" fill="white"/>
<path d="M248.69 156.269H239.094C236.308 156.269 234.051 158.515 234.051 161.286V170.834C234.051 173.605 236.308 175.851 239.094 175.851H248.69C251.475 175.851 253.733 173.605 253.733 170.834V161.286C253.733 158.515 251.475 156.269 248.69 156.269Z" fill="#D4C4B5"/>
<path d="M248.69 185.995H239.094C236.308 185.995 234.051 188.241 234.051 191.012V200.56C234.051 203.331 236.308 205.578 239.094 205.578H248.69C251.475 205.578 253.733 203.331 253.733 200.56V191.012C253.733 188.241 251.475 185.995 248.69 185.995Z" fill="#D4C4B5"/>
<path d="M310.307 161.297H265.882C265.687 161.297 265.5 161.22 265.362 161.082C265.224 160.945 265.146 160.759 265.146 160.565C265.146 160.371 265.224 160.185 265.362 160.047C265.5 159.91 265.687 159.833 265.882 159.833H310.307C310.502 159.833 310.689 159.91 310.827 160.047C310.965 160.185 311.043 160.371 311.043 160.565C311.043 160.759 310.965 160.945 310.827 161.082C310.689 161.22 310.502 161.297 310.307 161.297Z" fill="#211A14"/>
<path d="M293.266 172.074H265.882C265.687 172.074 265.5 171.997 265.362 171.86C265.224 171.723 265.146 171.536 265.146 171.342C265.146 171.148 265.224 170.962 265.362 170.825C265.5 170.687 265.687 170.61 265.882 170.61H293.266C293.461 170.61 293.648 170.687 293.786 170.825C293.924 170.962 294.002 171.148 294.002 171.342C294.002 171.536 293.924 171.723 293.786 171.86C293.648 171.997 293.461 172.074 293.266 172.074Z" fill="#211A14"/>
<path d="M310.307 191.13H265.882C265.687 191.13 265.5 191.053 265.362 190.915C265.224 190.778 265.146 190.592 265.146 190.398C265.146 190.204 265.224 190.018 265.362 189.88C265.5 189.743 265.687 189.666 265.882 189.666H310.307C310.502 189.666 310.689 189.743 310.827 189.88C310.965 190.018 311.043 190.204 311.043 190.398C311.043 190.592 310.965 190.778 310.827 190.915C310.689 191.053 310.502 191.13 310.307 191.13Z" fill="#211A14"/>
<path d="M293.266 201.907H265.882C265.687 201.907 265.5 201.83 265.362 201.693C265.224 201.556 265.146 201.369 265.146 201.175C265.146 200.981 265.224 200.795 265.362 200.658C265.5 200.52 265.687 200.443 265.882 200.443H293.266C293.461 200.443 293.648 200.52 293.786 200.658C293.924 200.795 294.002 200.981 294.002 201.175C294.002 201.369 293.924 201.556 293.786 201.693C293.648 201.83 293.461 201.907 293.266 201.907Z" fill="#211A14"/>
<path d="M251.604 131.398C251.297 130.835 250.837 130.37 250.276 130.055C247.702 128.621 245.105 129.51 243.832 131.373C242.541 129.488 239.893 128.599 237.285 130.11C236.812 130.387 236.417 130.779 236.137 131.248C234.953 133.221 235.185 135.204 236.178 136.617C236.195 136.643 236.215 136.667 236.237 136.69C236.259 136.719 237.524 138.179 238.315 138.977C238.992 139.654 240.662 141.206 243.06 143.131C243.273 143.302 243.538 143.395 243.812 143.395C244.086 143.395 244.351 143.302 244.564 143.131C245.987 141.996 247.139 141.016 248.003 140.269C248.653 139.725 249.267 139.141 249.842 138.52C251.093 137.177 253.815 135.398 251.604 131.398Z" fill="#50453A"/>
<path d="M220.55 268.398H140.881C139.665 268.398 138.462 268.16 137.338 267.698C136.215 267.235 135.195 266.557 134.335 265.702C133.475 264.847 132.793 263.832 132.328 262.715C131.863 261.597 131.623 260.4 131.623 259.19V243.992C131.624 238.57 133.789 233.37 137.643 229.535C141.497 225.701 146.723 223.547 152.173 223.546H238.433C242.043 223.546 245.504 224.972 248.056 227.512C250.609 230.051 252.042 233.495 252.042 237.086C252.041 241.2 251.225 245.272 249.642 249.072C248.058 252.872 245.738 256.324 242.814 259.231C239.89 262.139 236.418 264.445 232.598 266.018C228.778 267.59 224.684 268.399 220.55 268.398Z" fill="#845416"/>
<path d="M97.3496 269.851C94.0515 269.783 90.7991 269.069 87.7782 267.751C84.7573 266.432 82.0271 264.534 79.7434 262.165C77.4598 259.797 75.6675 257.004 74.4688 253.946C73.2701 250.888 72.6886 247.625 72.7574 244.344L74.1294 178.673C74.2095 174.902 75.7915 171.316 78.5277 168.705C81.2638 166.094 84.9301 164.671 88.7206 164.748L110.367 165.198C114.154 165.28 117.754 166.855 120.375 169.576C122.996 172.298 124.424 175.944 124.344 179.712L122.986 245.383C122.918 248.665 122.201 251.901 120.875 254.906C119.55 257.912 117.642 260.628 115.262 262.9C112.881 265.172 110.074 266.956 107.001 268.148C103.927 269.341 100.648 269.92 97.3496 269.851Z" fill="#845416"/>
<path d="M215.149 223.543H195.177C194.982 223.543 194.795 223.466 194.657 223.329C194.519 223.191 194.441 223.005 194.441 222.811C194.441 222.617 194.519 222.431 194.657 222.293C194.795 222.156 194.982 222.079 195.177 222.079H215.149C215.345 222.079 215.532 222.156 215.67 222.293C215.808 222.431 215.885 222.617 215.885 222.811C215.885 223.005 215.808 223.191 215.67 223.329C215.532 223.466 215.345 223.543 215.149 223.543Z" fill="#211A14"/>
<path d="M192.088 117.14C191.031 117.14 189.997 116.828 189.118 116.244C188.239 115.66 187.553 114.83 187.148 113.858C186.743 112.886 186.637 111.817 186.842 110.785C187.048 109.753 187.556 108.805 188.303 108.06C189.05 107.316 190.001 106.808 191.038 106.602C192.075 106.395 193.15 106.499 194.127 106.9C195.105 107.301 195.941 107.981 196.53 108.855C197.119 109.728 197.434 110.756 197.436 111.808C197.437 112.508 197.3 113.201 197.031 113.847C196.763 114.494 196.369 115.081 195.873 115.577C195.376 116.072 194.786 116.465 194.137 116.733C193.487 117.001 192.791 117.14 192.088 117.14ZM192.088 107.962C191.321 107.962 190.571 108.188 189.933 108.613C189.296 109.037 188.799 109.64 188.506 110.346C188.212 111.051 188.136 111.827 188.287 112.576C188.437 113.324 188.808 114.011 189.351 114.55C189.894 115.089 190.586 115.456 191.339 115.603C192.091 115.751 192.871 115.673 193.58 115.379C194.288 115.086 194.892 114.59 195.317 113.954C195.742 113.318 195.967 112.571 195.965 111.808C195.961 110.787 195.551 109.81 194.825 109.089C194.098 108.368 193.114 107.963 192.088 107.962Z" fill="#211A14"/>
<path d="M124.445 181.626C124.25 181.626 124.063 181.549 123.925 181.412C123.787 181.275 123.71 181.089 123.71 180.894C123.614 166.289 111.609 165.971 111.105 165.971C110.91 165.971 110.723 165.894 110.585 165.756C110.447 165.619 110.369 165.433 110.369 165.239C110.369 165.045 110.447 164.858 110.585 164.721C110.723 164.584 110.91 164.507 111.105 164.507C111.245 164.507 125.06 164.825 125.166 180.898C125.166 181.092 125.089 181.278 124.951 181.416C124.813 181.553 124.626 181.63 124.431 181.63L124.445 181.626Z" fill="#211A14"/>
<path d="M167.45 149.546H144.646C144.451 149.546 144.264 149.469 144.126 149.331C143.988 149.194 143.91 149.008 143.91 148.814C143.91 148.62 143.988 148.434 144.126 148.296C144.264 148.159 144.451 148.082 144.646 148.082H167.45C167.645 148.082 167.833 148.159 167.971 148.296C168.109 148.434 168.186 148.62 168.186 148.814C168.186 149.008 168.109 149.194 167.971 149.331C167.833 149.469 167.645 149.546 167.45 149.546Z" fill="#211A14"/>
<path d="M145.837 265.554C145.642 265.554 145.455 265.477 145.317 265.34C145.179 265.202 145.102 265.016 145.102 264.822V231.623C145.102 231.428 145.179 231.242 145.317 231.105C145.455 230.968 145.642 230.891 145.837 230.891C146.032 230.891 146.219 230.968 146.357 231.105C146.495 231.242 146.573 231.428 146.573 231.623V264.822C146.573 265.016 146.495 265.202 146.357 265.34C146.219 265.477 146.032 265.554 145.837 265.554Z" fill="#211A14"/>
<path d="M115.526 178.516H82.1614C81.9663 178.516 81.7792 178.438 81.6412 178.301C81.5033 178.164 81.4258 177.978 81.4258 177.784C81.4258 177.59 81.5033 177.403 81.6412 177.266C81.7792 177.129 81.9663 177.052 82.1614 177.052H115.526C115.721 177.052 115.908 177.129 116.046 177.266C116.184 177.403 116.262 177.59 116.262 177.784C116.262 177.978 116.184 178.164 116.046 178.301C115.908 178.438 115.721 178.516 115.526 178.516Z" fill="#211A14"/>
<path d="M98.182 111.379C97.7996 111.523 97.374 111.328 97.2277 110.946C96.5083 109.071 95.5218 106.835 94.1962 104.932C92.931 103.102 91.4854 102.334 89.8965 102.608C89.437 102.663 88.9953 102.818 88.6029 103.062C88.2106 103.306 87.8774 103.633 87.627 104.021C86.3728 106.022 87.2077 109.554 87.627 110.974L87.6444 111.031C87.6654 111.101 87.6266 111.174 87.5573 111.196L86.4962 111.532C86.3776 111.569 86.2511 111.503 86.2146 111.384C85.6298 109.378 84.8684 105.656 86.3802 103.245C86.7384 102.681 87.2166 102.203 87.7809 101.843C88.3452 101.483 88.982 101.251 89.6464 101.162C91.8202 100.796 93.8137 101.799 95.41 104.09C96.8349 106.135 97.8525 108.477 98.6092 110.433C98.7559 110.812 98.5626 111.236 98.182 111.379Z" fill="#211A14"/>
<path fill-rule="evenodd" clip-rule="evenodd" d="M86.6198 110.155C87.0098 110.049 87.4154 110.265 87.5257 110.637L87.7041 111.238C87.8144 111.61 87.5876 111.997 87.1976 112.103C86.8075 112.209 86.4019 111.994 86.2916 111.622L86.1132 111.02C86.0029 110.649 86.2297 110.261 86.6198 110.155Z" fill="#211A14"/>
</svg>
