<svg width="324" height="300" viewBox="0 0 324 300" fill="none" xmlns="http://www.w3.org/2000/svg">
<path fill-rule="evenodd" clip-rule="evenodd" d="M161.756 24.0045C231.069 24.9896 280.869 29.9998 302.229 139.338C315.349 206.494 254.272 270.125 161.756 267.946C92.4573 266.312 21.5566 204.706 20.0183 142.492C18.4261 78.2508 121.146 23.426 161.756 24.0045Z" fill="#D4C4B5"/>
<g clip-path="url(#clip0_726_54942)">
<path d="M212.682 123.491L170.537 121.536C170.537 121.536 160.251 119.589 152.666 134.648C152.666 134.648 151.569 137.439 154.771 138.454C154.771 138.454 155.363 142.767 159.494 140.483C159.494 140.483 162.024 144.271 165.65 141.15C165.65 141.15 168.94 143.351 177.114 137.523C185.656 141.281 194.625 143.972 203.821 145.536C205.602 145.837 207.351 146.09 209.067 146.295L215.646 147.344C217.87 147.699 220.141 147.612 222.33 147.086C224.519 146.561 226.584 145.608 228.406 144.281C230.228 142.955 231.772 141.282 232.95 139.357C234.127 137.432 234.916 135.294 235.269 133.063L212.682 123.491Z" fill="#EEE0D5"/>
<path d="M218.377 148.298C217.423 148.297 216.471 148.221 215.529 148.071L208.949 147.018C207.22 146.813 205.444 146.556 203.696 146.259C194.58 144.707 185.683 142.054 177.201 138.359C170.545 143.01 167.01 142.485 165.749 142.027C164.601 142.896 163.427 143.255 162.25 143.094C161.102 142.894 160.059 142.302 159.297 141.418C158.028 141.997 156.917 142.056 156.007 141.59C154.826 140.993 154.34 139.709 154.161 139.023C153.264 138.71 152.522 138.061 152.092 137.211C151.707 136.317 151.674 135.309 152 134.391L152.029 134.332C159.574 119.362 169.704 120.664 170.636 120.821L212.864 122.78L236.099 132.627L236.011 133.195C235.342 137.403 233.202 141.235 229.975 144.005C226.747 146.774 222.642 148.302 218.395 148.313L218.377 148.298ZM177.029 136.683L177.395 136.852C185.883 140.582 194.795 143.256 203.93 144.814C205.652 145.104 207.407 145.357 209.14 145.566L215.749 146.622C219.954 147.296 224.255 146.303 227.744 143.854C231.233 141.405 233.637 137.69 234.447 133.496L212.514 124.206L170.45 122.252H170.398C170.004 122.178 160.554 120.642 153.334 134.934C153.154 135.469 153.175 136.052 153.393 136.573C153.564 136.869 153.793 137.126 154.068 137.328C154.342 137.531 154.655 137.675 154.987 137.75L155.429 137.89L155.491 138.348C155.491 138.348 155.711 139.793 156.646 140.263C157.249 140.56 158.087 140.42 159.136 139.837L159.724 139.511L160.09 140.072C160.09 140.072 161.029 141.436 162.448 141.623C163.318 141.744 164.232 141.392 165.16 140.589L165.584 140.222L166.045 140.534C166.045 140.534 169.145 142.294 176.679 136.918L177.029 136.683Z" fill="#211A14"/>
<path d="M154.773 139.364C154.6 139.363 154.43 139.314 154.283 139.221C154.079 139.091 153.934 138.884 153.881 138.647C153.829 138.409 153.872 138.161 154.002 137.956L158.604 130.661C158.67 130.559 158.755 130.47 158.854 130.401C158.954 130.331 159.066 130.282 159.184 130.257C159.303 130.231 159.425 130.228 159.545 130.25C159.664 130.272 159.778 130.317 159.88 130.382C159.982 130.448 160.07 130.533 160.139 130.633C160.208 130.733 160.257 130.846 160.283 130.965C160.309 131.083 160.311 131.206 160.289 131.326C160.268 131.446 160.223 131.56 160.158 131.662L155.555 138.957C155.47 139.086 155.354 139.191 155.217 139.263C155.08 139.334 154.927 139.369 154.773 139.364Z" fill="#211A14"/>
<path d="M159.495 141.399C159.328 141.401 159.165 141.356 159.022 141.271C158.879 141.185 158.762 141.062 158.684 140.914C158.606 140.767 158.57 140.601 158.58 140.434C158.589 140.268 158.644 140.107 158.738 139.969L163.223 133.368C163.291 133.268 163.378 133.183 163.478 133.117C163.579 133.051 163.691 133.006 163.809 132.984C163.927 132.961 164.048 132.963 164.166 132.987C164.283 133.012 164.395 133.06 164.494 133.127C164.593 133.195 164.678 133.282 164.743 133.383C164.809 133.484 164.854 133.597 164.877 133.715C164.899 133.833 164.898 133.955 164.873 134.073C164.848 134.191 164.801 134.302 164.733 134.402L160.248 141.003C160.164 141.126 160.052 141.227 159.921 141.296C159.789 141.365 159.643 141.401 159.495 141.399Z" fill="#211A14"/>
<path d="M165.642 142.067C165.452 142.068 165.266 142.007 165.112 141.895C165.014 141.825 164.931 141.736 164.868 141.634C164.804 141.531 164.762 141.417 164.742 141.298C164.723 141.179 164.727 141.058 164.755 140.94C164.783 140.823 164.833 140.713 164.904 140.615L169.042 134.839C169.112 134.741 169.201 134.658 169.303 134.594C169.405 134.531 169.518 134.488 169.637 134.469C169.755 134.45 169.876 134.454 169.993 134.481C170.11 134.509 170.22 134.559 170.318 134.63C170.415 134.7 170.498 134.789 170.561 134.891C170.624 134.994 170.667 135.107 170.686 135.226C170.706 135.345 170.701 135.467 170.674 135.584C170.646 135.701 170.596 135.812 170.526 135.91L166.384 141.686C166.3 141.804 166.189 141.901 166.06 141.967C165.931 142.034 165.787 142.068 165.642 142.067Z" fill="#211A14"/>
<path d="M181.359 266.142L147.25 280.195C146.775 280.391 146.37 280.728 146.091 281.16C145.812 281.593 145.672 282.101 145.689 282.616C145.71 283.279 145.99 283.907 146.469 284.365C146.948 284.823 147.587 285.073 148.248 285.062L188.824 284.329L188.352 288.986C188.324 289.254 188.349 289.525 188.426 289.782C188.503 290.04 188.63 290.28 188.8 290.488C188.97 290.696 189.18 290.869 189.417 290.995C189.653 291.121 189.913 291.199 190.18 291.224L199.169 292.038C199.679 292.086 200.188 291.939 200.594 291.627C201.001 291.315 201.275 290.86 201.362 290.354L204.894 270.007L181.359 266.142Z" fill="#FABA73"/>
<path d="M277.133 262.372L262.913 296.479C262.715 296.955 262.667 297.48 262.775 297.984C262.883 298.488 263.141 298.947 263.516 299.299C264 299.752 264.641 299.996 265.302 299.979C265.964 299.962 266.592 299.685 267.051 299.208L295.199 269.908L298.145 273.539C298.315 273.748 298.524 273.922 298.761 274.049C298.998 274.176 299.258 274.255 299.526 274.28C299.794 274.306 300.064 274.278 300.321 274.198C300.577 274.118 300.816 273.987 301.022 273.814L307.967 268.012C308.359 267.685 308.614 267.222 308.682 266.716C308.749 266.209 308.625 265.695 308.333 265.276L296.489 248.384L277.133 262.372Z" fill="#FABA73"/>
<path d="M181.724 167.179C181.553 167.18 181.386 167.133 181.241 167.044C181.096 166.955 180.978 166.827 180.902 166.674C180.826 166.521 180.794 166.35 180.81 166.18C180.826 166.01 180.889 165.847 180.993 165.712L198.583 142.467C198.94 141.986 199.157 141.414 199.209 140.817C199.262 140.219 199.147 139.618 198.879 139.082C198.61 138.546 198.198 138.095 197.689 137.78C197.179 137.465 196.593 137.299 195.995 137.3H169.555C169.312 137.3 169.08 137.203 168.908 137.031C168.737 136.859 168.641 136.626 168.641 136.383C168.641 136.14 168.737 135.906 168.908 135.734C169.08 135.562 169.312 135.466 169.555 135.466H196.009C196.947 135.466 197.866 135.728 198.664 136.222C199.462 136.717 200.107 137.424 200.527 138.265C200.947 139.106 201.126 140.047 201.044 140.984C200.961 141.921 200.62 142.817 200.06 143.571L182.455 166.819C182.368 166.931 182.258 167.022 182.131 167.084C182.004 167.146 181.865 167.179 181.724 167.179Z" fill="#211A14"/>
<path d="M225.723 156.44C221.286 159.007 218.016 163.205 216.606 168.146C215.196 173.087 215.756 178.384 218.168 182.919L262.184 265.525C262.673 266.467 263.358 267.292 264.192 267.946C265.026 268.6 265.991 269.066 267.02 269.314C270.31 270.08 275.19 269.6 278.823 262.316C279.134 262.448 284.625 264.704 289.49 261.256C293.731 258.249 294.034 253.36 294.06 252.766C294.55 252.935 297.854 254.009 301.023 252.106C301.155 252.025 301.287 251.945 301.411 251.857C304.723 249.597 305.483 245.006 303.29 241.643C287.315 217.122 268.899 188.651 252.083 162.792C249.327 158.559 245.061 155.543 240.16 154.364C235.259 153.185 230.094 153.932 225.723 156.451V156.44Z" fill="#211A14"/>
<path d="M239.117 71.1489L231.17 74.4057C227.915 75.7367 224.267 75.7163 221.027 74.349C217.788 72.9818 215.222 70.3796 213.894 67.1147L209.508 56.3727C208.758 54.5314 208.769 52.4669 209.537 50.6334C210.304 48.7998 211.767 47.3472 213.602 46.5952L225.182 41.8494C228.438 40.5186 232.086 40.5395 235.326 41.9075C238.566 43.2755 241.131 45.8785 242.458 49.1441L245.35 56.2406C246.492 59.047 246.477 62.1934 245.308 64.9887C244.14 67.784 241.913 69.9996 239.117 71.1489Z" fill="#211A14"/>
<path d="M239.645 68.5341L236.629 62.4057C237.703 62.0026 238.574 61.1876 239.05 60.1401C239.526 59.0926 239.567 57.8984 239.166 56.8202C238.764 55.7419 237.951 54.8681 236.907 54.3907C235.863 53.9134 234.673 53.8717 233.598 54.2749C233.408 54.3451 233.224 54.4297 233.046 54.528L232.988 54.4033C232.452 55.2564 231.737 55.9819 230.893 56.5292C230.048 57.0765 229.095 57.4324 228.1 57.5721C227.104 57.7118 226.091 57.6319 225.129 57.3379C224.168 57.044 223.282 56.5431 222.533 55.8703C221.823 56.8581 220.867 57.6411 219.76 58.1405C218.653 58.64 217.434 58.8384 216.226 58.7157C215.019 58.5931 213.865 58.1537 212.88 57.4418C211.895 56.7299 211.114 55.7705 210.616 54.66C210.246 55.4686 210.038 56.3425 210.005 57.2317C209.971 58.121 210.113 59.008 210.422 59.8422L211.124 61.7419C211.814 63.6075 211.978 65.6275 211.599 67.5805C211.513 67.9871 211.584 68.4111 211.796 68.7681C212.008 69.125 212.346 69.3885 212.744 69.506L214.155 69.9094L215.646 73.9436C215.942 74.7441 216.408 75.4708 217.011 76.0737C217.613 76.6767 218.339 77.1417 219.138 77.4368C219.937 77.7319 220.789 77.8501 221.638 77.7833C222.487 77.7166 223.311 77.4664 224.054 77.05L227.709 74.9925L230.981 81.4143L242.836 75.3299L239.645 68.5341Z" fill="#EEE0D5"/>
<path d="M230.908 82.7571L227.662 76.3904L224.661 78.0774C223.825 78.5461 222.898 78.8278 221.944 78.9032C220.989 78.9787 220.029 78.846 219.131 78.5143C218.232 78.1826 217.415 77.6598 216.737 76.9818C216.059 76.3037 215.535 75.4864 215.201 74.586L213.841 70.9001L212.795 70.5994C212.223 70.4366 211.733 70.0626 211.424 69.5524C211.114 69.0423 211.009 68.4337 211.128 67.8488V67.8011C211.297 66.9355 211.351 66.0513 211.289 65.1715C211.221 64.2149 211.018 63.2727 210.686 62.3732L209.981 60.4698C209.638 59.5461 209.48 58.5634 209.517 57.5784C209.554 56.5933 209.785 55.6254 210.196 54.7302L210.865 53.2632L211.527 54.7302C211.972 55.7241 212.669 56.5831 213.55 57.2211C214.43 57.859 215.462 58.2535 216.542 58.365C217.623 58.4765 218.713 58.301 219.704 57.8561C220.696 57.4112 221.553 56.7127 222.19 55.8305L222.665 55.1593L223.272 55.6984C223.942 56.2998 224.734 56.7475 225.594 57.0101C226.454 57.2727 227.361 57.344 228.251 57.219C229.141 57.094 229.994 56.7757 230.749 56.2863C231.504 55.797 232.143 55.1483 232.623 54.3855L233.354 53.2412L233.672 53.938C234.924 53.4915 236.3 53.5574 237.504 54.1217C238.707 54.6859 239.641 55.703 240.102 56.9527C240.516 58.0796 240.519 59.317 240.111 60.446C239.703 61.575 238.91 62.5227 237.872 63.1214L240.552 68.5823L244.046 76.0053L230.908 82.7571ZM228.273 74.3659L231.544 80.784L242.116 75.3561L239.232 69.2241L235.862 62.3769L236.615 62.0908C237.508 61.7558 238.231 61.0785 238.626 60.2081C239.022 59.3377 239.056 58.3455 238.722 57.4496C238.388 56.5538 237.713 55.8278 236.846 55.4313C235.978 55.0348 234.989 55.0003 234.096 55.3353C233.939 55.3958 233.786 55.4669 233.639 55.5481L233.57 55.5884C232.98 56.4033 232.235 57.0935 231.379 57.6195C230.523 58.1454 229.571 58.4968 228.579 58.6535C227.588 58.8102 226.575 58.7691 225.599 58.5327C224.623 58.2962 223.703 57.869 222.892 57.2754C222.141 58.1253 221.211 58.7972 220.17 59.2426C219.128 59.688 218.001 59.8957 216.87 59.8508C215.739 59.8058 214.632 59.5094 213.629 58.9828C212.626 58.4563 211.752 57.7128 211.07 56.806C210.88 57.8636 210.977 58.9532 211.351 59.96L212.057 61.8635C212.795 63.8553 212.969 66.013 212.561 68.0982C212.506 68.3269 212.54 68.5682 212.657 68.7726C212.773 68.9771 212.962 69.1293 213.187 69.1984L214.952 69.6825L216.572 74.0835C216.832 74.7854 217.24 75.4225 217.769 75.9511C218.297 76.4797 218.934 76.8873 219.634 77.1458C220.335 77.4044 221.083 77.5078 221.827 77.4489C222.571 77.39 223.293 77.1703 223.945 76.8048L228.273 74.3659Z" fill="#211A14"/>
<path d="M243.084 45.8468C249.078 45.8468 253.937 40.9718 253.937 34.9581C253.937 28.9444 249.078 24.0693 243.084 24.0693C237.09 24.0693 232.23 28.9444 232.23 34.9581C232.23 40.9718 237.09 45.8468 243.084 45.8468Z" fill="#211A14"/>
<path d="M259.815 32.05C268.571 32.05 275.669 24.9287 275.669 16.1441C275.669 7.35958 268.571 0.238281 259.815 0.238281C251.059 0.238281 243.961 7.35958 243.961 16.1441C243.961 24.9287 251.059 32.05 259.815 32.05Z" fill="#211A14"/>
<path d="M211.262 141.47L167.857 259.431C166.537 262.731 167.359 266.428 169.794 268.541C172.792 271.141 177.759 270.936 180.9 267.675C181.09 268.068 183.228 272.234 188.013 272.971C189.72 273.221 191.462 273.005 193.057 272.347C194.652 271.689 196.041 270.612 197.079 269.23C197.805 270.725 198.906 272.005 200.273 272.945C201.64 273.885 203.227 274.453 204.878 274.593C206.53 274.734 208.189 274.442 209.695 273.746C211.2 273.05 212.5 271.974 213.466 270.624C214.157 269.668 214.675 268.598 214.998 267.462L240.952 180.543C240.952 180.543 254.419 170.08 251.305 147.924L211.262 141.47Z" fill="#211A14"/>
<path d="M219.178 64.8668C219.757 64.8668 220.227 64.3956 220.227 63.8143C220.227 63.233 219.757 62.7617 219.178 62.7617C218.599 62.7617 218.129 63.233 218.129 63.8143C218.129 64.3956 218.599 64.8668 219.178 64.8668Z" fill="#211A14"/>
<path d="M219.909 72.7742C219.596 72.7785 219.284 72.7415 218.981 72.6642C218.804 72.6041 218.657 72.4785 218.57 72.3132C218.482 72.1479 218.461 71.9552 218.511 71.7748C218.56 71.5943 218.677 71.4397 218.836 71.3426C218.995 71.2454 219.186 71.2131 219.368 71.2522C219.938 71.3786 220.534 71.2939 221.046 71.0138C221.595 70.6764 221.975 70.0456 222.176 69.1361C222.218 68.9459 222.335 68.7805 222.499 68.6763C222.663 68.5721 222.862 68.5376 223.051 68.5804C223.241 68.6232 223.406 68.7398 223.509 68.9045C223.613 69.0693 223.648 69.2686 223.605 69.4588C223.309 70.7791 222.698 71.729 221.777 72.2791C221.211 72.6104 220.565 72.7815 219.909 72.7742Z" fill="#211A14"/>
<path d="M235.403 60.4662C235.135 60.4683 234.872 60.3964 234.642 60.2584C234.412 60.1204 234.224 59.9216 234.099 59.6836C233.973 59.4457 233.916 59.1778 233.932 58.9094C233.949 58.6409 234.039 58.3821 234.192 58.1613C234.345 57.9405 234.556 57.7662 234.801 57.6574C235.046 57.5487 235.316 57.5097 235.582 57.5447C235.848 57.5797 236.099 57.6874 236.308 57.8559C236.517 58.0245 236.676 58.2474 236.767 58.5004C236.898 58.8633 236.882 59.2636 236.721 59.6145C236.56 59.9653 236.268 60.2384 235.908 60.3745C235.747 60.4353 235.576 60.4664 235.403 60.4662ZM235.403 58.6324C235.325 58.6314 235.249 58.6556 235.185 58.7014C235.122 58.7473 235.075 58.8124 235.051 58.8871C235.027 58.9619 235.027 59.0423 235.052 59.1167C235.078 59.1911 235.126 59.2554 235.19 59.3002C235.254 59.345 235.331 59.368 235.409 59.3657C235.487 59.3635 235.563 59.3361 235.624 59.2876C235.686 59.2391 235.73 59.1721 235.751 59.0964C235.772 59.0208 235.768 58.9404 235.74 58.8671C235.711 58.8015 235.664 58.7458 235.604 58.7067C235.545 58.6675 235.475 58.6468 235.403 58.6471V58.6324Z" fill="#211A14"/>
<path d="M234.609 60.0444C234.515 60.0444 234.423 60.0205 234.342 59.9749C234.26 59.9294 234.191 59.8637 234.141 59.784C233.922 59.4286 233.8 59.0218 233.786 58.6042C233.773 58.1866 233.869 57.7727 234.064 57.4039C234.259 57.0614 234.531 56.7704 234.86 56.5548C235.189 56.3392 235.564 56.2054 235.954 56.1642C236.099 56.1549 236.241 56.2021 236.351 56.2958C236.462 56.3894 236.532 56.5224 236.546 56.6667C236.552 56.7387 236.544 56.8112 236.522 56.88C236.5 56.9488 236.465 57.0127 236.419 57.0678C236.372 57.123 236.315 57.1684 236.251 57.2016C236.187 57.2347 236.117 57.2548 236.046 57.2608C235.837 57.2856 235.636 57.3584 235.46 57.4735C235.284 57.5886 235.137 57.743 235.029 57.9246C234.925 58.1233 234.874 58.3459 234.881 58.5705C234.889 58.795 234.955 59.0136 235.073 59.2046C235.111 59.2657 235.137 59.3337 235.149 59.4049C235.161 59.476 235.159 59.5488 235.142 59.619C235.126 59.6892 235.096 59.7555 235.054 59.8141C235.012 59.8726 234.959 59.9222 234.898 59.9601C234.812 60.0156 234.711 60.0449 234.609 60.0444Z" fill="#211A14"/>
<rect x="227.75" y="76.5352" width="10.0156" height="4.29883" transform="rotate(-26.2431 227.75 76.5352)" fill="#EEE0D5"/>
<path d="M226.973 75.0779L229.113 79.3008L233.728 71.9238C233.757 71.8766 233.771 71.821 233.766 71.7655C233.761 71.71 233.738 71.6576 233.701 71.6162C233.664 71.5748 233.614 71.5467 233.56 71.536C233.505 71.5253 233.449 71.5327 233.399 71.5571L226.973 75.0779Z" fill="#50453A"/>
<path d="M228.646 83.2519C227.712 83.7047 226.747 84.0883 225.758 84.3999C224.58 84.7555 223.486 85.348 222.544 86.1411C221.601 86.9343 220.829 87.9116 220.275 89.0135L211.216 107.01C211.216 107.01 205.276 118.419 213.494 123.495L257.17 126.36L265.186 82.5184C265.186 82.5184 258.921 75.6713 245.447 76.4378L243.414 73.28C243.231 72.9937 242.95 72.7852 242.623 72.6945C242.297 72.6038 241.948 72.6373 241.645 72.7886L229.669 78.7629C229.368 78.913 229.132 79.1687 229.006 79.4817C228.88 79.7946 228.873 80.1431 228.986 80.461L229.786 82.7385L228.646 83.2519Z" fill="#845416"/>
<path d="M259.362 79.8264C256.247 79.3287 253.062 80.092 250.508 81.9487C247.953 83.8054 246.238 86.6037 245.738 89.7286L240.182 124.753L198.037 122.795C198.037 122.795 187.751 120.847 180.166 135.906C180.166 135.906 179.069 138.697 182.271 139.713C182.271 139.713 182.863 144.026 186.994 141.741C186.994 141.741 189.524 145.529 193.15 142.408C193.15 142.408 196.44 144.609 204.614 138.781C213.155 142.541 222.125 145.232 231.321 146.795C233.1 147.095 234.848 147.348 236.567 147.554L243.146 148.603C245.37 148.958 247.641 148.87 249.83 148.344C252.019 147.819 254.084 146.866 255.906 145.54C257.728 144.214 259.272 142.54 260.45 140.615C261.627 138.691 262.416 136.552 262.769 134.321L269.247 93.4841C269.738 90.3583 268.974 87.1645 267.121 84.6039C265.267 82.0432 262.477 80.325 259.362 79.8264Z" fill="#EEE0D5"/>
<path d="M245.877 149.571C244.924 149.569 243.972 149.493 243.03 149.343L236.45 148.291C234.717 148.085 232.941 147.829 231.197 147.531C222.08 145.979 213.184 143.327 204.702 139.632C198.045 144.282 194.51 143.758 193.249 143.299C192.101 144.168 190.928 144.528 189.751 144.366C188.603 144.167 187.559 143.575 186.797 142.69C185.529 143.27 184.417 143.329 183.507 142.863C182.326 142.265 181.844 140.981 181.661 140.296C180.764 139.982 180.023 139.333 179.592 138.484C179.205 137.589 179.174 136.58 179.504 135.664L179.53 135.605C187.075 120.634 197.201 121.936 198.136 122.094L239.583 124.019L245.033 89.6439C245.559 86.3237 247.379 83.3493 250.091 81.375C252.804 79.4007 256.187 78.5883 259.496 79.1164C262.805 79.6446 265.77 81.4701 267.738 84.1913C269.706 86.9125 270.516 90.3066 269.989 93.6268L263.493 134.453C262.824 138.661 260.684 142.493 257.457 145.262C254.229 148.032 250.125 149.559 245.877 149.571ZM204.53 137.956L204.895 138.124C213.387 141.855 222.302 144.529 231.442 146.086C233.16 146.376 234.915 146.629 236.651 146.838L243.26 147.895C247.558 148.58 251.951 147.526 255.474 144.964C258.997 142.401 261.362 138.541 262.049 134.23L268.527 93.3884C268.991 90.4522 268.275 87.4511 266.536 85.0443C264.796 82.6375 262.175 81.0219 259.249 80.5523C256.323 80.0883 253.333 80.8077 250.934 82.5526C248.536 84.2976 246.925 86.9256 246.455 89.8603L240.8 125.53L197.899 123.528C197.5 123.454 188.055 121.918 180.835 136.21C180.657 136.746 180.678 137.328 180.893 137.849C181.064 138.145 181.294 138.402 181.568 138.604C181.842 138.807 182.155 138.951 182.487 139.027L182.929 139.166L182.992 139.624C182.992 139.624 183.211 141.091 184.147 141.539C184.746 141.836 185.587 141.697 186.636 141.113L187.225 140.791L187.59 141.348C187.59 141.348 188.533 142.712 189.948 142.899C190.818 143.013 191.732 142.668 192.66 141.865L193.085 141.498L193.545 141.81C193.545 141.81 196.645 143.571 204.179 138.194L204.53 137.956Z" fill="#211A14"/>
<path d="M182.27 140.645C182.107 140.643 181.947 140.599 181.807 140.515C181.667 140.431 181.551 140.311 181.473 140.167C181.394 140.024 181.355 139.862 181.36 139.698C181.364 139.535 181.412 139.375 181.499 139.236L186.112 131.942C186.173 131.833 186.255 131.739 186.354 131.663C186.452 131.588 186.565 131.534 186.685 131.503C186.805 131.473 186.93 131.467 187.052 131.487C187.175 131.507 187.292 131.551 187.396 131.618C187.501 131.684 187.591 131.771 187.661 131.874C187.731 131.976 187.78 132.092 187.804 132.214C187.828 132.336 187.828 132.461 187.802 132.583C187.776 132.704 187.726 132.819 187.655 132.921L183.041 140.215C182.96 140.347 182.847 140.456 182.712 140.531C182.576 140.606 182.424 140.645 182.27 140.645Z" fill="#211A14"/>
<path d="M186.991 142.665C186.825 142.667 186.661 142.622 186.518 142.537C186.375 142.451 186.258 142.328 186.18 142.18C186.102 142.033 186.066 141.867 186.076 141.7C186.085 141.534 186.14 141.373 186.234 141.235L190.72 134.634C190.784 134.528 190.87 134.437 190.971 134.366C191.072 134.295 191.186 134.245 191.307 134.219C191.427 134.194 191.552 134.193 191.673 134.216C191.794 134.24 191.909 134.288 192.011 134.358C192.113 134.428 192.2 134.517 192.266 134.621C192.333 134.726 192.378 134.842 192.398 134.964C192.418 135.086 192.414 135.211 192.385 135.332C192.356 135.452 192.303 135.565 192.229 135.664L187.748 142.266C187.663 142.389 187.55 142.49 187.419 142.559C187.287 142.629 187.14 142.665 186.991 142.665Z" fill="#211A14"/>
<path d="M193.145 143.34C192.954 143.34 192.769 143.28 192.615 143.167C192.517 143.097 192.435 143.008 192.371 142.906C192.308 142.803 192.266 142.69 192.246 142.571C192.227 142.452 192.231 142.33 192.259 142.213C192.286 142.096 192.336 141.985 192.406 141.887L196.544 136.111C196.686 135.914 196.9 135.781 197.139 135.741C197.378 135.702 197.623 135.76 197.82 135.902C198.017 136.044 198.15 136.259 198.189 136.499C198.228 136.739 198.17 136.985 198.029 137.182L193.891 142.958C193.805 143.077 193.693 143.173 193.564 143.239C193.434 143.306 193.29 143.34 193.145 143.34Z" fill="#211A14"/>
<path d="M232.537 209.487C232.465 209.487 232.394 209.476 232.325 209.454C232.14 209.398 231.984 209.27 231.892 209.099C231.8 208.928 231.78 208.727 231.836 208.541L240.32 180.114L240.506 179.971C248.603 173.736 250.409 161.633 250.424 161.498C250.451 161.303 250.555 161.128 250.712 161.01C250.868 160.892 251.065 160.841 251.259 160.869C251.453 160.896 251.628 161 251.746 161.157C251.863 161.315 251.914 161.512 251.886 161.707C251.813 162.224 250.014 174.367 241.599 180.99L233.25 208.962C233.205 209.116 233.11 209.25 232.982 209.345C232.853 209.44 232.697 209.489 232.537 209.487Z" fill="white"/>
<path d="M248.376 126.022H248.314L240.126 125.512C240.006 125.504 239.888 125.476 239.781 125.428C239.673 125.38 239.577 125.314 239.498 125.233C239.339 125.07 239.259 124.857 239.276 124.642C239.293 124.426 239.405 124.225 239.589 124.084C239.772 123.942 240.011 123.871 240.254 123.886L248.442 124.396C248.562 124.4 248.68 124.425 248.789 124.469C248.898 124.514 248.997 124.577 249.078 124.655C249.16 124.733 249.224 124.825 249.266 124.925C249.308 125.025 249.327 125.132 249.323 125.239C249.319 125.345 249.291 125.45 249.241 125.547C249.191 125.645 249.12 125.732 249.032 125.805C248.944 125.878 248.841 125.934 248.728 125.972C248.616 126.009 248.496 126.026 248.376 126.022Z" fill="#211A14"/>
<path d="M143.448 29.1973H88.9626C84.6987 29.1973 81.2422 32.6651 81.2422 36.943V60.1288C81.2422 64.4067 84.6987 67.8745 88.9626 67.8745H143.448C147.712 67.8745 151.169 64.4067 151.169 60.1288V36.943C151.169 32.6651 147.712 29.1973 143.448 29.1973Z" fill="white"/>
<path d="M93.991 42.4912C93.7971 42.4912 93.6111 42.4139 93.474 42.2764C93.3369 42.1388 93.2599 41.9523 93.2599 41.7577C93.2124 39.6783 93.991 38.4313 94.6417 37.7528C95.0004 37.369 95.4311 37.0599 95.9091 36.8434C96.3871 36.6269 96.903 36.5072 97.4272 36.4912C97.9388 36.4979 98.4442 36.606 98.914 36.8093C99.3839 37.0126 99.8091 37.3071 100.165 37.6758C100.838 38.3543 101.627 39.6086 101.605 41.7504C101.605 41.9449 101.528 42.1315 101.391 42.269C101.254 42.4066 101.068 42.4839 100.874 42.4839C100.68 42.4839 100.494 42.4066 100.357 42.269C100.22 42.1315 100.143 41.9449 100.143 41.7504C100.143 40.4594 99.8106 39.4142 99.1306 38.732C98.6897 38.2721 98.0884 38.0013 97.4528 37.9765C96.7868 38.0092 96.1599 38.3013 95.7054 38.7907C95.0438 39.4765 94.7075 40.4961 94.7367 41.7247C94.7391 41.821 94.7226 41.9169 94.6881 42.0068C94.6536 42.0968 94.6018 42.179 94.5356 42.2488C94.4694 42.3186 94.3901 42.3747 94.3023 42.4137C94.2145 42.4528 94.1199 42.4742 94.0239 42.4765L93.991 42.4912Z" fill="#211A14"/>
<path d="M104.379 61.0598H90.5832C90.2438 61.0577 89.9088 60.983 89.6004 60.8407C89.2921 60.6984 89.0175 60.4917 88.7951 60.2345C88.5726 59.9774 88.4074 59.6755 88.3105 59.3492C88.2135 59.0229 88.187 58.6796 88.2327 58.3422L90.1555 43.8373C90.2291 43.2636 90.5082 42.7363 90.9406 42.3537C91.3731 41.9711 91.9294 41.7593 92.506 41.7578H102.131C102.698 41.7608 103.246 41.9667 103.675 42.3384C104.105 42.7102 104.388 43.2234 104.474 43.7859L106.722 58.2908C106.777 58.6316 106.757 58.9801 106.664 59.3125C106.572 59.6448 106.408 59.9531 106.186 60.2162C105.963 60.4793 105.686 60.6909 105.375 60.8365C105.063 60.9821 104.723 61.0583 104.379 61.0598Z" fill="#50453A"/>
<path d="M141.118 39.5469H116.476C115.022 39.5469 113.844 40.7283 113.844 42.1856C113.844 43.643 115.022 44.8244 116.476 44.8244H141.118C142.571 44.8244 143.75 43.643 143.75 42.1856C143.75 40.7283 142.571 39.5469 141.118 39.5469Z" fill="#D4C4B5"/>
<path d="M142.503 51.7521H115.087C114.893 51.7521 114.707 51.6749 114.57 51.5373C114.432 51.3998 114.355 51.2132 114.355 51.0187C114.355 50.8241 114.432 50.6375 114.57 50.5C114.707 50.3624 114.893 50.2852 115.087 50.2852H142.503C142.697 50.2852 142.883 50.3624 143.02 50.5C143.157 50.6375 143.234 50.8241 143.234 51.0187C143.234 51.2132 143.157 51.3998 143.02 51.5373C142.883 51.6749 142.697 51.7521 142.503 51.7521Z" fill="#211A14"/>
<path d="M138.639 58.0236H115.09C114.897 58.0236 114.711 57.9463 114.574 57.8088C114.436 57.6712 114.359 57.4847 114.359 57.2901C114.359 57.0956 114.436 56.909 114.574 56.7715C114.711 56.6339 114.897 56.5566 115.09 56.5566H138.639C138.833 56.5566 139.019 56.6339 139.156 56.7715C139.293 56.909 139.37 57.0956 139.37 57.2901C139.37 57.4847 139.293 57.6712 139.156 57.8088C139.019 57.9463 138.833 58.0236 138.639 58.0236Z" fill="#211A14"/>
<path d="M230.405 83.527C230.196 83.5249 229.995 83.4514 229.834 83.3188C229.673 83.1862 229.562 83.0024 229.519 82.7979C229.477 82.5933 229.505 82.3803 229.6 82.1941C229.694 82.0078 229.849 81.8596 230.039 81.7739L239.814 77.3362C240.035 77.2361 240.287 77.2281 240.514 77.3141C240.741 77.4 240.924 77.5729 241.024 77.7947C241.124 78.0165 241.132 78.2689 241.046 78.4966C240.96 78.7243 240.788 78.9084 240.567 79.0086L230.792 83.4463C230.67 83.5015 230.538 83.529 230.405 83.527Z" fill="#211A14"/>
<path d="M109.981 167.094C109.803 167.095 109.629 167.043 109.481 166.944C109.332 166.846 109.216 166.704 109.146 166.538C109.077 166.372 109.057 166.189 109.09 166.012C109.123 165.835 109.206 165.672 109.33 165.543L132.354 141.15C132.852 140.618 133.315 140.05 133.799 139.478L133.944 139.302C134.951 138.098 136.205 137.131 137.617 136.468C139.03 135.805 140.568 135.461 142.124 135.462H152.069C152.309 135.462 152.538 135.559 152.708 135.73C152.877 135.902 152.973 136.136 152.973 136.379C152.973 136.622 152.877 136.855 152.708 137.027C152.538 137.199 152.309 137.296 152.069 137.296H142.132C140.838 137.295 139.559 137.58 138.385 138.132C137.21 138.683 136.169 139.488 135.332 140.49L135.184 140.666C134.7 141.246 134.197 141.847 133.658 142.415L110.635 166.812C110.551 166.901 110.449 166.972 110.337 167.02C110.224 167.069 110.103 167.094 109.981 167.094Z" fill="#211A14"/>
<path d="M116.035 209.017L94.4453 205.379C92.9698 205.13 91.5677 204.555 90.3399 203.697C89.1121 202.839 88.0889 201.719 87.3441 200.417C86.5993 199.115 86.1512 197.663 86.0321 196.167C85.913 194.67 86.1259 193.166 86.6554 191.762L127.882 82.5589C128.677 80.4541 130.147 78.6738 132.059 77.4976C133.972 76.3213 136.22 75.8157 138.45 76.0601L160.208 78.4439C161.744 78.6116 163.222 79.1298 164.528 79.9588C165.834 80.7878 166.933 81.9057 167.742 83.2268C168.55 84.5479 169.047 86.0372 169.193 87.5806C169.34 89.124 169.132 90.6805 168.586 92.131L127.191 202.577C126.365 204.782 124.8 206.631 122.765 207.806C120.729 208.98 118.35 209.409 116.035 209.017Z" fill="white"/>
<path d="M102.718 207C102.633 207 102.549 206.984 102.47 206.953C102.292 206.886 102.147 206.751 102.067 206.576C101.987 206.401 101.978 206.202 102.043 206.021L148.598 77.508C148.628 77.4142 148.676 77.3274 148.739 77.2528C148.802 77.1783 148.88 77.1175 148.967 77.0742C149.054 77.031 149.149 77.006 149.246 77.001C149.342 76.9959 149.439 77.0108 149.53 77.0448C149.621 77.0788 149.705 77.1311 149.775 77.1987C149.846 77.2662 149.902 77.3476 149.941 77.4379C149.979 77.5281 149.999 77.6254 150 77.7238C150.001 77.8222 149.981 77.9197 149.944 78.0104L103.389 206.523C103.338 206.663 103.247 206.783 103.127 206.868C103.007 206.953 102.864 206.999 102.718 207Z" fill="#211A14"/>
<path d="M153.942 130.375H153.858L111.296 125.428C111.2 125.417 111.107 125.387 111.023 125.34C110.939 125.293 110.864 125.229 110.804 125.153C110.744 125.077 110.699 124.99 110.673 124.897C110.646 124.804 110.638 124.706 110.649 124.61C110.66 124.514 110.69 124.421 110.737 124.336C110.784 124.251 110.847 124.176 110.923 124.116C110.999 124.056 111.085 124.011 111.178 123.984C111.271 123.958 111.369 123.95 111.465 123.961L154.007 128.919C154.103 128.925 154.197 128.949 154.284 128.991C154.371 129.033 154.448 129.092 154.512 129.164C154.576 129.236 154.625 129.32 154.657 129.411C154.689 129.502 154.702 129.599 154.696 129.695C154.691 129.791 154.667 129.886 154.625 129.972C154.583 130.059 154.524 130.137 154.453 130.201C154.381 130.266 154.297 130.315 154.206 130.347C154.116 130.378 154.019 130.392 153.923 130.386L153.942 130.375Z" fill="#211A14"/>
<path d="M132.038 127.629C131.716 127.629 131.404 127.514 131.157 127.306C124.61 121.805 120.699 117.187 119.529 113.597C119.349 113.048 119.326 112.46 119.464 111.899C119.601 111.338 119.894 110.827 120.307 110.425C120.721 110.022 121.239 109.745 121.802 109.624C122.365 109.504 122.951 109.545 123.492 109.743C129.37 111.84 132.356 121.768 133.362 125.934C133.434 126.215 133.413 126.51 133.304 126.778C133.195 127.046 133.002 127.271 132.755 127.42C132.54 127.555 132.292 127.628 132.038 127.629ZM122.439 111.022C122.028 111.028 121.634 111.194 121.342 111.485C121.125 111.693 120.972 111.96 120.901 112.253C120.83 112.546 120.845 112.854 120.944 113.139C121.675 115.405 124.179 119.469 131.91 125.993C129.045 114.415 124.757 111.738 123.038 111.125C122.845 111.05 122.639 111.011 122.432 111.008L122.439 111.022Z" fill="#211A14"/>
<path d="M112.511 148.302C112.374 148.302 112.241 148.263 112.125 148.191C112.009 148.118 111.916 148.015 111.856 147.892C111.796 147.769 111.771 147.632 111.785 147.496C111.799 147.359 111.85 147.23 111.933 147.121C112.405 146.505 123.543 132.085 130.891 126.631C131.801 125.505 140.885 114.528 148.393 115.684C148.963 115.766 149.499 116.008 149.938 116.381C150.378 116.755 150.704 117.245 150.879 117.796C151.053 118.347 151.07 118.936 150.926 119.496C150.783 120.055 150.485 120.563 150.067 120.961C147.161 123.745 140.983 126.066 131.702 127.856C124.512 133.218 113.205 147.869 113.088 148.027C113.019 148.114 112.931 148.184 112.831 148.231C112.731 148.279 112.621 148.303 112.511 148.302ZM147.238 117.066C142.098 117.066 136.019 123.074 133.347 126.022C143.158 123.95 147.304 121.574 149.066 119.898C149.287 119.693 149.445 119.429 149.521 119.138C149.598 118.846 149.589 118.538 149.497 118.251C149.404 117.961 149.231 117.704 148.998 117.509C148.765 117.315 148.482 117.19 148.181 117.151C147.873 117.098 147.561 117.07 147.249 117.066H147.238Z" fill="#211A14"/>
<path d="M135.666 152.567H135.63C135.534 152.562 135.439 152.539 135.353 152.498C135.266 152.456 135.188 152.398 135.123 152.327C135.059 152.255 135.009 152.172 134.977 152.081C134.944 151.99 134.93 151.893 134.935 151.797C135.396 142.592 130.764 127.533 130.717 127.383C130.659 127.197 130.677 126.996 130.767 126.823C130.858 126.651 131.012 126.522 131.197 126.464C131.383 126.406 131.583 126.424 131.755 126.515C131.927 126.605 132.055 126.76 132.113 126.946C132.307 127.573 136.865 142.408 136.397 151.885C136.384 152.071 136.302 152.244 136.166 152.371C136.03 152.497 135.852 152.568 135.666 152.567Z" fill="#211A14"/>
<path d="M60.3717 188.718H118.509C121.13 188.718 123.254 186.586 123.254 183.957V141.961C123.254 139.332 121.13 137.201 118.509 137.201H60.3717C57.7512 137.201 55.6269 139.332 55.6269 141.961V183.957C55.6269 186.586 57.7512 188.718 60.3717 188.718Z" fill="#211A14"/>
<path d="M116.561 142.36H106.695C105.593 142.36 104.699 143.257 104.699 144.363V149.857C104.699 150.963 105.593 151.859 106.695 151.859H116.561C117.664 151.859 118.557 150.963 118.557 149.857V144.363C118.557 143.257 117.664 142.36 116.561 142.36Z" fill="white"/>
<path d="M117.418 157.801H106.251C106.057 157.801 105.871 157.724 105.734 157.586C105.597 157.449 105.52 157.262 105.52 157.067C105.52 156.873 105.597 156.686 105.734 156.549C105.871 156.411 106.057 156.334 106.251 156.334H117.418C117.612 156.334 117.798 156.411 117.935 156.549C118.072 156.686 118.149 156.873 118.149 157.067C118.149 157.262 118.072 157.449 117.935 157.586C117.798 157.724 117.612 157.801 117.418 157.801Z" fill="white"/>
<path d="M117.417 162.26H109.2C109.006 162.26 108.82 162.183 108.683 162.045C108.546 161.908 108.469 161.721 108.469 161.526C108.469 161.332 108.546 161.145 108.683 161.008C108.82 160.87 109.006 160.793 109.2 160.793H117.417C117.611 160.793 117.797 160.87 117.934 161.008C118.072 161.145 118.149 161.332 118.149 161.526C118.149 161.721 118.072 161.908 117.934 162.045C117.797 162.183 117.611 162.26 117.417 162.26Z" fill="white"/>
<path d="M116.118 109.328H64.4798C62.9333 109.328 61.6797 110.586 61.6797 112.137V134.392C61.6797 135.943 62.9333 137.201 64.4798 137.201H116.118C117.664 137.201 118.918 135.943 118.918 134.392V112.137C118.918 110.586 117.664 109.328 116.118 109.328Z" fill="#845416"/>
<path d="M155.265 281.838H46.2317L40.5547 246.326H163.278L155.265 281.838ZM47.7926 280.005H153.803L160.989 248.16H42.6968L47.7926 280.005Z" fill="#211A14"/>
<path d="M155.265 281.838H46.2317L40.5547 246.326H163.278L155.265 281.838ZM47.7926 280.005H153.803L160.989 248.16H42.6968L47.7926 280.005Z" fill="black" fill-opacity="0.2"/>
<path d="M155.265 281.838H46.2317L40.5547 246.326H163.278L155.265 281.838ZM47.7926 280.005H153.803L160.989 248.16H42.6968L47.7926 280.005Z" fill="black" fill-opacity="0.2"/>
<path d="M99.3709 282.312C99.1285 282.312 98.8961 282.215 98.7247 282.043C98.5533 281.871 98.457 281.638 98.457 281.395V248.039C98.457 247.796 98.5533 247.563 98.7247 247.391C98.8961 247.219 99.1285 247.122 99.3709 247.122C99.6133 247.122 99.8457 247.219 100.017 247.391C100.189 247.563 100.285 247.796 100.285 248.039V281.395C100.285 281.638 100.189 281.871 100.017 282.043C99.8457 282.215 99.6133 282.312 99.3709 282.312Z" fill="#211A14"/>
<path d="M99.3709 282.312C99.1285 282.312 98.8961 282.215 98.7247 282.043C98.5533 281.871 98.457 281.638 98.457 281.395V248.039C98.457 247.796 98.5533 247.563 98.7247 247.391C98.8961 247.219 99.1285 247.122 99.3709 247.122C99.6133 247.122 99.8457 247.219 100.017 247.391C100.189 247.563 100.285 247.796 100.285 248.039V281.395C100.285 281.638 100.189 281.871 100.017 282.043C99.8457 282.215 99.6133 282.312 99.3709 282.312Z" fill="black" fill-opacity="0.2"/>
<path d="M99.3709 282.312C99.1285 282.312 98.8961 282.215 98.7247 282.043C98.5533 281.871 98.457 281.638 98.457 281.395V248.039C98.457 247.796 98.5533 247.563 98.7247 247.391C98.8961 247.219 99.1285 247.122 99.3709 247.122C99.6133 247.122 99.8457 247.219 100.017 247.391C100.189 247.563 100.285 247.796 100.285 248.039V281.395C100.285 281.638 100.189 281.871 100.017 282.043C99.8457 282.215 99.6133 282.312 99.3709 282.312Z" fill="black" fill-opacity="0.2"/>
<path d="M52.565 290.002C57.2629 290.002 61.0714 286.149 61.0714 281.395C61.0714 276.641 57.2629 272.787 52.565 272.787C47.867 272.787 44.0586 276.641 44.0586 281.395C44.0586 286.149 47.867 290.002 52.565 290.002Z" fill="#211A14"/>
<path d="M52.565 290.002C57.2629 290.002 61.0714 286.149 61.0714 281.395C61.0714 276.641 57.2629 272.787 52.565 272.787C47.867 272.787 44.0586 276.641 44.0586 281.395C44.0586 286.149 47.867 290.002 52.565 290.002Z" fill="black" fill-opacity="0.2"/>
<path d="M52.565 290.002C57.2629 290.002 61.0714 286.149 61.0714 281.395C61.0714 276.641 57.2629 272.787 52.565 272.787C47.867 272.787 44.0586 276.641 44.0586 281.395C44.0586 286.149 47.867 290.002 52.565 290.002Z" fill="black" fill-opacity="0.2"/>
<path d="M99.435 290.002C104.173 290.002 108.014 286.149 108.014 281.395C108.014 276.641 104.173 272.787 99.435 272.787C94.6966 272.787 90.8555 276.641 90.8555 281.395C90.8555 286.149 94.6966 290.002 99.435 290.002Z" fill="#211A14"/>
<path d="M99.435 290.002C104.173 290.002 108.014 286.149 108.014 281.395C108.014 276.641 104.173 272.787 99.435 272.787C94.6966 272.787 90.8555 276.641 90.8555 281.395C90.8555 286.149 94.6966 290.002 99.435 290.002Z" fill="black" fill-opacity="0.2"/>
<path d="M99.435 290.002C104.173 290.002 108.014 286.149 108.014 281.395C108.014 276.641 104.173 272.787 99.435 272.787C94.6966 272.787 90.8555 276.641 90.8555 281.395C90.8555 286.149 94.6966 290.002 99.435 290.002Z" fill="black" fill-opacity="0.2"/>
<path d="M148.484 290.002C153.176 290.002 156.979 286.149 156.979 281.395C156.979 276.641 153.176 272.787 148.484 272.787C143.792 272.787 139.988 276.641 139.988 281.395C139.988 286.149 143.792 290.002 148.484 290.002Z" fill="#211A14"/>
<path d="M148.484 290.002C153.176 290.002 156.979 286.149 156.979 281.395C156.979 276.641 153.176 272.787 148.484 272.787C143.792 272.787 139.988 276.641 139.988 281.395C139.988 286.149 143.792 290.002 148.484 290.002Z" fill="black" fill-opacity="0.2"/>
<path d="M148.484 290.002C153.176 290.002 156.979 286.149 156.979 281.395C156.979 276.641 153.176 272.787 148.484 272.787C143.792 272.787 139.988 276.641 139.988 281.395C139.988 286.149 143.792 290.002 148.484 290.002Z" fill="black" fill-opacity="0.2"/>
<path d="M177.566 165.51H33.3629C28.8008 165.51 25.4085 170.278 26.3882 175.306L40.9627 250.071H162.64L184.511 176.527C186.112 171.117 182.585 165.51 177.566 165.51Z" fill="#50453A"/>
<path d="M99.3709 228.781C99.1285 228.781 98.8961 228.685 98.7247 228.513C98.5533 228.341 98.457 228.108 98.457 227.865V173.557C98.457 173.313 98.5533 173.08 98.7247 172.908C98.8961 172.736 99.1285 172.64 99.3709 172.64C99.6133 172.64 99.8457 172.736 100.017 172.908C100.189 173.08 100.285 173.313 100.285 173.557V227.865C100.285 227.985 100.261 228.104 100.215 228.215C100.169 228.327 100.102 228.428 100.017 228.513C99.9323 228.598 99.8315 228.666 99.7206 228.712C99.6098 228.758 99.4909 228.781 99.3709 228.781Z" fill="#211A14"/>
<path d="M77.2898 179.105H44.785C42.4249 179.105 40.5117 181.025 40.5117 183.393C40.5117 185.761 42.4249 187.68 44.785 187.68H77.2898C79.6499 187.68 81.5631 185.761 81.5631 183.393C81.5631 181.025 79.6499 179.105 77.2898 179.105Z" fill="white"/>
<path d="M280.602 273.714C280.534 273.714 280.467 273.705 280.401 273.688L274.45 272.327C274.214 272.273 274.008 272.127 273.879 271.921C273.75 271.715 273.707 271.466 273.761 271.229C273.815 270.992 273.96 270.785 274.166 270.656C274.371 270.526 274.619 270.484 274.856 270.538L280.807 271.902C281.027 271.951 281.221 272.08 281.352 272.265C281.483 272.449 281.542 272.675 281.516 272.9C281.491 273.125 281.383 273.332 281.215 273.482C281.046 273.633 280.828 273.715 280.602 273.714Z" fill="#211A14"/>
<path d="M278.497 277.724C278.428 277.724 278.359 277.715 278.292 277.698L272.341 276.334C272.22 276.312 272.104 276.265 272.001 276.197C271.898 276.129 271.809 276.04 271.741 275.937C271.673 275.834 271.627 275.717 271.605 275.596C271.582 275.474 271.585 275.349 271.613 275.228C271.64 275.107 271.692 274.993 271.764 274.893C271.837 274.793 271.929 274.708 272.035 274.645C272.141 274.581 272.259 274.54 272.381 274.523C272.503 274.506 272.628 274.515 272.747 274.548L278.698 275.912C278.918 275.961 279.112 276.09 279.243 276.275C279.374 276.459 279.433 276.685 279.407 276.91C279.382 277.135 279.274 277.342 279.106 277.493C278.937 277.643 278.719 277.725 278.493 277.724H278.497Z" fill="#211A14"/>
<path d="M174.022 276.66C173.893 276.66 173.765 276.633 173.647 276.579C173.529 276.525 173.424 276.447 173.339 276.349L169.296 271.761C169.148 271.577 169.077 271.342 169.097 271.107C169.117 270.872 169.227 270.653 169.404 270.497C169.581 270.341 169.811 270.259 170.046 270.269C170.281 270.279 170.504 270.38 170.667 270.55L174.688 275.146C174.847 275.328 174.929 275.567 174.913 275.81C174.898 276.052 174.788 276.279 174.607 276.44C174.443 276.579 174.237 276.656 174.022 276.66Z" fill="#211A14"/>
<path d="M168.082 279.275C167.951 279.276 167.823 279.249 167.704 279.195C167.585 279.141 167.48 279.062 167.394 278.964L163.373 274.372C163.294 274.282 163.233 274.176 163.194 274.062C163.155 273.949 163.139 273.828 163.146 273.708C163.154 273.588 163.185 273.47 163.238 273.362C163.29 273.254 163.364 273.157 163.454 273.077C163.544 272.998 163.649 272.936 163.762 272.897C163.876 272.858 163.996 272.842 164.116 272.849C164.235 272.857 164.353 272.888 164.46 272.941C164.568 272.994 164.665 273.068 164.744 273.158L168.765 277.753C168.883 277.885 168.959 278.048 168.986 278.223C169.013 278.397 168.989 278.576 168.917 278.737C168.844 278.898 168.727 279.035 168.579 279.13C168.43 279.226 168.258 279.276 168.082 279.275Z" fill="#211A14"/>
<path fill-rule="evenodd" clip-rule="evenodd" d="M194.844 13.2765C194.844 9.00317 191.761 5.53467 187.966 5.53467H170.576C166.788 5.53467 163.707 9.00317 163.707 13.2765V28.755C163.707 33.0231 166.788 36.4916 170.576 36.4916H187.966C191.761 36.4916 194.844 33.0231 194.844 28.755V13.2765Z" fill="#FABA73"/>
<path fill-rule="evenodd" clip-rule="evenodd" d="M196.998 6.79009C197.331 7.08063 197.365 7.586 197.075 7.91886L180.574 26.8226C179.838 27.6661 178.519 27.6399 177.816 26.768L170.341 17.4868C170.064 17.1427 170.118 16.639 170.462 16.3619C170.806 16.0848 171.31 16.139 171.587 16.4831L179.062 25.7644C179.14 25.8613 179.287 25.8642 179.369 25.7704L195.869 6.86671C196.16 6.53385 196.665 6.49954 196.998 6.79009Z" fill="#211A14"/>
<path d="M217.165 59.9764C215.687 59.973 214.242 59.5291 213.001 58.6977C211.761 57.8662 210.777 56.6822 210.167 55.2869L210.027 54.9712L210.477 53.6602C211.191 52.0354 212.111 51.7126 213.651 50.9131L221.566 46.8169C222.52 46.3239 223.561 46.035 224.626 45.9675C225.69 45.9 226.757 46.0552 227.763 46.4239C228.768 46.7925 229.692 47.3671 230.479 48.1135C231.267 48.8599 231.901 49.7628 232.345 50.7685L233.938 54.3902C234.04 54.6231 234.022 54.8914 233.889 55.1082C233.329 56.0302 232.593 56.823 231.725 57.4373C230.857 58.0515 229.877 58.4742 228.845 58.6789C227.813 58.8837 226.751 58.8661 225.726 58.6274C224.701 58.3887 223.734 57.9339 222.886 57.2913C222.168 58.1305 221.287 58.8034 220.301 59.2661C219.315 59.7287 218.247 59.9708 217.165 59.9764ZM211.663 54.975C212.151 55.9517 213.002 56.6948 213.887 57.3008C214.772 57.9067 215.79 58.1678 216.848 58.249C217.906 58.3302 218.671 58.1936 219.633 57.7295C220.594 57.2654 221.59 56.6767 222.211 55.7852L222.666 55.1044L223.275 55.6634C223.922 56.2659 224.821 56.6007 225.649 56.8775C226.476 57.1543 227.176 57.213 228.04 57.1161C228.905 57.0193 229.737 56.8566 230.489 56.4028C231.241 55.9491 231.935 55.3685 232.444 54.6365L231.021 51.4075C230.66 50.5849 230.143 49.8462 229.5 49.2355C228.858 48.6248 228.103 48.1547 227.281 47.8533C226.46 47.5519 225.588 47.4253 224.718 47.4812C223.848 47.5371 222.998 47.7742 222.219 48.1785L214.293 52.2899C213.161 52.877 212.234 53.8157 211.641 54.975H211.663Z" fill="#211A14"/>
</g>
<defs>
<clipPath id="clip0_726_54942">
<rect width="283" height="300" fill="white" transform="translate(26)"/>
</clipPath>
</defs>
</svg>
